<svg width="317" height="190" viewBox="0 0 317 190" fill="none" xmlns="http://www.w3.org/2000/svg">
<g clip-path="url(#clip0_61_1090)">
<path d="M253.558 190.158C218.512 190.158 190.116 161.761 190.116 126.716L253.558 126.716L253.558 190.158Z" fill="#3F5DB3"/>
<path d="M317 126.716C317 161.761 288.603 190.158 253.558 190.158L253.558 126.716L317 126.716Z" fill="#C2DAFF"/>
<path d="M317 63.2737C317 98.3191 288.603 126.716 253.558 126.716L253.558 63.2737L317 63.2737Z" fill="#3F5DB3"/>
<path d="M63.2314 126.716C63.2314 91.6706 91.6281 63.274 126.674 63.274L126.674 126.716L63.2314 126.716Z" fill="#85AAF5"/>
<path d="M190.116 126.716C190.116 161.761 161.719 190.158 126.674 190.158L126.674 126.716L190.116 126.716Z" fill="#85AAF5"/>
<path d="M317 -0.168274C317 34.8771 288.603 63.2738 253.558 63.2738L253.558 -0.168273L317 -0.168274Z" fill="#85AAF5"/>
<path d="M317 126.716C317 161.761 288.603 190.158 253.558 190.158L253.558 126.716L317 126.716Z" fill="#85AAF5"/>
<rect x="190.116" y="63.2737" width="63.4421" height="63.4421" rx="31.7211" fill="#85AAF5"/>
<rect x="190.116" y="-0.168274" width="63.4421" height="63.4421" rx="31.7211" fill="#3F5DB3"/>
<rect x="63.2314" y="126.716" width="63.4421" height="63.4421" rx="31.7211" fill="#3F5DB3"/>
<rect x="-0.210449" y="126.716" width="63.4421" height="63.4421" rx="31.7211" fill="#85AAF5"/>
<rect x="126.674" y="63.2737" width="63.4421" height="63.4421" rx="31.7211" fill="#3F5DB3"/>
</g>
<defs>
<clipPath id="clip0_61_1090">
<rect width="317" height="190" fill="white"/>
</clipPath>
</defs>
</svg>
