<svg width="86" height="16" viewBox="0 0 86 16" fill="none" xmlns="http://www.w3.org/2000/svg">
<circle cx="1.91326" cy="7.65301" r="1.91326" fill="#141414"/>
<circle cx="7.65301" cy="7.65301" r="1.91326" fill="#141414"/>
<circle opacity="0.2" cx="1.91326" cy="13.3928" r="1.91326" fill="#141414"/>
<circle opacity="0.2" cx="13.3928" cy="13.3928" r="1.91326" fill="#141414"/>
<circle cx="7.65301" cy="13.3928" r="1.91326" fill="#141414"/>
<circle cx="13.3928" cy="7.65301" r="1.91326" fill="#141414"/>
<circle opacity="0.2" cx="1.91326" cy="1.91326" r="1.91326" fill="#141414"/>
<circle opacity="0.2" cx="7.65301" cy="1.91326" r="1.91326" fill="#141414"/>
<circle opacity="0.2" cx="13.3928" cy="1.91326" r="1.91326" fill="#141414"/>
<path d="M26.892 14.1397C27.4336 14.1397 27.8737 14.0889 28.3984 13.9873V12.0239C28.0768 12.1424 27.7213 12.1763 27.3828 12.1763C26.5534 12.1763 26.2488 11.77 26.2488 10.9914V6.9969H28.3984V5.03348H26.2488V2.1222H23.8791V5.03348H22.3389V6.9969H23.8791V11.2115C23.8791 13.0733 24.8608 14.1397 26.892 14.1397Z" fill="#141414"/>
<path d="M32.2684 14.1397C33.5378 14.1397 34.3841 13.7165 34.8073 13.0564C34.8411 13.3442 34.9427 13.7335 35.0781 13.9704H37.2108C37.0923 13.5642 37.0076 12.921 37.0076 12.4979V7.86013C37.0076 5.94749 35.6366 4.86422 33.3178 4.86422C31.5575 4.86422 30.1865 5.52433 29.4248 6.48912L30.7789 7.82627C31.3882 7.14923 32.1668 6.79379 33.1147 6.79379C34.2656 6.79379 34.7734 7.18308 34.7734 7.75857C34.7734 8.24942 34.4349 8.58794 32.6069 8.58794C30.8466 8.58794 29.0693 9.31576 29.0693 11.3469C29.0693 13.2257 30.4234 14.1397 32.2684 14.1397ZM32.7423 12.3455C31.8283 12.3455 31.4051 11.9562 31.4051 11.2623C31.4051 10.6529 31.9129 10.2467 32.7592 10.2467C34.1133 10.2467 34.4857 10.1621 34.7734 9.87432V10.6021C34.7734 11.5669 33.961 12.3455 32.7423 12.3455Z" fill="#141414"/>
<path d="M38.548 3.89944H41.0192V1.68213H38.548V3.89944ZM38.5988 13.9704H40.9685V5.03348H38.5988V13.9704Z" fill="#141414"/>
<path d="M42.6948 13.9704H45.0644V1.95294H42.6948V13.9704Z" fill="#141414"/>
<path d="M49.9898 14.1397C52.5964 14.1397 53.9335 12.7687 53.9335 11.33C53.9335 10.0267 53.2734 9.06187 51.1069 8.67257C49.5835 8.40176 48.6357 8.06324 48.6357 7.53853C48.6357 7.08153 49.1773 6.75993 50.0913 6.75993C50.9038 6.75993 51.5808 7.03075 52.0886 7.62316L53.595 6.35371C52.8333 5.40585 51.5808 4.86422 50.0913 4.86422C47.8063 4.86422 46.3845 6.08289 46.3845 7.57238C46.3845 9.19728 47.874 9.9251 49.482 10.2128C50.8191 10.4498 51.5639 10.7037 51.5639 11.2792C51.5639 11.77 51.0392 12.1763 50.0405 12.1763C49.0588 12.1763 48.2972 11.7193 47.9417 11.0422L45.9444 11.9901C46.4353 13.2087 48.111 14.1397 49.9898 14.1397Z" fill="#141414"/>
<path d="M59.2312 14.1397C60.9238 14.1397 62.1425 13.4626 63.0565 11.9393L61.1608 10.9745C60.8054 11.6854 60.2299 12.1763 59.2312 12.1763C57.7248 12.1763 56.9124 10.9576 56.9124 9.48502C56.9124 8.01246 57.7756 6.82764 59.2312 6.82764C60.1452 6.82764 60.7546 7.31849 61.11 8.06324L63.0227 7.04768C62.3795 5.64282 61.11 4.86422 59.2312 4.86422C56.1338 4.86422 54.5427 7.13231 54.5427 9.48502C54.5427 12.0409 56.4723 14.1397 59.2312 14.1397Z" fill="#141414"/>
<path d="M66.8312 14.1397C68.1006 14.1397 68.9469 13.7165 69.3701 13.0564C69.4039 13.3442 69.5055 13.7335 69.6409 13.9704H71.7736C71.6551 13.5642 71.5704 12.921 71.5704 12.4979V7.86013C71.5704 5.94749 70.1994 4.86422 67.8806 4.86422C66.1203 4.86422 64.7493 5.52433 63.9876 6.48912L65.3417 7.82627C65.951 7.14923 66.7296 6.79379 67.6775 6.79379C68.8284 6.79379 69.3362 7.18308 69.3362 7.75857C69.3362 8.24942 68.9977 8.58794 67.1697 8.58794C65.4094 8.58794 63.6321 9.31576 63.6321 11.3469C63.6321 13.2257 64.9862 14.1397 66.8312 14.1397ZM67.3051 12.3455C66.3911 12.3455 65.9679 11.9562 65.9679 11.2623C65.9679 10.6529 66.4757 10.2467 67.322 10.2467C68.6761 10.2467 69.0485 10.1621 69.3362 9.87432V10.6021C69.3362 11.5669 68.5238 12.3455 67.3051 12.3455Z" fill="#141414"/>
<path d="M72.9633 13.9704H75.3329V1.95294H72.9633V13.9704Z" fill="#141414"/>
<path d="M81.0199 14.1397C82.7633 14.1397 84.1682 13.4457 84.9468 12.2101L83.1526 11.0591C82.6787 11.8039 82.0524 12.2101 81.0199 12.2101C79.852 12.2101 79.0057 11.5669 78.7857 10.3144H85.5222V9.48502C85.5222 7.13231 84.0835 4.86422 81.003 4.86422C78.0748 4.86422 76.4837 7.14923 76.4837 9.50195C76.4837 12.8533 79.0057 14.1397 81.0199 14.1397ZM78.8703 8.45254C79.2427 7.31849 80.0213 6.79379 81.0538 6.79379C82.2217 6.79379 82.9326 7.48775 83.1695 8.45254H78.8703Z" fill="#141414"/>
</svg>
