<svg viewBox="0 0 36 24" fill="none" xmlns="http://www.w3.org/2000/svg">
<path d="M25.2889 9.14448L27.7871 4.81679C27.9281 4.57418 27.8429 4.26601 27.6035 4.12503C27.3642 3.98408 27.0527 4.06604 26.915 4.30863L24.384 8.69203C22.4529 7.8101 20.2793 7.31831 17.9417 7.31831C15.6041 7.31831 13.4304 7.8101 11.4993 8.69203L8.9683 4.30863C8.82733 4.06602 8.51914 3.98406 8.27653 4.12503C8.03391 4.26597 7.95195 4.57418 8.09292 4.81679L10.5912 9.14448C6.28317 11.4788 3.36526 15.8392 2.88332 20.9439H33C32.518 15.8392 29.6001 11.4788 25.2889 9.14448H25.2889ZM11.0272 16.7146C10.3289 16.7146 9.76499 16.1474 9.76499 15.4524C9.76499 14.7541 10.3322 14.1901 11.0272 14.1901C11.7256 14.1901 12.2895 14.7573 12.2895 15.4524C12.2929 16.1474 11.7256 16.7146 11.0272 16.7146ZM24.8528 16.7146C24.1545 16.7146 23.5906 16.1474 23.5906 15.4524C23.5906 14.7541 24.1578 14.1901 24.8528 14.1901C25.5512 14.1901 26.1151 14.7573 26.1151 15.4524C26.1185 16.1474 25.5512 16.7146 24.8528 16.7146Z" fill="currentColor"/>
</svg>
