<svg xmlns="http://www.w3.org/2000/svg" viewBox="0 0 36 24">
  <path fill-rule="evenodd" clip-rule="evenodd" d="M18.7954 2.08851C20.3723 0.0101142 22.5646 0 22.5646 0C22.5646 0 22.8906 1.95403 21.3241 3.8364C19.6514 5.8464 17.7501 5.51751 17.7501 5.51751C17.7501 5.51751 17.3931 3.93677 18.7954 2.08851V2.08851ZM17.9507 6.88629C18.7619 6.88629 20.2675 5.77114 22.2273 5.77114C25.6007 5.77114 26.9279 8.17157 26.9279 8.17157C26.9279 8.17157 24.3323 9.4986 24.3323 12.7186C24.3323 16.3511 27.5657 17.6031 27.5657 17.6031C27.5657 17.6031 25.3054 23.9648 22.2524 23.9648C20.8502 23.9648 19.7601 23.0199 18.2826 23.0199C16.7771 23.0199 15.283 24 14.3098 24C11.522 24.0001 8 17.9653 8 13.1144C8 8.34171 10.9811 5.838 13.7773 5.838C15.5951 5.838 17.0057 6.88629 17.9507 6.88629V6.88629Z" fill="currentColor"/>
</svg>
