<svg width="20" height="20" viewBox="0 0 20 20" fill="none" xmlns="http://www.w3.org/2000/svg">
<path d="M8.375 6.75L8.41667 7.70833L7.75 8.95833L6.70833 11L6.5 12.7083L7.25 15.125L8.95833 16.0833H11.5417L13.9583 14.25L15.0417 11.375L12.5417 8.33333L11.8333 6.625L8.375 6.75Z" fill="#ECEFF1"/>
<path d="M14.2918 9.12527C13.6251 8.16693 13.0835 7.5836 12.7918 6.37526C12.5001 5.16693 12.8751 5.50027 12.6251 4.4586C12.5001 3.91693 12.2918 3.54193 12.0835 3.25027C11.8335 2.9586 11.5418 2.79193 11.3751 2.75027C11.0001 2.54193 10.1251 2.2086 9.04181 2.79193C7.91681 3.37527 8.04181 4.62527 8.25014 7.16693C8.25014 7.3336 8.20847 7.54193 8.12514 7.7086C7.95847 8.0836 7.66681 8.41693 7.41681 8.7086C7.12514 9.12527 6.83347 9.54193 6.62514 10.0003C6.12514 10.9586 5.66681 12.1669 5.79181 12.6253C6.00014 12.5836 8.62514 16.5836 8.62514 16.6669C8.79181 16.6253 9.50014 16.6253 10.1251 16.6253C11.0001 16.5836 11.5001 16.5419 12.2085 16.7086C12.2085 16.5836 12.1668 16.4586 12.1668 16.3336C12.1668 16.0836 12.2085 15.8753 12.2501 15.5836C12.2918 15.3753 12.3335 15.1669 12.3751 14.9169C11.9585 15.2919 11.2085 15.7086 10.5001 15.8336C9.87514 15.9586 8.83347 15.7503 8.33347 15.1253C8.37514 15.1253 8.45847 15.1253 8.50014 15.0836C8.62514 15.0419 8.75014 15.0003 8.79181 14.9169C8.91681 14.7086 8.83347 14.5003 8.75014 14.3753C8.66681 14.2503 8.04181 13.7919 7.75014 13.5419C7.45847 13.2919 7.29181 13.1669 7.12514 13.0003C7.12514 13.0003 6.87514 12.7503 6.79181 12.6669C6.70847 12.5836 6.66681 12.5003 6.62514 12.4586C6.54181 12.2503 6.50014 12.0003 6.54181 11.6669C6.58347 11.2086 6.75014 10.8336 6.95847 10.4169C7.04181 10.2503 7.25014 9.91693 7.25014 9.91693C7.25014 9.91693 6.54181 11.6669 6.91681 12.2086C6.91681 12.2086 6.95847 11.6669 7.12514 11.1253C7.25014 10.7503 7.45847 10.2086 7.70847 9.91693C7.95847 9.62527 8.58347 8.54193 8.62514 7.87527C8.62514 7.5836 8.66681 7.29193 8.66681 7.0836C8.50014 6.91693 11.4168 6.50027 11.5835 6.9586C11.6251 7.12527 12.2085 8.62527 12.5418 9.41693C12.7085 9.79193 12.9168 10.1253 13.0418 10.5419C13.1668 11.0003 13.2501 11.6253 13.2501 12.2503C13.2501 12.3753 13.2501 12.5836 13.2085 12.7919C13.2918 12.7919 14.9168 11.0419 13.0001 9.5836C13.0001 9.5836 14.1668 10.1253 14.2085 11.2086C14.2501 12.0836 13.8751 12.7919 13.7918 12.9169C13.8335 12.9169 14.6668 13.2919 14.7085 13.2919C14.8751 13.2919 15.2085 13.1669 15.2085 13.1669C15.2501 13.0419 15.3751 12.7086 15.3751 12.5836C15.6668 11.6253 14.9585 10.0836 14.2918 9.12527Z" fill="#263238"/>
<path d="M8.99992 6.3776C9.29907 6.3776 9.54159 6.00451 9.54159 5.54427C9.54159 5.08403 9.29907 4.71094 8.99992 4.71094C8.70076 4.71094 8.45825 5.08403 8.45825 5.54427C8.45825 6.00451 8.70076 6.3776 8.99992 6.3776Z" fill="#ECEFF1"/>
<path d="M10.8748 6.45964C11.266 6.45964 11.5832 6.03058 11.5832 5.5013C11.5832 4.97203 11.266 4.54297 10.8748 4.54297C10.4836 4.54297 10.1665 4.97203 10.1665 5.5013C10.1665 6.03058 10.4836 6.45964 10.8748 6.45964Z" fill="#ECEFF1"/>
<path d="M9.30265 5.59877C9.26802 5.32481 9.11039 5.11909 8.95058 5.13929C8.79077 5.15949 8.68929 5.39796 8.72392 5.67192C8.75855 5.94588 8.91617 6.15159 9.07598 6.13139C9.23579 6.11119 9.33727 5.87273 9.30265 5.59877Z" fill="#212121"/>
<path d="M10.8332 6.20833C11.0633 6.20833 11.2498 5.96582 11.2498 5.66667C11.2498 5.36751 11.0633 5.125 10.8332 5.125C10.6031 5.125 10.4165 5.36751 10.4165 5.66667C10.4165 5.96582 10.6031 6.20833 10.8332 6.20833Z" fill="#212121"/>
<path d="M16.3749 14.8346C16.2083 14.7513 15.9166 14.6263 15.6666 14.2513C15.5416 14.043 15.5833 13.4596 15.3749 13.2096C15.2499 13.043 15.0833 13.1263 15.0416 13.1263C14.6666 13.2096 13.7916 13.793 13.2083 13.1263C13.1249 13.043 12.9999 12.918 12.7916 12.918C12.5833 12.918 12.4999 13.0013 12.4166 13.168C12.3333 13.3346 12.3333 13.4596 12.3333 13.8763C12.3333 14.2096 12.3333 14.5846 12.2916 14.8763C12.2083 15.5846 12.0833 16.0013 12.0833 16.418C12.0833 16.8763 12.2083 17.168 12.3749 17.293C12.4999 17.418 12.7083 17.5013 13.1666 17.5013C13.6249 17.5013 13.9166 17.3346 14.2083 17.043C14.4166 16.8346 14.5833 16.7513 15.1666 16.3346C15.6249 16.043 16.3333 15.668 16.4583 15.543C16.5416 15.4596 16.6666 15.418 16.6666 15.168C16.6666 14.9596 16.4999 14.8763 16.3749 14.8346Z" fill="#FFC107"/>
<path d="M8.00002 14.9635C7.58335 14.2969 7.54168 14.1719 7.25002 13.7552C7.00002 13.3385 6.45835 12.5469 6.12502 12.5469C5.87502 12.5469 5.75002 12.6719 5.58335 12.8385C5.41668 13.0052 5.25002 13.3802 4.95835 13.5885C4.70835 13.7969 4.00002 13.7552 3.83335 14.0052C3.66668 14.2552 4.00002 14.6302 4.00002 15.2552C4.00002 15.5052 3.79168 15.6719 3.75002 15.8385C3.70835 16.0469 3.66668 16.1719 3.75002 16.3385C3.91668 16.5885 4.12502 16.6719 5.54168 16.9635C6.29168 17.1302 7.00002 17.5469 7.45835 17.5885C7.91668 17.6302 8.70835 17.5885 8.70835 16.4635C8.75002 15.7969 8.37502 15.6302 8.00002 14.9635Z" fill="#FFC107"/>
<path d="M8.79159 7.41927C8.54159 7.2526 8.33325 7.08594 8.33325 6.83594C8.33325 6.58594 8.49992 6.5026 8.74992 6.29427C8.79159 6.2526 9.24992 5.83594 9.70825 5.83594C10.1666 5.83594 10.7083 6.1276 10.9166 6.21094C11.2916 6.29427 11.6666 6.3776 11.6249 6.66927C11.5833 7.08594 11.5416 7.16927 11.1249 7.3776C10.8333 7.46094 10.2916 7.91927 9.91658 7.91927C9.74992 7.91927 9.49992 7.91927 9.33325 7.8776C9.20825 7.83594 8.99992 7.6276 8.79159 7.41927Z" fill="#FFC107"/>
<path d="M8.70844 7.08404C8.79178 7.16737 8.91678 7.25071 9.04178 7.29237C9.12511 7.33404 9.25011 7.37571 9.25011 7.37571C9.41678 7.37571 9.54178 7.37571 9.62511 7.37571C9.83344 7.37571 10.1251 7.29237 10.4168 7.12571C10.7084 7.00071 10.7501 6.91737 10.9584 6.83404C11.1668 6.70904 11.3751 6.58404 11.2918 6.54237C11.2084 6.50071 11.1251 6.54237 10.8334 6.70904C10.5834 6.87571 10.3751 6.95904 10.1251 7.08404C10.0001 7.12571 9.83344 7.20904 9.70844 7.20904C9.58344 7.20904 9.45844 7.20904 9.33344 7.20904C9.20844 7.20904 9.12511 7.16737 9.00011 7.12571C8.91678 7.08404 8.87511 7.04237 8.83344 7.04237C8.75011 7.00071 8.58344 6.83404 8.50011 6.79237C8.50011 6.79237 8.41678 6.79237 8.45844 6.83404C8.58344 6.95904 8.62511 7.00071 8.70844 7.08404Z" fill="#634703"/>
<path d="M9.9585 6.16799C10.0002 6.25133 10.0835 6.25133 10.1252 6.29299C10.1668 6.33466 10.2085 6.33466 10.2085 6.33466C10.2502 6.29299 10.2085 6.20966 10.1668 6.20966C10.1668 6.12633 9.9585 6.12633 9.9585 6.16799Z" fill="#634703"/>
<path d="M9.29175 6.25C9.29175 6.29167 9.37508 6.33333 9.37508 6.29167C9.41675 6.25 9.45841 6.20833 9.50008 6.20833C9.58341 6.16667 9.54175 6.125 9.41675 6.125C9.33342 6.16667 9.33341 6.20833 9.29175 6.25Z" fill="#634703"/>
<path d="M13.3334 13.6254C13.3334 13.667 13.3334 13.7087 13.3334 13.7504C13.4167 13.917 13.6251 13.9587 13.7917 13.9587C14.0417 13.9587 14.2917 13.792 14.4167 13.6254C14.4167 13.5837 14.4584 13.542 14.5001 13.5004C14.5834 13.3754 14.6251 13.292 14.6667 13.2504C14.6667 13.2504 14.6251 13.2087 14.6251 13.167C14.5834 13.0837 14.4584 13.0004 14.2917 12.9587C14.1667 12.917 13.9584 12.8754 13.8751 12.8754C13.5001 12.8337 13.2917 12.9587 13.1667 13.0837C13.1667 13.0837 13.2084 13.0837 13.2084 13.1254C13.2917 13.2087 13.3334 13.292 13.3334 13.417C13.3751 13.5004 13.3334 13.542 13.3334 13.6254Z" fill="#455A64"/>
</svg>
