<svg xmlns="http://www.w3.org/2000/svg" viewBox="0 0 36 24">
  <path fill-rule="evenodd" clip-rule="evenodd" d="M6 3.5C6 2.67157 6.67157 2 7.5 2H27.5C28.3284 2 29 2.67157 29 3.5V20.5C29 21.3284 28.3284 22 27.5 22H7.5C6.67157 22 6 21.3284 6 20.5V3.5ZM8.96967 4.96967C9.26256 4.67678 9.73744 4.67678 10.0303 4.96967L13.5303 8.46967C13.8232 8.76256 13.8232 9.23744 13.5303 9.53033L10.0303 13.0303C9.73744 13.3232 9.26256 13.3232 8.96967 13.0303C8.67678 12.7374 8.67678 12.2626 8.96967 11.9697L11.9393 9L8.96967 6.03033C8.67678 5.73744 8.67678 5.26256 8.96967 4.96967ZM13 15.2C12.5582 15.2 12.2 15.5582 12.2 16C12.2 16.4418 12.5582 16.8 13 16.8H20.5C20.9418 16.8 21.3 16.4418 21.3 16C21.3 15.5582 20.9418 15.2 20.5 15.2H13Z" fill="currentColor"/>
</svg>
