<svg width="20" height="20" viewBox="0 0 20 20" fill="none" xmlns="http://www.w3.org/2000/svg">
<path fill-rule="evenodd" clip-rule="evenodd" d="M3.69999 1H11L12 18.9999H3.69999C2.20883 18.9999 1 17.7911 1 16.2999V3.69999C1 2.20883 2.20883 1 3.69999 1Z" fill="url(#paint0_linear_22140_3595)"/>
<path d="M16.2999 1H10.6468C9.90153 2.72968 8.5656 5.55623 8.50935 10.9632C8.5084 11.0098 8.51683 11.0561 8.53412 11.0994C8.5514 11.1427 8.57721 11.1821 8.61 11.2152C8.64278 11.2483 8.68189 11.2745 8.72499 11.2922C8.76809 11.3099 8.81431 11.3188 8.86091 11.3183H10.9246C10.9712 11.3183 11.0173 11.3276 11.0602 11.3458C11.1032 11.3639 11.142 11.3905 11.1745 11.424C11.2069 11.4574 11.2324 11.497 11.2492 11.5405C11.2661 11.5839 11.274 11.6303 11.2726 11.6769C11.2213 14.1354 11.4466 16.5918 11.9441 18.9999H16.2999C17.016 18.9999 17.7028 18.7155 18.2091 18.2091C18.7155 17.7028 18.9999 17.016 18.9999 16.2999V3.69999C18.9999 2.98391 18.7155 2.29715 18.2091 1.79081C17.7028 1.28446 17.016 1 16.2999 1Z" fill="url(#paint1_linear_22140_3595)"/>
<path d="M14.0428 6.23828V7.43359M5.99209 6.23828V7.43359M15.2522 12.6086C13.842 13.9688 11.9592 14.7289 9.99988 14.7289C8.04061 14.7289 6.15774 13.9688 4.74756 12.6086" stroke="black" stroke-width="0.703122" stroke-linecap="round"/>
<defs>
<linearGradient id="paint0_linear_22140_3595" x1="1" y1="1800.99" x2="1" y2="1" gradientUnits="userSpaceOnUse">
<stop stop-color="#1E73F2"/>
<stop offset="1" stop-color="#19D3FD"/>
</linearGradient>
<linearGradient id="paint1_linear_22140_3595" x1="8.50928" y1="1800.99" x2="8.50928" y2="1" gradientUnits="userSpaceOnUse">
<stop stop-color="#DBE9F4"/>
<stop offset="1" stop-color="#F7F6F6"/>
</linearGradient>
</defs>
</svg>
