<svg xmlns="http://www.w3.org/2000/svg" viewBox="0 0 36 24">
  <path fill-rule="evenodd" clip-rule="evenodd" d="M15.8794 12.7011C16.0168 10.3047 17.0395 6.40098 19.2618 2H8C6.89543 2 6 2.89543 6 4V20C6 21.1046 6.89543 22 8 22H19.3675C19.1836 20.8126 19.1204 19.6274 19.1251 18.5173C18.6765 18.5758 18.2212 18.6074 17.7647 18.6074C16.1518 18.6074 14.553 18.2135 13.2161 17.6272C11.8949 17.0477 10.7514 16.2451 10.1175 15.3648C9.88356 15.0399 9.95732 14.5868 10.2823 14.3528C10.6072 14.1189 11.0603 14.1926 11.2942 14.5176C11.7192 15.1078 12.6052 15.7759 13.7986 16.2993C14.9764 16.8159 16.3776 17.1574 17.7647 17.1574C18.2344 17.1574 18.7057 17.1182 19.1695 17.0463C19.2362 15.825 19.3653 14.7574 19.4682 13.9668H17.0882C16.4229 13.9668 15.8383 13.4198 15.8794 12.7011ZM20.578 18.2311C21.1884 18.0702 21.7723 17.8645 22.3133 17.6272C23.6346 17.0477 24.7781 16.2451 25.4119 15.3648C25.6459 15.0399 25.5721 14.5868 25.2472 14.3528C24.9222 14.1189 24.4691 14.1926 24.2352 14.5176C23.8102 15.1078 22.9243 15.7759 21.7309 16.2993C21.3857 16.4507 21.0213 16.587 20.6438 16.7041C20.7199 15.5944 20.844 14.6233 20.9397 13.8982C21.0365 13.164 20.4648 12.5168 19.7277 12.5168H17.346C17.5383 10.2196 18.5895 6.37024 20.8934 2H28C29.1046 2 30 2.89543 30 4V20C30 21.1046 29.1046 22 28 22H20.8358C20.6199 20.723 20.5588 19.4319 20.578 18.2311ZM12.5 6.275C12.9004 6.275 13.225 6.59959 13.225 7V9.35294C13.225 9.75335 12.9004 10.0779 12.5 10.0779C12.0996 10.0779 11.775 9.75335 11.775 9.35294V7C11.775 6.59959 12.0996 6.275 12.5 6.275ZM24.225 7C24.225 6.59959 23.9004 6.275 23.5 6.275C23.0996 6.275 22.775 6.59959 22.775 7V9.35294C22.775 9.75335 23.0996 10.0779 23.5 10.0779C23.9004 10.0779 24.225 9.75335 24.225 9.35294V7Z" fill="currentColor"/>
</svg>
