<svg viewBox="0 0 36 24" fill="none" xmlns="http://www.w3.org/2000/svg">
  <path fill-rule="evenodd" clip-rule="evenodd" d="M9 2C7.34315 2 6 3.34315 6 5V19C6 20.6569 7.34315 22 9 22H28C29.6569 22 31 20.6569 31 19V5C31 3.34315 29.6569 2 28 2H9ZM17 5C16.4477 5 16 5.44772 16 6V18C16 18.5523 16.4477 19 17 19H20C20.5523 19 21 18.5523 21 18V6C21 5.44772 20.5523 5 20 5H17ZM23 6C23 5.44772 23.4477 5 24 5H27C27.5523 5 28 5.44772 28 6V18C28 18.5523 27.5523 19 27 19H24C23.4477 19 23 18.5523 23 18V6ZM10 7C9.44772 7 9 7.44772 9 8C9 8.55228 9.44772 9 10 9H13C13.5523 9 14 8.55228 14 8C14 7.44772 13.5523 7 13 7H10ZM20 8.5C20 9.32843 19.3284 10 18.5 10C17.6716 10 17 9.32843 17 8.5C17 7.67157 17.6716 7 18.5 7C19.3284 7 20 7.67157 20 8.5ZM25.5 10C26.3284 10 27 9.32843 27 8.5C27 7.67157 26.3284 7 25.5 7C24.6716 7 24 7.67157 24 8.5C24 9.32843 24.6716 10 25.5 10Z" fill="currentColor"/>
</svg>
