<svg width="45" height="30" viewBox="0 0 45 30" fill="none" xmlns="http://www.w3.org/2000/svg">
<path d="M0 7.50004L0 22.4913C0 26.6334 3.35786 29.9912 7.49999 29.9912C11.6421 29.9912 15 26.6334 15 22.4913L15 7.50004C15 3.35791 11.6421 5.53131e-05 7.49999 5.53131e-05C3.35786 5.53131e-05 0 3.35791 0 7.50004Z" fill="#0D4B3B"/>
<path d="M44.9998 15.0001C44.9998 23.283 38.2828 30 29.9998 30C21.7169 30 14.9999 23.283 14.9999 15.0001L44.9998 15.0001Z" fill="#22AB74"/>
<path d="M44.9998 15.0001C44.9998 6.71707 38.2828 8.27909e-05 29.9998 8.27909e-05C21.7169 8.27909e-05 14.9999 6.71707 14.9999 15.0001L44.9998 15.0001Z" fill="#85D996"/>
</svg>
