<svg width="60" height="30" viewBox="0 0 60 30" fill="none" xmlns="http://www.w3.org/2000/svg">
<path d="M30 6.10352e-05C30 8.28306 23.283 15.0001 15 15.0001C6.717 15.0001 0 8.28306 0 6.10352e-05H30Z" fill="#EFC078"/>
<path d="M30 15.0001C30 23.2831 23.283 30.0001 15 30.0001C6.717 30.0001 0 23.2831 0 15.0001H30Z" fill="#EFC078"/>
<path d="M45 30.0001C53.2843 30.0001 60 23.2843 60 15.0001C60 6.71579 53.2843 6.10352e-05 45 6.10352e-05C36.7157 6.10352e-05 30 6.71579 30 15.0001C30 23.2843 36.7157 30.0001 45 30.0001Z" fill="#762B0B"/>
</svg>