<svg width="390" height="293" viewBox="0 0 390 293" fill="none" xmlns="http://www.w3.org/2000/svg">
  <path d="M292.463 293.008C238.584 293.008 194.926 249.35 194.926 195.471H292.463V293.008Z" fill="#6294F1"/>
  <path d="M390 195.469C390 249.348 346.343 293.006 292.463 293.006V195.469H390Z" fill="#6294F1"/>
  <path d="M390 97.9297C390 151.809 346.343 195.467 292.463 195.467V97.9297H390Z" fill="#6294F1"/>
  <path d="M0 195.461C0 141.582 43.6575 97.9241 97.536 97.9241V195.461H0Z" fill="#253570"/>
  <path d="M194.926 195.461C194.926 249.34 151.269 292.998 97.3896 292.998V195.461H194.926Z" fill="#253570"/>
  <path d="M390 0.382812C390 54.2622 346.343 97.9196 292.463 97.9196V0.382814H390Z" fill="#253570"/>
  <path d="M390 195.461C390 249.34 346.343 292.998 292.463 292.998V195.461H390Z" fill="#253570"/>
  <rect x="194.926" y="97.9297" width="97.5368" height="97.5368" rx="48.7684" fill="#253570"/>
  <rect x="194.926" y="0.382812" width="97.5368" height="97.5368" rx="48.7684" fill="#6294F1"/>
  <rect x="0" y="195.461" width="97.5368" height="97.5368" rx="48.7684" fill="#6294F1"/>
  <rect x="97.3896" y="97.9297" width="97.5368" height="97.5368" rx="48.7684" fill="#6294F1"/>
</svg>