<svg width="20" height="20" viewBox="0 0 20 20" fill="none" xmlns="http://www.w3.org/2000/svg">
<path d="M10 19C14.9706 19 19 14.9706 19 10C19 5.02944 14.9706 1 10 1C5.02944 1 1 5.02944 1 10C1 14.9706 5.02944 19 10 19Z" fill="#232F3E"/>
<path d="M8.03609 9.41914C8.03609 9.52988 8.04839 9.61953 8.06949 9.68457C8.0941 9.75137 8.12398 9.82344 8.16617 9.90078C8.18199 9.92363 8.18726 9.94824 8.18726 9.96934C8.18726 9.99922 8.16968 10.0291 8.13101 10.059L7.94292 10.1838C7.92007 10.1996 7.89371 10.2102 7.86558 10.2102C7.8357 10.2102 7.80581 10.1943 7.77593 10.168C7.7355 10.124 7.70035 10.0783 7.66871 10.0273C7.63531 9.96934 7.60367 9.91133 7.57554 9.85156C7.34175 10.1275 7.0482 10.2646 6.69488 10.2646C6.44351 10.2646 6.24312 10.1926 6.09722 10.0502C5.95132 9.90605 5.87574 9.71445 5.87574 9.47539C5.87574 9.22051 5.96538 9.01484 6.1482 8.8584C6.33101 8.70195 6.57359 8.62461 6.88121 8.62461C6.98316 8.62461 7.08863 8.6334 7.19761 8.64922C7.30835 8.66504 7.42261 8.68789 7.54214 8.71602V8.49805C7.54214 8.27129 7.49468 8.11133 7.40152 8.01992C7.3066 7.92676 7.14488 7.88281 6.9146 7.88281C6.80913 7.88281 6.70191 7.89512 6.59117 7.92148C6.48042 7.94785 6.3732 7.98125 6.26773 8.02344C6.23433 8.03926 6.19917 8.05156 6.16226 8.06211C6.14644 8.06738 6.13062 8.06914 6.1148 8.0709C6.07261 8.0709 6.05152 8.04102 6.05152 7.97773V7.83184C6.05152 7.78437 6.05679 7.74746 6.07261 7.72637C6.09546 7.7 6.12359 7.67715 6.15699 7.66309C6.26246 7.60859 6.38726 7.56465 6.53316 7.52773C6.68609 7.48906 6.84253 7.46973 7.00074 7.47148C7.35757 7.47148 7.61773 7.55234 7.78472 7.71406C7.94996 7.87578 8.03257 8.12012 8.03257 8.45059V9.4209L8.03609 9.41914ZM6.82144 9.87441C6.91988 9.87441 7.02183 9.85684 7.12906 9.81992C7.23628 9.78477 7.33296 9.71797 7.41382 9.62832C7.46128 9.57207 7.4982 9.50879 7.51578 9.43672C7.53335 9.36465 7.54566 9.27852 7.54566 9.17656V9.05176C7.45425 9.02891 7.36285 9.01309 7.26968 9.00078C7.17652 8.98848 7.0816 8.9832 6.98843 8.9832C6.78804 8.9832 6.64038 9.02188 6.54195 9.10273C6.44351 9.18359 6.39605 9.29785 6.39605 9.44727C6.39605 9.58789 6.4312 9.69336 6.50679 9.76367C6.57886 9.83926 6.68257 9.87441 6.82144 9.87441ZM9.22437 10.1979C9.16988 10.1979 9.13472 10.1891 9.11011 10.168C9.0855 10.1504 9.06441 10.1082 9.04683 10.052L8.34371 7.73867C8.32964 7.7 8.32085 7.65957 8.31734 7.61914C8.31734 7.57168 8.34195 7.54355 8.38941 7.54355H8.68296C8.73921 7.54355 8.77789 7.55234 8.79898 7.57344C8.82359 7.59102 8.84117 7.6332 8.85874 7.69121L9.36148 9.67227L9.82906 7.69121C9.84488 7.63144 9.86246 7.59277 9.88531 7.57344C9.92046 7.55059 9.96265 7.54004 10.0048 7.54355H10.2457C10.3019 7.54355 10.3423 7.55234 10.3652 7.57344C10.388 7.59102 10.4109 7.6332 10.4214 7.69121L10.8943 9.69687L11.4128 7.69121C11.4304 7.63144 11.4515 7.59277 11.4726 7.57344C11.5078 7.55059 11.5482 7.54004 11.5886 7.54355H11.8681C11.9156 7.54355 11.9437 7.56816 11.9437 7.61914C11.9437 7.63496 11.9402 7.64902 11.9367 7.6666C11.9314 7.69297 11.9244 7.71758 11.9156 7.74219L11.1949 10.0555C11.1773 10.1152 11.1562 10.1539 11.1316 10.1715C11.0982 10.1926 11.0578 10.2031 11.0173 10.2014H10.7589C10.7027 10.2014 10.664 10.1926 10.6394 10.1715C10.6166 10.1504 10.5955 10.1117 10.5832 10.052L10.1191 8.12187L9.65855 10.0502C9.64273 10.11 9.62515 10.1486 9.6023 10.1697C9.57769 10.1908 9.5355 10.1996 9.48277 10.1996L9.22437 10.1979ZM13.0705 10.2787C12.914 10.2787 12.7593 10.2611 12.6099 10.2242C12.4605 10.1891 12.3445 10.1486 12.2654 10.1047C12.2179 10.0783 12.1845 10.0484 12.1722 10.0203C12.1599 9.99395 12.1546 9.96582 12.1546 9.93594V9.78301C12.1546 9.71973 12.1793 9.68984 12.2232 9.68984C12.2408 9.68984 12.2584 9.69336 12.2777 9.69863C12.2953 9.70391 12.3234 9.71621 12.3533 9.72852C12.4552 9.77422 12.566 9.80938 12.682 9.83398C12.8015 9.85859 12.9175 9.86914 13.0388 9.86914C13.2269 9.86914 13.3746 9.83574 13.4765 9.7707C13.575 9.71094 13.6347 9.60195 13.633 9.48594C13.6347 9.40859 13.6066 9.33301 13.5521 9.27676C13.4976 9.22051 13.3957 9.16953 13.2498 9.12031L12.8156 8.98496C12.5976 8.91641 12.4359 8.81445 12.3375 8.68086C12.2408 8.55605 12.188 8.40312 12.188 8.24668C12.188 8.12187 12.2162 8.01113 12.2689 7.91445C12.3234 7.81953 12.3937 7.73516 12.4851 7.66836C12.5748 7.5998 12.6767 7.54883 12.7962 7.51191C12.9158 7.47676 13.0423 7.46094 13.1742 7.46094C13.2392 7.46094 13.3095 7.46445 13.3746 7.47324C13.4431 7.48203 13.5064 7.49434 13.5697 7.50664C13.6294 7.52246 13.6875 7.53652 13.7402 7.5541C13.7947 7.57168 13.8369 7.58926 13.8668 7.60859C13.9019 7.62617 13.9335 7.65254 13.9564 7.68418C13.9757 7.71406 13.9845 7.74746 13.9828 7.78262V7.92324C13.9828 7.98652 13.9582 8.01992 13.9142 8.01992C13.8738 8.01465 13.8351 8.00234 13.8 7.98477C13.6189 7.90566 13.4238 7.86523 13.2252 7.86875C13.0546 7.86875 12.9193 7.89512 12.8261 7.95313C12.733 8.00938 12.6855 8.09727 12.6855 8.21855C12.6855 8.30293 12.7154 8.375 12.7752 8.43125C12.8349 8.4875 12.9457 8.54551 13.1039 8.59648L13.5293 8.73008C13.7437 8.79863 13.9002 8.89531 13.9933 9.01836C14.0865 9.14141 14.1304 9.28203 14.1304 9.43672C14.1304 9.56504 14.1041 9.68281 14.0531 9.78477C13.9986 9.88672 13.9265 9.97637 13.8351 10.0484C13.7419 10.124 13.6312 10.1768 13.5029 10.2154C13.364 10.2576 13.2234 10.2787 13.0705 10.2787ZM13.6365 11.7324C12.6521 12.4602 11.2212 12.8451 9.99078 12.8451C8.26636 12.8451 6.71245 12.207 5.53999 11.1471C5.44683 11.0627 5.53121 10.9502 5.64195 11.0152C6.91109 11.7518 8.4773 12.1982 10.0962 12.1982C11.1896 12.1982 12.3884 11.9715 13.4941 11.5039C13.6576 11.4301 13.7982 11.6129 13.6365 11.7324ZM14.046 11.2666C13.9195 11.1049 13.2128 11.1893 12.8929 11.2279C12.798 11.2402 12.7822 11.1559 12.8701 11.0926C13.4326 10.6971 14.3572 10.8113 14.4662 10.9432C14.5734 11.0785 14.4363 12.0031 13.9089 12.4461C13.8281 12.5146 13.7507 12.4795 13.7859 12.3898C13.9054 12.0928 14.1726 11.4248 14.046 11.2666Z" fill="white"/>
</svg>
