<svg width="94" height="28" viewBox="0 0 101 30" fill="none" xmlns="http://www.w3.org/2000/svg">
<path d="M39.0525 6.26528C40.2635 6.26528 41.2863 6.42336 42.1217 6.73894C42.956 7.05451 43.7325 7.50682 44.4508 8.0947L42.881 9.96336C42.345 9.51336 41.7692 9.18047 41.1548 8.96413C40.5404 8.74778 39.8879 8.6399 39.1962 8.6399C38.3048 8.6399 37.4827 8.8649 36.731 9.31432C35.9781 9.76432 35.3752 10.4953 34.9211 11.5072C34.4671 12.5191 34.2398 13.8686 34.2398 15.5555C34.2398 17.2078 34.4562 18.5399 34.8888 19.5518C35.3215 20.5637 35.914 21.2993 36.6669 21.7574C37.4192 22.2161 38.2627 22.4451 39.1973 22.4451C40.1567 22.4451 40.9523 22.2876 41.584 21.9714C42.2158 21.6559 42.7736 21.2987 43.2577 20.9012L44.711 22.7566C44.1138 23.3364 43.3569 23.8355 42.4408 24.2549C41.524 24.6743 40.4077 24.8843 39.0929 24.8843C37.579 24.8843 36.2187 24.5278 35.0123 23.8135C33.806 23.0999 32.854 22.051 32.1583 20.667C31.4596 19.2835 31.1117 17.5793 31.1117 15.5555C31.1117 13.5489 31.4711 11.8557 32.1888 10.4757C32.9071 9.09567 33.8665 8.04913 35.07 7.33547C36.2712 6.62182 37.5992 6.26528 39.0525 6.26528ZM58.0702 10.9297C57.7454 10.8651 57.3802 10.8322 56.974 10.8322C55.7804 10.8322 54.8048 11.1328 54.0479 11.7339C53.291 12.3351 52.6575 13.2109 52.1475 14.3612L51.6156 11.1824H47.3862V13.2455H49.3967V22.808H47.3862V24.8843H55.0673V22.8086H52.3038V17.7224C52.7187 16.3557 53.2875 15.3005 54.0098 14.5562C54.7027 13.8426 55.5242 13.4809 56.4686 13.452V16.2305H58.5444L59.0371 11.183C58.7163 11.0791 58.3944 10.9949 58.0702 10.9297ZM68.8465 11.183V22.7566H73.2537V24.8843H61.8398V22.756H65.94V13.3107H61.9702V11.183H68.8465ZM66.8227 4.47451C67.3933 4.47451 67.8542 4.64817 68.2044 4.99374C68.5552 5.3399 68.73 5.77259 68.73 6.29124C68.73 6.81047 68.5552 7.2472 68.2044 7.60144C67.8542 7.95624 67.3933 8.13336 66.8227 8.13336C66.2694 8.13336 65.8148 7.95624 65.46 7.60144C65.1052 7.2472 64.9286 6.8099 64.9286 6.29124C64.9286 5.77259 65.1052 5.3399 65.46 4.99374C65.8148 4.64817 66.2694 4.47451 66.8227 4.47451ZM79.1613 12.8134C79.6367 12.1903 80.1929 11.7022 80.8286 11.3474C81.465 10.9926 82.1631 10.8155 82.9246 10.8155C84.1263 10.8155 85.1019 11.112 85.8502 11.7045C86.5985 12.297 87.1471 13.1318 87.4979 14.2089C87.8481 15.2861 88.0235 16.5507 88.0235 18.0039C88.0235 19.3966 87.8152 20.6376 87.4004 21.7274C86.985 22.8172 86.3735 23.6739 85.5646 24.2964C84.7558 24.9189 83.7588 25.2305 82.5738 25.2305C81.0427 25.2305 79.8404 24.6639 78.9669 23.5309L78.8117 24.8803H76.2554V5.67682L79.1619 5.35259V12.8134H79.1613ZM81.8475 23.0116C82.8329 23.0116 83.5967 22.6089 84.1373 21.8047C84.6773 20.9999 84.9485 19.7376 84.9485 18.0161C84.9485 16.8478 84.84 15.8987 84.6237 15.1678C84.4073 14.4374 84.0894 13.9026 83.67 13.5657C83.2506 13.2282 82.7377 13.0597 82.1331 13.0597C81.484 13.0597 80.9135 13.2547 80.4208 13.6436C79.9275 14.033 79.5081 14.4916 79.1619 15.0189V21.4286C79.4821 21.9218 79.8692 22.3089 80.3238 22.5899C80.7773 22.8709 81.285 23.0116 81.8475 23.0116ZM95.3602 5.35259V20.8187C95.3602 21.4505 95.5523 21.8982 95.9377 22.1618C96.3225 22.4255 96.8221 22.5576 97.436 22.5576C97.8335 22.5576 98.2096 22.5143 98.5644 22.4278C98.9192 22.3412 99.2654 22.2334 99.6029 22.1036L100.342 24.1274C99.9358 24.3345 99.4362 24.5162 98.8442 24.672C98.2512 24.8278 97.5744 24.9057 96.8135 24.9057C95.4375 24.9057 94.3673 24.5186 93.6017 23.7443C92.8367 22.9707 92.4542 21.9086 92.4542 20.5591V7.49355H88.9985V5.35259H95.3602ZM99.2919 6.49432L98.996 5.9572H98.7883V6.49432H98.5448V5.12182H99.0069C99.2925 5.12182 99.5129 5.22278 99.5129 5.52913C99.5129 5.73913 99.4038 5.8649 99.2377 5.92143L99.5654 6.49432H99.2919ZM98.7883 5.76393H98.9815C99.1702 5.76393 99.2712 5.68432 99.2712 5.52855C99.2712 5.37105 99.1702 5.31682 98.9815 5.31682H98.7883V5.76393ZM99.0162 7.11393C98.2846 7.11393 97.6898 6.51913 97.6898 5.78759C97.6898 5.05605 98.2846 4.46124 99.0162 4.46124C99.7477 4.46124 100.342 5.05605 100.342 5.78759C100.342 6.51913 99.7471 7.11393 99.0162 7.11393ZM99.0162 4.6822C98.4069 4.6822 97.9108 5.17778 97.9108 5.78759C97.9108 6.3974 98.4063 6.89297 99.0162 6.89297C99.626 6.89297 100.122 6.3974 100.122 5.78759C100.122 5.17778 99.6254 4.6822 99.0162 4.6822Z" fill="var(--icon-color, black)"/>
<path d="M10.354 6.85086C10.5121 6.94201 10.5017 7.06836 10.3304 7.13182L0.312692 10.8432C0.205961 10.8962 0.0767288 10.853 0.0236519 10.7462C0.00519032 10.7093 -0.00230896 10.6684 0.00230642 10.6274V1.20451C0.00230642 1.0222 0.131538 0.947782 0.289615 1.03894L10.354 6.85086ZM12.7373 8.22567C12.5521 8.13221 12.3381 8.11374 12.1396 8.1749L0.31096 12.5572C0.130383 12.6345 0.00980769 12.8076 0 13.0037V13.7105C0.000576923 13.8934 0.148845 14.0411 0.331152 14.0416H22.4758C22.6581 14.0416 22.6783 13.9672 22.5202 13.8772L12.7373 8.22567Z" fill="#00CCCC"/>
<path d="M0.28904 28.6534C0.130963 28.7445 0.00173119 28.6695 0.00173119 28.4878V19.0649C-0.00288419 19.024 0.00461509 18.9824 0.0230766 18.9461C0.0761535 18.8393 0.205961 18.7961 0.312115 18.8491L10.3298 22.5605C10.5012 22.624 10.5115 22.7497 10.3535 22.8415L0.28904 28.6534Z" fill="#00CCCC"/>
<path d="M22.5202 15.814C22.6783 15.7245 22.6581 15.6495 22.4758 15.6495H0.331728C0.148844 15.6501 0.00115294 15.7984 0.000576019 15.9807V16.6874C0.0103837 16.8836 0.130959 17.0567 0.311536 17.134L12.1402 21.5163C12.3387 21.5774 12.5527 21.559 12.7379 21.4655L22.5202 15.814Z" fill="#00CCCC"/>
</svg>