<svg width="64" height="16" viewBox="0 0 64 16" fill="none" xmlns="http://www.w3.org/2000/svg">
<g clip-path="url(#clip0_16048_7890)">
<path d="M20.5881 5.78382C20.469 4.91909 19.9926 4.16828 19.1331 3.48997L18.636 3.1534L18.3046 3.65566C17.88 4.30291 17.6677 5.20388 17.735 6.06861C17.7661 6.36893 17.8645 6.9178 18.17 7.389C17.8645 7.55987 17.2586 7.7877 16.4509 7.77217H1.02045L0.989379 7.9534C0.844395 8.81812 0.844395 11.5262 2.57902 13.6026C3.89941 15.1819 5.87223 15.9845 8.45087 15.9845C14.0431 15.9845 18.1751 13.3799 20.1169 8.63689C20.8781 8.65243 22.5195 8.64207 23.3635 7.011C23.3842 6.97476 23.436 6.87638 23.581 6.5657L23.6638 6.39482L23.1926 6.07379C22.6748 5.73722 21.4994 5.60777 20.5881 5.78382ZM13.3596 0H11.014V2.15922H13.3596V0ZM13.3596 2.59417H11.014V4.7534H13.3596V2.59417ZM10.5842 2.59417H8.23857V4.7534H10.5842V2.59417ZM7.81397 2.59417H5.46834V4.7534H7.81397V2.59417ZM5.03857 5.18835H2.69294V7.34757H5.03857V5.18835ZM7.81397 5.18835H5.46834V7.34757H7.81397V5.18835ZM10.5842 5.18835H8.23857V7.34757H10.5842V5.18835ZM13.3596 5.18835H11.014V7.34757H13.3596V5.18835ZM16.135 5.18835H13.7894V7.34757H16.135V5.18835ZM30.3952 4.70162C30.2243 4.70162 30.0793 4.75858 29.9706 4.87249C29.8567 4.98641 29.7997 5.13657 29.7997 5.30744V8.23301C29.2198 7.75146 28.5518 7.51327 27.7855 7.51327C26.9001 7.51327 26.1441 7.8343 25.5175 8.47637C24.891 9.11845 24.5803 9.88997 24.5803 10.7961C24.5803 11.7023 24.8962 12.4738 25.5175 13.1159C26.1441 13.7579 26.9001 14.079 27.7855 14.079C28.6709 14.079 29.4217 13.7579 30.0535 13.1159C30.68 12.4841 30.9907 11.7074 30.9907 10.7961V5.31262C30.9907 5.13657 30.9337 4.99159 30.8146 4.87767C30.7059 4.75858 30.5661 4.70162 30.3952 4.70162ZM29.6444 11.5935C29.5408 11.8421 29.3959 12.0595 29.2146 12.246C29.0334 12.4324 28.8211 12.5825 28.5777 12.6913C28.3344 12.8 28.0703 12.857 27.7907 12.857C27.5111 12.857 27.247 12.8052 26.9984 12.6913C26.7551 12.5825 26.5428 12.4324 26.3615 12.246C26.1803 12.0595 26.0405 11.8421 25.937 11.5935C25.8334 11.345 25.7816 11.0757 25.7816 10.7961C25.7816 10.5165 25.8334 10.2472 25.937 9.99871C26.0405 9.75016 26.1855 9.53269 26.3615 9.34628C26.5428 9.15987 26.7551 9.01489 26.9984 8.90097C27.2418 8.79223 27.5059 8.73527 27.7907 8.73527C28.0755 8.73527 28.3292 8.78705 28.5777 8.90097C28.8211 9.00971 29.0334 9.15987 29.2146 9.34628C29.3959 9.53269 29.5408 9.75016 29.6444 9.99871C29.748 10.2472 29.7997 10.5113 29.7997 10.7909C29.7997 11.0757 29.748 11.3398 29.6444 11.5935ZM56.6269 8.47637C55.9952 7.8343 55.234 7.51327 54.359 7.51327C53.4787 7.51327 52.7175 7.8343 52.091 8.47637C51.4645 9.11845 51.1538 9.88997 51.1538 10.7961C51.1538 11.7023 51.4696 12.4738 52.091 13.1159C52.7175 13.7579 53.4735 14.079 54.359 14.079C55.1667 14.079 55.8606 13.8149 56.456 13.2816C56.57 13.1625 56.6269 13.0123 56.6269 12.8414C56.6269 12.6705 56.57 12.5204 56.456 12.4065C56.3421 12.2926 56.2023 12.2356 56.0314 12.2356C55.8813 12.2408 55.7518 12.2874 55.6379 12.3909C55.4567 12.5463 55.2651 12.6654 55.0528 12.743C54.8405 12.8207 54.6127 12.8621 54.359 12.8621C54.1363 12.8621 53.924 12.8259 53.7221 12.7586C53.5201 12.6861 53.3285 12.5877 53.1628 12.4634C52.992 12.334 52.847 12.1838 52.7175 12.0078C52.5933 11.8317 52.4949 11.635 52.4327 11.4175H56.9687C57.1344 11.4175 57.2793 11.3605 57.3933 11.2466C57.5124 11.1327 57.5693 10.9825 57.5693 10.8117C57.5693 10.356 57.4916 9.93657 57.3363 9.54822C57.1758 9.14951 56.9428 8.79741 56.6269 8.47637ZM52.4224 10.1903C52.4845 9.97799 52.5777 9.78123 52.702 9.6C52.8263 9.42395 52.9764 9.26861 53.1473 9.14434C53.3182 9.01489 53.5098 8.92168 53.7169 8.84919C53.924 8.7767 54.1363 8.74563 54.3538 8.74563C54.5713 8.74563 54.7836 8.78188 54.9855 8.84919C55.1926 8.92168 55.379 9.02006 55.5447 9.14434C55.7156 9.27379 55.8658 9.42395 55.99 9.6C56.1195 9.77605 56.2127 9.97282 56.28 10.1903H52.4224ZM62.9078 7.92751C62.7991 7.82395 62.6645 7.7411 62.5039 7.67896C62.3434 7.61683 62.1622 7.5754 61.9706 7.55469C61.779 7.5288 61.5978 7.51845 61.4269 7.51845C61.0438 7.51845 60.6865 7.58058 60.3499 7.70485C60.0133 7.82913 59.7026 8.01036 59.4179 8.24337V8.12945C59.4179 7.95858 59.3609 7.81877 59.2418 7.69968C59.1227 7.58058 58.9881 7.51845 58.8224 7.51845C58.6567 7.51845 58.5117 7.58058 58.3978 7.69968C58.2787 7.81877 58.2217 7.96375 58.2217 8.12945V13.4731C58.2217 13.644 58.2787 13.7838 58.3978 13.9029C58.5169 14.022 58.6567 14.0841 58.8224 14.0841C58.9881 14.0841 59.1279 14.022 59.2418 13.9029C59.3609 13.7838 59.4179 13.6388 59.4179 13.4731V10.8013C59.4179 10.5165 59.4696 10.2472 59.5732 9.99871C59.6768 9.75016 59.8217 9.53269 60.003 9.34628C60.1842 9.15987 60.3965 9.01489 60.6399 8.90615C60.8832 8.79741 61.1473 8.74563 61.4269 8.74563C61.7065 8.74563 61.9706 8.79741 62.214 8.89061C62.3072 8.93204 62.3952 8.95793 62.4677 8.95793C62.5505 8.95793 62.6282 8.9424 62.7007 8.91133C62.7732 8.88026 62.8353 8.83366 62.8923 8.78188C62.9441 8.72492 62.9907 8.66278 63.0217 8.58511C63.0528 8.51262 63.0683 8.42977 63.0683 8.34692C63.0683 8.17087 63.0166 8.03107 62.9078 7.92751ZM37.1577 8.47637C36.5259 7.8343 35.7648 7.51327 34.8897 7.51327C34.0146 7.51327 33.2483 7.8343 32.6217 8.47637C31.9952 9.11845 31.6845 9.88997 31.6845 10.7961C31.6845 11.7023 32.0004 12.4738 32.6217 13.1159C33.2483 13.7579 34.0043 14.079 34.8897 14.079C35.7751 14.079 36.5259 13.7579 37.1577 13.1159C37.7842 12.4841 38.0949 11.7074 38.0949 10.7961C38.0897 10.3405 38.012 9.92103 37.8567 9.53786C37.7014 9.15469 37.4683 8.79741 37.1577 8.47637ZM36.7434 11.5935C36.6399 11.8421 36.4949 12.0595 36.3137 12.246C36.1324 12.4324 35.9201 12.5825 35.6768 12.6913C35.4334 12.8 35.1693 12.857 34.8897 12.857C34.6101 12.857 34.346 12.8052 34.0975 12.6913C33.8541 12.5825 33.6418 12.4324 33.4606 12.246C33.2794 12.0595 33.1395 11.8421 33.036 11.5935C32.9324 11.345 32.8806 11.0757 32.8806 10.7961C32.8806 10.5165 32.9324 10.2472 33.036 9.99871C33.1395 9.75016 33.2845 9.53269 33.4606 9.34628C33.6418 9.15987 33.8541 9.01489 34.0975 8.90097C34.3408 8.79223 34.6049 8.73527 34.8897 8.73527C35.1745 8.73527 35.4282 8.78705 35.6768 8.90097C35.9201 9.00971 36.1324 9.15987 36.3137 9.34628C36.4949 9.53269 36.6399 9.75016 36.7434 9.99871C36.847 10.2472 36.8988 10.5113 36.8988 10.7909C36.8988 11.0757 36.847 11.3398 36.7434 11.5935ZM50.4962 8.12427C50.4962 8.04142 50.4806 7.96375 50.4496 7.89126C50.4185 7.81877 50.3771 7.75146 50.3201 7.6945C50.2683 7.63754 50.201 7.59094 50.1285 7.56505C50.056 7.53398 49.9784 7.51845 49.8955 7.51845C49.7764 7.51845 49.6677 7.54951 49.5745 7.61165L46.1467 9.88997V5.3178C46.1467 5.14693 46.0897 5.00194 45.9706 4.88285C45.8515 4.76375 45.7169 4.70162 45.5512 4.70162C45.3855 4.70162 45.2405 4.76375 45.1266 4.88285C45.0075 5.00194 44.9505 5.14693 44.9505 5.3178V13.4628C44.9505 13.6337 45.0075 13.7786 45.1266 13.8977C45.2457 14.0168 45.3855 14.079 45.5512 14.079C45.7169 14.079 45.8567 14.0168 45.9706 13.8977C46.0897 13.7786 46.1467 13.6337 46.1467 13.4628V11.345L46.8457 10.8738L49.4916 13.9133C49.6004 14.0168 49.735 14.0686 49.8904 14.0686C49.9732 14.0686 50.0509 14.0531 50.1234 14.022C50.1959 13.9909 50.258 13.9443 50.3149 13.8926C50.3667 13.8356 50.4133 13.7735 50.4444 13.6958C50.4755 13.6233 50.491 13.5405 50.491 13.4628C50.491 13.3023 50.434 13.1625 50.3253 13.033L47.8709 10.2006L50.2735 8.60582C50.4237 8.50226 50.4962 8.34175 50.4962 8.12427ZM40.5493 9.3411C40.7305 9.15469 40.948 9.00971 41.1913 8.90097C41.4347 8.79223 41.6988 8.74045 41.9784 8.74045C42.2321 8.74045 42.4651 8.78188 42.6774 8.8699C42.8897 8.95793 43.0968 9.0822 43.2884 9.2479C43.4023 9.3411 43.5318 9.3877 43.6768 9.3877C43.8476 9.3877 43.9926 9.33074 44.1014 9.21165C44.2153 9.09256 44.2722 8.94757 44.2722 8.77152C44.2722 8.59547 44.2049 8.43495 44.0651 8.31068C43.4748 7.77735 42.781 7.51327 41.9732 7.51327C41.0878 7.51327 40.3318 7.8343 39.7052 8.47637C39.0787 9.11845 38.768 9.88997 38.768 10.7961C38.768 11.7023 39.0839 12.4738 39.7052 13.1159C40.3318 13.7579 41.0878 14.079 41.9732 14.079C42.7758 14.079 43.4748 13.8149 44.0651 13.2816C44.1894 13.1521 44.2567 13.0019 44.2567 12.8311C44.2567 12.6602 44.1997 12.51 44.0858 12.3961C43.9719 12.2822 43.8321 12.2252 43.6612 12.2252C43.5162 12.2304 43.392 12.2718 43.2832 12.3547C43.0916 12.5256 42.8897 12.6498 42.6774 12.7327C42.4651 12.8155 42.2321 12.857 41.9784 12.857C41.6988 12.857 41.4399 12.8052 41.1913 12.6964C40.948 12.5877 40.7305 12.4427 40.5493 12.2563C40.368 12.0751 40.223 11.8524 40.1143 11.6039C40.0107 11.3553 39.959 11.0861 39.959 10.8013C39.959 10.5165 40.0107 10.2472 40.1143 9.99871C40.223 9.74498 40.368 9.53269 40.5493 9.3411Z" fill="#706E6D"/>
</g>
<defs>
<clipPath id="clip0_16048_7890">
<rect width="62.1359" height="16" fill="white" transform="translate(0.931641)"/>
</clipPath>
</defs>
</svg>
