<svg width="20" height="16" viewBox="0 0 20 16" fill="none" xmlns="http://www.w3.org/2000/svg">
<g clip-path="url(#clip0_21248_29967)">
<path d="M19.6749 6.59133C19.1845 6.26129 17.8961 6.12033 16.9594 6.37263C16.9089 5.43961 16.4278 4.65338 15.5477 3.96737L15.2219 3.74866L15.0048 4.07659C14.5779 4.72451 14.3981 5.58771 14.4618 6.37236C14.5121 6.85579 14.6803 7.39926 15.0048 7.79357C13.7856 8.50073 12.6619 8.3402 7.68533 8.3402H0.00172499C-0.0207541 9.46389 0.159872 11.6256 1.53453 13.3853C1.68633 13.5797 1.85294 13.7677 2.03357 13.9489C3.15117 15.068 4.83974 15.8887 7.3648 15.891C11.2169 15.8945 14.5174 13.8124 16.5249 8.77788C17.1855 8.78873 18.9293 8.89636 19.7828 7.24719C19.8036 7.21942 19.9999 6.80978 19.9999 6.80978L19.6746 6.59107L19.6749 6.59133ZM5.01614 5.56364H2.85551V7.72428H5.01614V5.56364ZM7.80751 5.56364H5.64687V7.72428H7.80751V5.56364ZM10.5989 5.56364H8.43824V7.72428H10.5989V5.56364ZM13.3902 5.56364H11.2296V7.72428H13.3902V5.56364ZM2.22477 5.56364H0.0641374V7.72428H2.22477V5.56364ZM5.01614 2.83469H2.85551V4.99532H5.01614V2.83469ZM7.80751 2.83469H5.64687V4.99532H7.80751V2.83469ZM10.5989 2.83469H8.43824V4.99532H10.5989V2.83469ZM10.5989 0.105469H8.43824V2.2661H10.5989V0.105469Z" fill="#1D63ED"/>
</g>
<defs>
<clipPath id="clip0_21248_29967">
<rect width="20" height="15.7856" fill="white" transform="translate(0 0.105469)"/>
</clipPath>
</defs>
</svg>
