<?xml version="1.0" encoding="UTF-8" standalone="no"?>
<svg
   height="32"
   width="150"
   viewBox="77 83 404.19999 67.735191"
   version="1.1"
   xmlns="http://www.w3.org/2000/svg">
  <style
     id="style1">
   .text {
    fill: var(--icon-color, black)
   }
 </style>
  <path
     d="m 168.2,89.851852 h 313 v 40.999998 h -313 z"
     fill="none"
     id="path1" />
  <g
     enable-background="new"
     id="g14"
     transform="translate(-9.8,-12.648148)">
    <path
       class="text"
       d="m 193.3,139.4 c -4,0 -7.2,-1.2 -9.5,-3.5 -2.3,-2.3 -3.4,-5.6 -3.4,-9.7 0,-4.2 1.1,-7.6 3.2,-10 2.1,-2.4 5,-3.6 8.7,-3.6 3.4,0 6.1,1 8.1,3.1 2,2.1 3,4.9 3,8.6 v 3 h -17.3 c 0.1,2.5 0.8,4.4 2,5.8 1.2,1.4 3.1,2 5.4,2 1.5,0 3,-0.1 4.3,-0.4 1.3,-0.3 2.7,-0.8 4.3,-1.4 v 4.5 c -1.3,0.6 -2.7,1.1 -4.1,1.4 -1.4,0.3 -3,0.2 -4.7,0.2 z m -1.1,-22.6 c -1.8,0 -3.2,0.6 -4.2,1.7 -1,1.1 -1.7,2.7 -1.9,4.9 h 11.8 c 0,-2.1 -0.5,-3.8 -1.5,-4.9 -1,-1.1 -2.4,-1.7 -4.2,-1.7 z"
       id="path2" />
    <path
       class="text"
       d="m 215.1,139 h -5.5 v -36.5 h 5.5 z"
       id="path3" />
    <path
       class="text"
       d="m 239.2,139 -1.1,-3.6 h -0.2 c -1.2,1.6 -2.5,2.7 -3.8,3.2 -1.3,0.5 -2.9,0.9 -4.9,0.9 -2.5,0 -4.5,-0.7 -6,-2.1 -1.5,-1.4 -2.1,-3.3 -2.1,-5.8 0,-2.7 1,-4.7 3,-6 2,-1.3 5,-2.1 9.1,-2.2 l 4.5,-0.1 v -1.4 c 0,-1.7 -0.4,-2.9 -1.2,-3.7 -0.8,-0.8 -2,-1.2 -3.6,-1.2 -1.3,0 -2.6,0.2 -3.8,0.6 -1.2,0.4 -2.4,0.9 -3.5,1.4 l -1.8,-3.9 c 1.4,-0.7 2.9,-1.3 4.6,-1.7 1.7,-0.4 3.2,-0.6 4.7,-0.6 3.3,0 5.8,0.7 7.5,2.2 1.7,1.5 2.5,3.7 2.5,6.8 V 139 Z m -8.2,-3.8 c 2,0 3.6,-0.6 4.8,-1.7 1.2,-1.1 1.8,-2.7 1.8,-4.7 v -2.2 l -3.3,0.1 c -2.6,0.1 -4.5,0.5 -5.7,1.3 -1.2,0.8 -1.8,2 -1.8,3.6 0,1.2 0.3,2.1 1,2.7 0.7,0.6 1.8,0.9 3.2,0.9 z"
       id="path4" />
    <path
       class="text"
       d="m 268.2,131.6 c 0,2.5 -0.9,4.5 -2.8,5.8 -1.9,1.3 -4.5,2 -7.9,2 -3.5,0 -6.2,-0.5 -8.3,-1.6 V 133 c 3,1.4 5.9,2.1 8.5,2.1 3.4,0 5.1,-1 5.1,-3.1 0,-0.7 -0.2,-1.2 -0.6,-1.6 -0.4,-0.4 -1,-0.9 -1.9,-1.4 -0.9,-0.5 -2.1,-1 -3.6,-1.6 -3,-1.2 -5,-2.3 -6.1,-3.5 -1.1,-1.2 -1.6,-2.7 -1.6,-4.5 0,-2.2 0.9,-3.9 2.7,-5.2 1.8,-1.3 4.2,-1.8 7.3,-1.8 3,0 5.9,0.6 8.6,1.9 l -1.8,4.1 c -2.8,-1.2 -5.1,-1.7 -7.1,-1.7 -2.9,0 -4.4,0.8 -4.4,2.5 0,0.8 0.4,1.5 1.1,2.1 0.7,0.6 2.4,1.3 5,2.3 2.1,0.8 3.7,1.6 4.7,2.3 1,0.7 1.7,1.5 2.2,2.4 0.7,1 0.9,2 0.9,3.3 z"
       id="path5" />
    <path
       class="text"
       d="m 283.8,135 c 1.3,0 2.7,-0.2 4,-0.6 v 4.1 c -0.6,0.3 -1.4,0.5 -2.4,0.7 -1,0.2 -2,0.3 -3,0.3 -5.2,0 -7.8,-2.8 -7.8,-8.2 v -14 h -3.5 v -2.4 l 3.8,-2 1.9,-5.5 h 3.4 v 5.8 h 7.4 v 4.2 h -7.4 v 13.9 c 0,1.3 0.3,2.3 1,2.9 0.7,0.6 1.6,0.8 2.6,0.8 z"
       id="path6" />
    <path
       class="text"
       d="m 292.7,106.2 c 0,-1 0.3,-1.7 0.8,-2.3 0.5,-0.6 1.3,-0.8 2.3,-0.8 1,0 1.7,0.3 2.3,0.8 0.6,0.5 0.8,1.3 0.8,2.3 0,0.9 -0.3,1.7 -0.8,2.2 -0.5,0.5 -1.3,0.8 -2.3,0.8 -1,0 -1.8,-0.3 -2.3,-0.8 -0.5,-0.5 -0.8,-1.3 -0.8,-2.2 z m 5.9,32.8 h -5.5 v -25.9 h 5.5 z"
       id="path7" />
    <path
       class="text"
       d="m 316.9,139.4 c -3.9,0 -6.9,-1.1 -8.9,-3.4 -2,-2.3 -3.1,-5.6 -3.1,-9.9 0,-4.4 1.1,-7.7 3.2,-10.1 2.1,-2.4 5.2,-3.5 9.2,-3.5 2.7,0 5.2,0.5 7.4,1.5 l -1.7,4.4 c -2.3,-0.9 -4.2,-1.4 -5.8,-1.4 -4.5,0 -6.7,3 -6.7,8.9 0,2.9 0.6,5.1 1.7,6.6 1.1,1.5 2.8,2.2 4.9,2.2 2.5,0 4.8,-0.6 7,-1.8 v 4.8 c -1,0.6 -2,1 -3.2,1.2 -1.2,0.2 -2.4,0.5 -4,0.5 z"
       id="path8" />
    <path
       class="text"
       d="m 347.6,131.6 c 0,2.5 -0.9,4.5 -2.8,5.8 -1.9,1.3 -4.5,2 -7.9,2 -3.5,0 -6.2,-0.5 -8.3,-1.6 V 133 c 3,1.4 5.9,2.1 8.5,2.1 3.4,0 5.1,-1 5.1,-3.1 0,-0.7 -0.2,-1.2 -0.6,-1.6 -0.4,-0.4 -1,-0.9 -1.9,-1.4 -0.9,-0.5 -2.1,-1 -3.6,-1.6 -3,-1.2 -5,-2.3 -6.1,-3.5 -1.1,-1.2 -1.6,-2.7 -1.6,-4.5 0,-2.2 0.9,-3.9 2.7,-5.2 1.8,-1.3 4.2,-1.8 7.3,-1.8 3,0 5.9,0.6 8.6,1.9 l -1.8,4.1 c -2.8,-1.2 -5.1,-1.7 -7.1,-1.7 -2.9,0 -4.4,0.8 -4.4,2.5 0,0.8 0.4,1.5 1.1,2.1 0.7,0.6 2.4,1.3 5,2.3 2.1,0.8 3.7,1.6 4.7,2.3 1,0.7 1.7,1.5 2.2,2.4 0.7,1 0.9,2 0.9,3.3 z"
       id="path9" />
    <path
       class="text"
       d="m 364.9,139.4 c -4,0 -7.2,-1.2 -9.5,-3.5 -2.3,-2.3 -3.4,-5.6 -3.4,-9.7 0,-4.2 1.1,-7.6 3.2,-10 2.1,-2.4 5,-3.6 8.7,-3.6 3.4,0 6.1,1 8.1,3.1 2,2.1 3,4.9 3,8.6 v 3 h -17.3 c 0.1,2.5 0.8,4.4 2,5.8 1.2,1.4 3.1,2 5.4,2 1.5,0 3,-0.1 4.3,-0.4 1.3,-0.3 2.7,-0.8 4.3,-1.4 v 4.5 c -1.3,0.6 -2.7,1.1 -4.1,1.4 -1.4,0.3 -2.9,0.2 -4.7,0.2 z m -1,-22.6 c -1.8,0 -3.2,0.6 -4.2,1.7 -1,1.1 -1.7,2.7 -1.9,4.9 h 11.8 c 0,-2.1 -0.5,-3.8 -1.5,-4.9 -1,-1.1 -2.5,-1.7 -4.2,-1.7 z"
       id="path10" />
    <path
       class="text"
       d="m 397.4,139 -1.1,-3.6 h -0.2 c -1.2,1.6 -2.5,2.7 -3.8,3.2 -1.3,0.5 -2.9,0.9 -4.9,0.9 -2.5,0 -4.5,-0.7 -6,-2.1 -1.5,-1.4 -2.1,-3.3 -2.1,-5.8 0,-2.7 1,-4.7 3,-6 2,-1.3 5,-2.1 9.1,-2.2 l 4.5,-0.1 v -1.4 c 0,-1.7 -0.4,-2.9 -1.2,-3.7 -0.8,-0.8 -2,-1.2 -3.6,-1.2 -1.3,0 -2.6,0.2 -3.8,0.6 -1.2,0.4 -2.4,0.9 -3.5,1.4 l -1.8,-3.9 c 1.4,-0.7 2.9,-1.3 4.6,-1.7 1.7,-0.4 3.2,-0.6 4.7,-0.6 3.3,0 5.8,0.7 7.5,2.2 1.7,1.5 2.5,3.7 2.5,6.8 V 139 Z m -8.2,-3.8 c 2,0 3.6,-0.6 4.8,-1.7 1.2,-1.1 1.8,-2.7 1.8,-4.7 v -2.2 l -3.3,0.1 c -2.6,0.1 -4.5,0.5 -5.7,1.3 -1.2,0.8 -1.8,2 -1.8,3.6 0,1.2 0.3,2.1 1,2.7 0.7,0.6 1.9,0.9 3.2,0.9 z"
       id="path11" />
    <path
       class="text"
       d="m 422.2,112.6 c 1.1,0 2,0.1 2.7,0.2 l -0.5,5.1 c -0.8,-0.2 -1.6,-0.3 -2.4,-0.3 -2.2,0 -4,0.7 -5.4,2.2 -1.4,1.5 -2.1,3.3 -2.1,5.6 V 139 H 409 v -25.9 h 4.3 l 0.7,4.6 h 0.3 c 0.9,-1.5 2,-2.8 3.4,-3.7 1.4,-0.9 2.9,-1.4 4.5,-1.4 z"
       id="path12" />
    <path
       class="text"
       d="m 440.2,139.4 c -3.9,0 -6.9,-1.1 -8.9,-3.4 -2,-2.3 -3.1,-5.6 -3.1,-9.9 0,-4.4 1.1,-7.7 3.2,-10.1 2.1,-2.4 5.2,-3.5 9.2,-3.5 2.7,0 5.2,0.5 7.4,1.5 l -1.7,4.4 c -2.3,-0.9 -4.2,-1.4 -5.8,-1.4 -4.5,0 -6.7,3 -6.7,8.9 0,2.9 0.6,5.1 1.7,6.6 1.1,1.5 2.8,2.2 4.9,2.2 2.5,0 4.8,-0.6 7,-1.8 v 4.8 c -1,0.6 -2,1 -3.2,1.2 -1.2,0.2 -2.4,0.5 -4,0.5 z"
       id="path13" />
    <path
       class="text"
       d="m 476.3,139 h -5.5 v -16 c 0,-2 -0.4,-3.5 -1.2,-4.5 -0.8,-1 -2.1,-1.5 -3.8,-1.5 -2.3,0 -4,0.7 -5.1,2.1 -1.1,1.4 -1.6,3.7 -1.6,6.9 v 13 h -5.5 v -36.5 h 5.5 v 9.3 c 0,1.5 -0.1,3.1 -0.3,4.8 h 0.4 c 0.8,-1.2 1.8,-2.2 3.1,-2.9 1.3,-0.7 2.9,-1 4.7,-1 6.3,0 9.4,3.2 9.4,9.5 V 139 Z"
       id="path14" />
  </g>
  <path
     d="m 132,102.85185 h -20.9 c 0.1,0.5 0.3,1 0.4,1.4 0.7,2.4 1.1,4.9 1.3,7.5 0.1,1 0.1,2.1 0.1,3.1 0,1 0,2.1 -0.1,3.1 -0.2,2.6 -0.6,5.1 -1.3,7.5 -0.1,0.5 -0.3,1 -0.4,1.4 H 132 c 6.6,0 11.9,-5.4 11.9,-12 0,-6.6 -5.3,-12 -11.9,-12 z"
     fill="#00a9e5"
     id="path15" />
  <path
     d="m 112.8,117.95185 c 0.1,-1 0.1,-2.1 0.1,-3.1 0,-1 0,-2.1 -0.1,-3.1 -0.2,-2.6 -0.6,-5.1 -1.3,-7.5 -0.1,-0.5 -0.3,-1 -0.4,-1.4 H 78.8 c -1.2,3.8 -1.8,7.8 -1.8,12 0,4.2 0.6,8.2 1.8,12 h 32.3 c 0.1,-0.5 0.3,-1 0.4,-1.4 0.7,-2.4 1.1,-4.9 1.3,-7.5 z"
     fill="#353535"
     id="path16" />
  <path
     d="m 135.6,130.85185 h -26 c -0.8,1.8 -1.7,3.5 -2.7,5.1 -1.5,2.5 -3.3,4.7 -5.3,6.8 -0.7,0.7 -1.4,1.3 -2.1,2 -1.4,1.3 -3,2.4 -4.6,3.5 6.3,4.2 13.9,6.6 22,6.6 13.9,0 26.1,-7.1 33.3,-17.8 -3.7,-3.8 -8.9,-6.2 -14.6,-6.2 z"
     fill="#00bfb3"
     id="path17" />
  <path
     d="m 106.9,135.95185 c 1,-1.6 1.9,-3.3 2.7,-5.1 H 80.3 c 3.1,7.1 8.2,13.2 14.7,17.4 1.6,-1.1 3.1,-2.2 4.6,-3.5 0.7,-0.6 1.4,-1.3 2.1,-2 1.9,-2 3.7,-4.3 5.2,-6.8 z"
     fill="#019b8f"
     id="path18" />
  <path
     d="m 101.6,86.951852 c -0.7,-0.7 -1.4,-1.3 -2.1,-2 -1.4,-1.3 -3,-2.4 -4.6,-3.5 -6.4,4.2 -11.5,10.3 -14.7,17.4 h 29.3 c -0.8,-1.8 -1.7,-3.5 -2.7,-5.1 -1.4,-2.5 -3.2,-4.8 -5.2,-6.8 z"
     fill="#f9b110"
     id="path19" />
  <path
     d="m 116.9,74.851852 c -8.1,0 -15.7,2.4 -22,6.6 1.6,1.1 3.1,2.2 4.6,3.5 0.7,0.6 1.4,1.3 2.1,2 2,2.1 3.8,4.3 5.3,6.8 1,1.6 1.9,3.3 2.7,5.1 h 26 c 5.7,0 10.9,-2.4 14.6,-6.2 -7.2,-10.7 -19.4,-17.8 -33.3,-17.8 z"
     fill="#fed10a"
     id="path20" />
</svg>
