<svg width="18" height="16" viewBox="0 0 18 16" fill="none" xmlns="http://www.w3.org/2000/svg">
<path d="M11.6416 5.3127L13.0324 3.92196L13.1251 3.33636C10.5908 1.03191 6.56215 1.29321 4.27758 3.88159C3.64298 4.60049 3.17219 5.49676 2.92114 6.42227L3.41924 6.35209L6.20067 5.89342L6.41541 5.67381C7.65266 4.315 9.74462 4.1322 11.1732 5.28833L11.6416 5.3127Z" fill="#EA4335"/>
<path d="M15.0129 6.38091C14.6932 5.20372 14.0369 4.14546 13.1244 3.33594L11.1725 5.28784C11.9967 5.96131 12.4662 6.97588 12.4461 8.04002V8.3865C13.4055 8.3865 14.1833 9.16428 14.1833 10.1237C14.1833 11.0831 13.4055 11.8414 12.4461 11.8414H8.96685L8.62524 12.2123V14.2959L8.96685 14.6228H12.4461C14.9416 14.6423 16.9804 12.6545 16.9998 10.159C17.0116 8.64643 16.2658 7.22837 15.0129 6.38091Z" fill="#4285F4"/>
<path d="M5.49294 14.6173H8.96733V11.8358H5.49294C5.24539 11.8357 5.00565 11.7826 4.78054 11.6797L4.28762 11.8309L2.88713 13.2217L2.76514 13.695C3.55054 14.2881 4.5088 14.6215 5.49294 14.6173Z" fill="#34A853"/>
<path d="M5.49167 5.60159C2.99611 5.61647 0.985208 7.65162 1.00008 10.1471C1.00839 11.5407 1.65924 12.8525 2.76387 13.702L4.77927 11.6867C3.90488 11.2916 3.51633 10.2626 3.91138 9.38828C4.30636 8.51395 5.33543 8.1254 6.2097 8.52039C6.595 8.69444 6.90354 9.00305 7.0776 9.38828L9.093 7.37294C8.23548 6.25193 6.90304 5.59653 5.49167 5.60159Z" fill="#FBBC05"/>
</svg>
