<svg width="58" height="16" viewBox="0 0 58 16" fill="none" xmlns="http://www.w3.org/2000/svg">
<path d="M7.44761 6.8741C7.33765 6.8741 7.22768 6.98407 7.22768 7.09403V9.34833C7.22768 9.45829 7.33765 9.56826 7.44761 9.56826H9.26205V12.3724C9.26205 12.3724 8.87717 12.5373 7.72253 12.5373C6.40294 12.5373 4.58851 12.0425 4.58851 7.97376C4.58851 3.90503 6.51291 3.41018 8.32734 3.41018C9.92184 3.41018 10.5816 3.6851 11.0215 3.79506C11.1315 3.85005 11.2964 3.6851 11.2964 3.57513L11.7913 1.37582C11.7913 1.32084 11.7913 1.26585 11.6813 1.21087C11.5163 1.1009 10.4717 0.496094 7.77751 0.496094C4.64349 0.496094 1.56445 1.7607 1.56445 8.13871C1.56445 14.4617 5.19332 15.3964 8.21737 15.3964C10.7466 15.3964 12.2861 14.3518 12.2861 14.3518C12.3411 14.2968 12.3411 14.2418 12.3411 14.1868V7.09403C12.3411 6.98407 12.2311 6.8741 12.1212 6.8741" fill="#706E6D"/>
<path d="M35.8737 1.2629C35.8737 1.15293 35.7637 1.04297 35.6537 1.04297H33.0696C32.9596 1.04297 32.8496 1.15293 32.8496 1.2629V6.26634H28.7809V1.2629C28.7809 1.15293 28.6709 1.04297 28.561 1.04297H25.9768C25.8668 1.04297 25.7568 1.15293 25.7568 1.2629V14.8437C25.7568 14.9536 25.8668 15.0636 25.9768 15.0636H28.561C28.6709 15.0636 28.7809 14.9536 28.7809 14.8437V9.01548H32.8496V14.8437C32.8496 14.9536 32.9596 15.0636 33.0696 15.0636H35.6537C35.7637 15.0636 35.8737 14.9536 35.8737 14.8437V1.2629Z" fill="#706E6D"/>
<path d="M15.3099 4.78393C16.2513 4.78393 17.0144 4.02082 17.0144 3.07947C17.0144 2.13812 16.2513 1.375 15.3099 1.375C14.3686 1.375 13.6055 2.13812 13.6055 3.07947C13.6055 4.02082 14.3686 4.78393 15.3099 4.78393Z" fill="#706E6D"/>
<path d="M16.7946 5.71993C16.7946 5.60997 16.6846 5.5 16.5746 5.5H13.9904C13.8805 5.5 13.7705 5.60997 13.7705 5.71993V14.7371C13.7705 15.012 13.9355 15.067 14.1554 15.067H16.5196C16.7946 15.067 16.8495 14.957 16.8495 14.7371" fill="#706E6D"/>
<path d="M43.1865 5.55469C43.0765 5.55469 42.9666 5.66465 42.9666 5.77462V12.4275C42.9666 12.4275 42.3068 12.9224 41.3721 12.9224C40.4373 12.9224 40.2174 12.4825 40.2174 11.6028V5.77462C40.2174 5.66465 40.1074 5.55469 39.9975 5.55469H37.4133C37.3033 5.55469 37.1934 5.66465 37.1934 5.77462V12.0427C37.1934 14.7368 38.6779 15.3966 40.7672 15.3966C42.4717 15.3966 43.8463 14.4619 43.8463 14.4619C43.8463 14.4619 43.9013 14.9567 43.9562 15.0117C44.0112 15.0667 44.0662 15.1217 44.1212 15.1217H45.7707C45.8806 15.1217 45.9906 15.0117 45.9906 14.9018V5.77462C45.9906 5.66465 45.8806 5.55469 45.7707 5.55469" fill="#706E6D"/>
<path d="M51.8738 12.9742C50.7742 12.9742 50.2793 12.4794 50.2793 12.4794V8.13575C50.2793 8.13575 50.8841 7.75087 51.5989 7.69589C52.5336 7.58592 53.4133 7.91582 53.4133 10.1151C53.4133 12.4794 53.1384 12.9742 51.8188 12.9742H51.8738ZM50.3893 5.88146V1.2629C50.3893 1.15293 50.2793 1.04297 50.1694 1.04297H47.5852C47.4752 1.04297 47.3652 1.15293 47.3652 1.2629V14.8437C47.3652 14.9536 47.4752 15.0636 47.5852 15.0636H49.3996C49.4546 15.0636 49.5645 15.0086 49.5645 14.9536C49.6195 14.8986 49.6745 14.3488 49.6745 14.3488C49.6745 14.3488 50.7192 15.3935 52.7536 15.3935C55.1178 15.3935 56.4924 14.1839 56.4924 10.0052C56.4924 5.82647 54.3481 5.27665 52.8635 5.27665C51.379 5.27665 50.3893 5.93644 50.3893 5.93644V5.88146Z" fill="#706E6D"/>
<path d="M22.348 5.49914V2.91495C22.348 2.80498 22.2931 2.75 22.1831 2.75H19.4889C19.379 2.75 19.324 2.80498 19.324 2.96993V5.66409C19.324 5.66409 18.0044 5.99399 17.8944 5.99399C17.7845 6.04897 17.7295 6.10395 17.7295 6.21392V7.91839C17.7295 8.02835 17.8395 8.13832 17.9494 8.13832H19.324V12.1521C19.324 15.1761 21.4133 15.451 22.8429 15.451C23.5027 15.451 24.2724 15.2311 24.3824 15.1761C24.4374 15.1211 24.4924 15.0662 24.4924 14.9562V13.1418C24.4924 13.0318 24.3824 12.9218 24.2724 12.9218C24.1625 12.9218 23.8876 12.9768 23.5577 12.9768C22.623 12.9768 22.2931 12.5369 22.2931 11.9321C22.2931 11.3273 22.2931 8.13832 22.2931 8.13832H24.2175C24.3274 8.13832 24.4374 8.02835 24.4374 7.91839V5.71907C24.4374 5.60911 24.3274 5.49914 24.2175 5.49914" fill="#706E6D"/>
</svg>
