<svg width="92" height="16" viewBox="0 0 92 16" fill="none" xmlns="http://www.w3.org/2000/svg">
<path d="M15.5519 3.81019C15.4627 3.52448 15.2484 3.29234 14.9805 3.14949L9.53422 0.542409C9.39137 0.470982 9.23066 0.453125 9.08781 0.453125C8.94495 0.453125 8.78424 0.453125 8.64139 0.488838L3.19509 3.11378C2.92724 3.23877 2.73081 3.47091 2.65939 3.77448L1.32013 9.64934C1.26656 9.9529 1.33799 10.2565 1.51656 10.5065L5.28433 15.1671C5.49861 15.3813 5.80217 15.5242 6.10573 15.5421H12.1056C12.427 15.5778 12.7306 15.4349 12.927 15.1671L16.6948 10.5065C16.8733 10.2565 16.9448 9.9529 16.909 9.64934L15.5519 3.81019Z" fill="#706E6D"/>
<path d="M14.7134 9.4162C14.6955 9.4162 14.6777 9.4162 14.6777 9.39834C14.6777 9.38049 14.642 9.38049 14.6063 9.38049C14.5348 9.36263 14.4634 9.36263 14.392 9.36263C14.3563 9.36263 14.3205 9.36263 14.2848 9.34477H14.267C14.0706 9.32692 13.8563 9.2912 13.6599 9.23763C13.6063 9.21978 13.5527 9.16621 13.5349 9.11264L13.392 9.07692C13.4634 8.55908 13.4277 8.02338 13.3206 7.50553C13.1956 6.98769 12.9813 6.4877 12.6956 6.04128L12.8027 5.93414V5.91628C12.8027 5.86271 12.8206 5.79129 12.8563 5.75557C13.017 5.61272 13.1777 5.50558 13.3563 5.39844C13.392 5.38058 13.4277 5.36273 13.4634 5.34487C13.5349 5.30916 13.5884 5.27344 13.6599 5.23773C13.6777 5.21987 13.6956 5.21987 13.7134 5.20201C13.7313 5.18416 13.7134 5.18416 13.7134 5.1663C13.8741 5.0413 13.9098 4.82702 13.7848 4.66631C13.7313 4.59489 13.6241 4.54132 13.5349 4.54132C13.4456 4.54132 13.3563 4.57703 13.2849 4.6306L13.267 4.64846C13.2491 4.66631 13.2313 4.68417 13.2134 4.68417C13.1599 4.73774 13.1063 4.79131 13.0706 4.84488C13.0527 4.88059 13.017 4.89845 12.9992 4.91631C12.8742 5.05916 12.7134 5.20202 12.5527 5.30916C12.517 5.32701 12.4813 5.34487 12.4456 5.34487C12.4277 5.34487 12.392 5.34487 12.3742 5.32701H12.3563L12.2135 5.4163C12.0706 5.27344 11.9099 5.13059 11.767 4.98773C11.1063 4.46989 10.2849 4.14847 9.44566 4.05919L9.42781 3.91633V3.93419C9.37424 3.89847 9.35638 3.8449 9.33852 3.79133C9.33852 3.59491 9.33852 3.39849 9.37424 3.18421V3.16635C9.37424 3.13064 9.39209 3.09492 9.39209 3.05921C9.40995 2.98778 9.40995 2.91635 9.42781 2.84493V2.73779C9.44566 2.55922 9.30281 2.38065 9.12424 2.3628C9.0171 2.34494 8.90996 2.39851 8.82068 2.48779C8.74925 2.55922 8.71354 2.6485 8.71354 2.73779V2.82707C8.71354 2.8985 8.7314 2.96992 8.74925 3.04135C8.76711 3.07707 8.76711 3.11278 8.76711 3.14849V3.16635C8.80282 3.36277 8.80282 3.5592 8.80282 3.77348C8.78497 3.82705 8.76711 3.88062 8.71354 3.91633V3.95204L8.69568 4.0949C8.49926 4.11275 8.30283 4.14847 8.08855 4.18418C7.24929 4.36275 6.48145 4.80917 5.89218 5.43415L5.78504 5.36273H5.76718C5.74932 5.36273 5.73147 5.38058 5.69575 5.38058C5.66004 5.38058 5.62433 5.36273 5.58861 5.34487C5.4279 5.21987 5.26719 5.07702 5.1422 4.93416C5.12434 4.89845 5.08862 4.88059 5.07077 4.86274C5.0172 4.80917 4.98148 4.7556 4.92791 4.70203C4.91006 4.68417 4.8922 4.68417 4.87434 4.66631C4.85649 4.64846 4.85649 4.64846 4.85649 4.64846C4.78506 4.59489 4.69578 4.55917 4.60649 4.55917C4.49935 4.55917 4.41007 4.59489 4.3565 4.68417C4.24936 4.84488 4.28507 5.05916 4.42793 5.18416C4.44578 5.18416 4.44578 5.20201 4.44578 5.20201C4.44578 5.20201 4.4815 5.23773 4.49935 5.23773C4.55292 5.27344 4.62435 5.30916 4.69578 5.34487C4.73149 5.36273 4.7672 5.38058 4.80292 5.39844C4.98148 5.50558 5.16005 5.61272 5.30291 5.75557C5.33862 5.79129 5.37433 5.86271 5.35648 5.91628V5.89843L5.46362 6.00557C5.44576 6.04128 5.4279 6.05914 5.41005 6.09485C4.85649 6.96983 4.62435 8.00552 4.78506 9.02335L4.64221 9.05907C4.64221 9.07692 4.62435 9.07692 4.62435 9.07692C4.60649 9.13049 4.55292 9.16621 4.49935 9.20192C4.30293 9.25549 4.10651 9.2912 3.89222 9.30906C3.85651 9.30906 3.8208 9.30906 3.78508 9.32692C3.71366 9.32692 3.64223 9.34477 3.5708 9.34477C3.55295 9.34477 3.53509 9.36263 3.49938 9.36263C3.48152 9.36263 3.48152 9.36263 3.46366 9.38049C3.26724 9.4162 3.14224 9.59477 3.17796 9.79119C3.21367 9.9519 3.37438 10.059 3.53509 10.0412C3.5708 10.0412 3.58866 10.0412 3.62437 10.0233C3.64223 10.0233 3.64223 10.0233 3.64223 10.0055C3.64223 9.98762 3.6958 10.0055 3.71366 10.0055C3.78508 9.98762 3.85651 9.9519 3.91008 9.93405C3.94579 9.91619 3.98151 9.89833 4.01722 9.89833H4.03508C4.2315 9.82691 4.41007 9.77334 4.62435 9.73762H4.64221C4.69578 9.73762 4.74935 9.75548 4.78506 9.79119C4.80292 9.79119 4.80292 9.80905 4.80292 9.80905L4.96363 9.79119C5.23148 10.6126 5.73147 11.3447 6.42788 11.8804C6.58859 12.0054 6.73144 12.1126 6.91001 12.2018L6.82073 12.3268C6.82073 12.3447 6.83858 12.3447 6.83858 12.3447C6.8743 12.3983 6.8743 12.4697 6.85644 12.5233C6.78501 12.7018 6.67787 12.8804 6.57073 13.0411V13.059C6.55288 13.0947 6.53502 13.1125 6.49931 13.1483C6.46359 13.184 6.42788 13.2554 6.37431 13.3268C6.35645 13.3447 6.35645 13.3625 6.3386 13.3804C6.3386 13.3804 6.3386 13.3982 6.32074 13.3982C6.23146 13.5768 6.30288 13.7911 6.46359 13.8804C6.49931 13.8982 6.55288 13.9161 6.58859 13.9161C6.73144 13.9161 6.85644 13.8268 6.92787 13.7018C6.92787 13.7018 6.92787 13.684 6.94572 13.684C6.94572 13.6661 6.96358 13.6482 6.98144 13.6304C6.99929 13.559 7.03501 13.5054 7.05286 13.434L7.08858 13.3268C7.14215 13.1304 7.23143 12.9518 7.32071 12.7733C7.35643 12.7197 7.41 12.684 7.46357 12.6661C7.48143 12.6661 7.48143 12.6661 7.48143 12.6483L7.55285 12.5054C8.05284 12.7018 8.57069 12.7911 9.10639 12.7911C9.42781 12.7911 9.74923 12.7554 10.0706 12.6661C10.2671 12.6304 10.4635 12.559 10.6421 12.5054L10.7135 12.6304C10.7313 12.6304 10.7313 12.6304 10.7313 12.6483C10.7849 12.6661 10.8385 12.7018 10.8742 12.7554C10.9635 12.934 11.0528 13.1125 11.1063 13.309V13.3268L11.1421 13.434C11.1599 13.5054 11.1778 13.5768 11.2135 13.6304C11.2313 13.6482 11.2313 13.6661 11.2492 13.684C11.2492 13.684 11.2492 13.7018 11.267 13.7018C11.3385 13.8268 11.4635 13.9161 11.6063 13.9161C11.6599 13.9161 11.6956 13.8982 11.7492 13.8804C11.8206 13.8447 11.892 13.7732 11.9099 13.684C11.9277 13.5947 11.9277 13.5054 11.892 13.4161C11.892 13.3982 11.8742 13.3982 11.8742 13.3982C11.8742 13.3804 11.8563 13.3625 11.8385 13.3447C11.8028 13.2733 11.767 13.2197 11.7135 13.1661C11.6956 13.1304 11.6778 13.1125 11.642 13.0768V13.0411C11.517 12.8804 11.4278 12.7018 11.3563 12.5233C11.3385 12.4697 11.3385 12.3983 11.3742 12.3447C11.3742 12.3268 11.392 12.3268 11.392 12.3268L11.3385 12.184C12.2492 11.6304 12.9456 10.7733 13.267 9.75548L13.4099 9.77334C13.4277 9.77334 13.4277 9.75548 13.4277 9.75548C13.4634 9.71976 13.517 9.70191 13.5706 9.70191H13.5884C13.7848 9.73762 13.9813 9.79119 14.1598 9.86262H14.1777C14.2134 9.88048 14.2491 9.89833 14.2848 9.89833C14.3563 9.93405 14.4098 9.96976 14.4813 9.98762C14.4991 9.98762 14.517 10.0055 14.5527 10.0055C14.5705 10.0055 14.5705 10.0055 14.5884 10.0233C14.6241 10.0412 14.642 10.0412 14.6777 10.0412C14.8384 10.0412 14.9812 9.93405 15.0348 9.79119C15.017 9.59477 14.8741 9.45191 14.7134 9.4162ZM9.5528 8.86264L9.07067 9.09478L8.58854 8.86264L8.46354 8.3448L8.80282 7.91624H9.33852L9.6778 8.3448L9.5528 8.86264ZM12.4635 7.70196C12.5527 8.07695 12.5706 8.45194 12.5349 8.82693L10.8385 8.3448C10.6778 8.30908 10.5885 8.14837 10.6242 7.98766C10.6421 7.93409 10.6599 7.89838 10.6956 7.86267L12.0349 6.64841C12.2313 6.96983 12.3742 7.32696 12.4635 7.70196ZM11.4992 5.98771L10.0349 7.0234C9.90994 7.09483 9.73137 7.07697 9.64209 6.95197C9.60638 6.91626 9.58852 6.88055 9.58852 6.82698L9.48138 5.02345C10.2671 5.11273 10.9635 5.45201 11.4992 5.98771ZM8.26712 5.07702L8.62426 5.00559L8.53497 6.79126C8.53497 6.95197 8.39212 7.07697 8.23141 7.07697C8.17784 7.07697 8.14212 7.05911 8.08855 7.04126L6.60645 5.98771C7.07072 5.54129 7.64214 5.21987 8.26712 5.07702ZM6.0886 6.64841L7.41 7.82695C7.535 7.93409 7.55285 8.11266 7.44571 8.23766C7.41 8.29123 7.37428 8.30908 7.30286 8.32694L5.57076 8.82693C5.51719 8.07695 5.69575 7.30911 6.0886 6.64841ZM5.78504 9.66619L7.55285 9.36263C7.69571 9.36263 7.83856 9.45191 7.85642 9.59477C7.87427 9.64834 7.87427 9.71977 7.83856 9.77334L7.16 11.4162C6.53502 11.0054 6.03503 10.3805 5.78504 9.66619ZM9.83851 11.8804C9.58852 11.934 9.33852 11.9697 9.07067 11.9697C8.69568 11.9697 8.30283 11.8983 7.9457 11.7911L8.82068 10.2019C8.90996 10.0948 9.05282 10.059 9.17781 10.1305C9.23138 10.1662 9.2671 10.2019 9.32067 10.2555L10.1778 11.809C10.0707 11.8269 9.96351 11.8447 9.83851 11.8804ZM12.017 10.3269C11.7492 10.7555 11.3742 11.1304 10.9456 11.3983L10.2492 9.71977C10.2135 9.57691 10.2849 9.43406 10.4099 9.38049C10.4635 9.36263 10.5171 9.34477 10.5706 9.34477L12.3563 9.64834C12.267 9.89833 12.1599 10.1305 12.017 10.3269Z" fill="white"/>
<path d="M87.819 11.6136C88.069 11.6315 88.3369 11.5958 88.569 11.5065C88.7119 11.4351 88.8011 11.2744 88.7833 11.1136C88.7654 10.9351 88.6583 10.7744 88.4976 10.7208C88.2297 10.5601 87.9262 10.4172 87.6226 10.328C87.319 10.2208 87.0512 10.0958 86.8012 9.97082C86.5691 9.86368 86.3726 9.72082 86.1762 9.54225C85.9976 9.36369 85.8726 9.16726 85.7834 8.93513C85.6762 8.66728 85.6405 8.38157 85.6405 8.09586C85.6227 7.50659 85.8905 6.93517 86.3548 6.57804C86.8369 6.20305 87.4798 6.02448 88.3012 6.02448C88.694 6.02448 89.1047 6.06019 89.4976 6.14948C89.8011 6.20305 90.1047 6.27448 90.4083 6.38162L90.069 7.89944C89.819 7.81015 89.5868 7.75658 89.3369 7.68516C89.0511 7.61373 88.7476 7.59587 88.4619 7.59587C87.8547 7.59587 87.5512 7.75658 87.5512 8.09586C87.5512 8.16729 87.569 8.23871 87.5869 8.31014C87.6226 8.38157 87.6762 8.43514 87.7476 8.48871C87.819 8.54228 87.9262 8.59585 88.0512 8.66728C88.1762 8.7387 88.3547 8.81013 88.569 8.88156C88.9261 9.00655 89.2833 9.16726 89.6047 9.34583C89.8547 9.47083 90.069 9.63154 90.2475 9.84582C90.4082 10.0065 90.5154 10.203 90.5868 10.4351C90.6582 10.6851 90.694 10.9351 90.694 11.1851C90.7297 11.7922 90.444 12.3815 89.9261 12.7208C89.4261 13.06 88.7119 13.2386 87.7833 13.2386C87.2655 13.2565 86.7655 13.2029 86.2655 13.0779C85.9798 13.0065 85.7119 12.9172 85.4441 12.8279L85.7655 11.2565C86.0869 11.3815 86.4262 11.4886 86.7655 11.5601C87.1226 11.5779 87.4619 11.6136 87.819 11.6136ZM77.98 9.64939C77.9621 9.11369 78.0693 8.57799 78.2478 8.078C78.4085 7.64944 78.6585 7.27445 78.98 6.93517C79.2835 6.63161 79.6228 6.39947 80.0156 6.25662C80.4085 6.09591 80.8192 6.02448 81.2299 6.02448C82.1942 6.02448 82.962 6.32805 83.5156 6.91732C84.0691 7.50659 84.3548 8.38157 84.3548 9.5244C84.3548 9.63154 84.3548 9.75654 84.337 9.89939C84.337 10.0422 84.3191 10.1494 84.3191 10.2565H79.9621C79.9978 10.6315 80.1942 10.9886 80.5156 11.2029C80.9085 11.4529 81.3728 11.5779 81.837 11.5601C82.1763 11.5601 82.5334 11.5244 82.8727 11.4708C83.1584 11.4172 83.4441 11.3279 83.712 11.2029L83.9798 12.7743C83.8548 12.8457 83.712 12.8815 83.5691 12.935C83.3727 12.9886 83.1763 13.0422 82.9799 13.06C82.7656 13.0957 82.5513 13.1315 82.3013 13.1672C82.0692 13.185 81.8192 13.2029 81.5692 13.2029C81.0156 13.2207 80.4799 13.1315 79.9621 12.935C79.5335 12.7743 79.1585 12.5243 78.8371 12.2029C78.5335 11.8815 78.3193 11.4886 78.1764 11.0779C78.0514 10.5958 77.98 10.1137 77.98 9.64939ZM82.4977 8.91727C82.4977 8.75656 82.462 8.59585 82.4084 8.43514C82.3727 8.27443 82.2834 8.14943 82.1942 8.02443C82.087 7.89944 81.962 7.7923 81.8192 7.72087C81.6406 7.63159 81.462 7.59587 81.2656 7.59587C81.0692 7.59587 80.8906 7.63159 80.7121 7.72087C80.5692 7.7923 80.4263 7.88158 80.3192 8.00658C80.2121 8.13157 80.1228 8.27443 80.0692 8.43514C80.0156 8.59585 79.9799 8.75656 79.9621 8.91727H82.4977ZM72.748 4.4888L74.6765 4.18524V6.18519H76.9979V7.7923H74.6765V10.1851C74.6586 10.5244 74.73 10.8637 74.8908 11.1494C75.0336 11.3815 75.3193 11.5065 75.7657 11.5065C75.98 11.5065 76.1943 11.4886 76.3907 11.4529C76.605 11.4172 76.8014 11.3636 76.9979 11.2922L77.2657 12.7922C77.0157 12.8993 76.7479 12.9707 76.48 13.0422C76.1407 13.1136 75.7836 13.1493 75.4265 13.1493C74.98 13.1672 74.5336 13.0957 74.1229 12.935C73.8015 12.81 73.5158 12.5958 73.3015 12.3458C73.0872 12.0779 72.9444 11.7565 72.8551 11.4172C72.7658 11.0244 72.7301 10.6137 72.748 10.2208V4.4888ZM64.9446 9.64939C64.9267 9.11369 65.0339 8.57799 65.2124 8.078C65.3731 7.64944 65.6231 7.27445 65.9445 6.93517C66.2481 6.63161 66.5874 6.39947 66.9802 6.25662C67.3731 6.09591 67.7838 6.02448 68.1945 6.02448C69.1588 6.02448 69.9266 6.32805 70.4801 6.91732C71.0337 7.50659 71.3194 8.38157 71.3194 9.5244C71.3194 9.63154 71.3194 9.75654 71.3016 9.89939C71.2837 10.0422 71.2837 10.1494 71.2837 10.2565H66.9088C66.9445 10.6315 67.1409 10.9886 67.4624 11.2029C67.8552 11.4529 68.3195 11.5779 68.7838 11.5601C69.123 11.5601 69.4802 11.5244 69.8195 11.4708C70.1052 11.4172 70.3909 11.3279 70.6766 11.2029L70.9444 12.7743C70.8194 12.8457 70.6766 12.8815 70.5337 12.935C70.3373 12.9886 70.1409 13.0422 69.9444 13.06C69.7302 13.0957 69.5159 13.1315 69.2659 13.1672C69.0338 13.185 68.7838 13.2029 68.5338 13.2029C67.9802 13.2207 67.4445 13.1315 66.9267 12.935C66.4981 12.7743 66.1231 12.5243 65.8017 12.2029C65.4981 11.8815 65.2838 11.4886 65.141 11.0779C64.9981 10.5958 64.9267 10.1137 64.9446 9.64939ZM69.4623 8.91727C69.4623 8.75656 69.4266 8.59585 69.373 8.43514C69.3373 8.27443 69.248 8.14943 69.1588 8.02443C69.0516 7.89944 68.9266 7.7923 68.7838 7.72087C68.6052 7.63159 68.4266 7.59587 68.2302 7.59587C68.0338 7.59587 67.8552 7.63159 67.6767 7.72087C67.5338 7.7923 67.4088 7.88158 67.3017 8.00658C67.1945 8.13157 67.1052 8.27443 67.0517 8.43514C66.9981 8.59585 66.9624 8.75656 66.9445 8.91727H69.4623ZM57.6233 6.41733C58.034 6.31019 58.4626 6.2209 58.8911 6.14948C59.4268 6.06019 59.9804 6.02448 60.5161 6.02448C60.9982 6.00662 61.4804 6.09591 61.9446 6.25662C62.3018 6.38162 62.6232 6.5959 62.8553 6.8816C63.0875 7.16731 63.2482 7.50659 63.3375 7.86372C63.4446 8.27443 63.4803 8.70299 63.4803 9.13155V12.9707H61.5696V9.38154C61.5696 8.75656 61.4804 8.328 61.3197 8.06015C61.1589 7.81015 60.8554 7.6673 60.409 7.6673C60.2661 7.6673 60.1233 7.6673 59.9625 7.68516C59.8018 7.68516 59.6768 7.70301 59.5518 7.72087V12.9707H57.6233V6.41733ZM56.2662 7.89944C56.0876 7.86372 55.8912 7.81015 55.6591 7.77444C55.4091 7.72087 55.1591 7.70301 54.9091 7.70301C54.7662 7.70301 54.6234 7.72087 54.4627 7.73873C54.3377 7.75658 54.2127 7.77444 54.0877 7.81015V13.0065H52.1592V6.54233C52.552 6.39947 52.9627 6.29233 53.3734 6.20305C53.8913 6.07805 54.427 6.02448 54.9448 6.04234C55.0698 6.04234 55.1948 6.06019 55.3198 6.06019C55.4627 6.06019 55.6055 6.07805 55.7662 6.11376C55.9091 6.13162 56.0519 6.14948 56.2126 6.18519C56.3376 6.20305 56.4626 6.23876 56.5876 6.29233L56.2662 7.89944ZM44.2843 9.64939C44.2665 9.11369 44.3736 8.57799 44.5522 8.078C44.7129 7.64944 44.9629 7.27445 45.2843 6.93517C45.5879 6.63161 45.9272 6.39947 46.32 6.25662C46.7129 6.09591 47.1236 6.02448 47.5343 6.02448C48.4985 6.02448 49.2664 6.32805 49.8199 6.91732C50.3735 7.50659 50.6592 8.38157 50.6592 9.50654C50.6592 9.61368 50.6592 9.73868 50.6413 9.88153C50.6235 10.0244 50.6235 10.1315 50.6235 10.2387H46.2486C46.2843 10.6137 46.4807 10.9708 46.8021 11.1851C47.195 11.4351 47.6593 11.5601 48.1235 11.5422C48.4628 11.5422 48.82 11.5065 49.1592 11.4529C49.4449 11.3994 49.7306 11.3101 49.9985 11.2029L50.2663 12.7743C50.1414 12.8457 49.9985 12.8815 49.8556 12.935C49.6592 12.9886 49.4628 13.0422 49.2664 13.06C49.0521 13.0957 48.8378 13.1315 48.5878 13.1672C48.3557 13.185 48.1057 13.2029 47.8557 13.2029C47.3021 13.2207 46.7664 13.1315 46.2486 12.935C45.82 12.7743 45.445 12.5243 45.1236 12.2029C44.82 11.8815 44.6058 11.4886 44.4629 11.0779C44.3558 10.5958 44.2843 10.1315 44.2843 9.64939ZM48.82 8.91727C48.82 8.75656 48.7842 8.59585 48.7307 8.43514C48.695 8.27443 48.6057 8.14943 48.5164 8.02443C48.4092 7.89944 48.2843 7.7923 48.1414 7.72087C47.9628 7.63159 47.7843 7.59587 47.5878 7.59587C47.3914 7.59587 47.2128 7.63159 47.0343 7.72087C46.8914 7.7923 46.7486 7.88158 46.6414 8.00658C46.5343 8.13157 46.445 8.27443 46.3914 8.43514C46.3379 8.59585 46.3022 8.75656 46.2843 8.91727H48.82ZM41.1594 9.54225C41.1594 8.29228 40.6951 7.68516 39.7845 7.68516C39.588 7.68516 39.3916 7.70301 39.1952 7.75658C39.0345 7.7923 38.8738 7.86372 38.7309 7.95301V11.4529C38.8202 11.4708 38.9452 11.4886 39.088 11.5065C39.2309 11.5244 39.3916 11.5244 39.5702 11.5244C40.0344 11.5601 40.4809 11.3636 40.7666 10.9886C41.0344 10.5601 41.1773 10.0601 41.1594 9.54225ZM43.1237 9.61368C43.1237 10.1137 43.0522 10.6137 42.8737 11.0958C42.7308 11.5244 42.4987 11.8993 42.1951 12.2208C41.8737 12.5422 41.4987 12.7922 41.088 12.9529C40.6059 13.1315 40.1059 13.2029 39.588 13.2029C39.3559 13.2029 39.1059 13.185 38.8559 13.1672C38.6059 13.1493 38.3559 13.1136 38.1059 13.0957C37.8738 13.06 37.6416 13.0243 37.4095 12.9707C37.1774 12.935 36.9809 12.8815 36.8202 12.81V3.25669L38.7488 2.95312V6.3459C38.963 6.25662 39.1952 6.18519 39.4273 6.13162C39.6773 6.07805 39.9273 6.06019 40.1773 6.06019C40.6237 6.06019 41.0523 6.13162 41.463 6.32805C41.8201 6.48876 42.1415 6.73875 42.3915 7.04231C42.6594 7.38159 42.8558 7.75658 42.9629 8.16729C43.0701 8.61371 43.1237 9.11369 43.1237 9.61368ZM34.981 12.7565C34.5703 12.8636 34.1417 12.9529 33.7132 13.0065C33.1775 13.0957 32.6239 13.1315 32.0882 13.1315C31.5882 13.1493 31.1061 13.06 30.6418 12.8993C30.2847 12.7565 29.9811 12.5422 29.7311 12.2565C29.499 11.9529 29.3383 11.6136 29.249 11.2386C29.1418 10.8279 29.1061 10.3815 29.1061 9.95296V6.18519H31.0347V9.73868C31.0347 10.3637 31.1239 10.8101 31.2847 11.0779C31.4454 11.3458 31.7489 11.4886 32.1953 11.4886C32.3382 11.4886 32.4811 11.4886 32.6418 11.4708C32.8025 11.4529 32.9275 11.4529 33.0525 11.4172V6.18519H34.981V12.7565ZM23.7313 8.64942C23.9277 8.43514 24.1063 8.22086 24.3205 8.00658C24.517 7.77444 24.7134 7.56016 24.9098 7.34588C25.1062 7.11374 25.2848 6.91732 25.4455 6.72089C25.6062 6.52447 25.7669 6.3459 25.8919 6.20305H28.1776C27.7133 6.72089 27.2669 7.23874 26.8383 7.72087C26.3919 8.203 25.9276 8.70299 25.4098 9.20298C25.6955 9.47083 25.9633 9.73868 26.2133 10.0422C26.4812 10.3637 26.749 10.6851 27.0169 11.0422C27.2669 11.3815 27.5169 11.7386 27.7312 12.0779C27.9454 12.4172 28.124 12.7386 28.2669 13.0243H26.0526C25.9098 12.7922 25.7491 12.56 25.5705 12.2922C25.3919 12.0243 25.1955 11.7565 25.0169 11.4708C24.8205 11.2029 24.6062 10.9351 24.3741 10.6851C24.1777 10.4529 23.9634 10.2387 23.7313 10.0601V13.0422H21.8027V3.25669L23.7313 2.95312V8.64942Z" fill="#706E6D"/>
</svg>
