<svg width="20" height="20" viewBox="0 0 20 20" fill="none" xmlns="http://www.w3.org/2000/svg">
<g clip-path="url(#clip0_21248_29974)">
<path d="M11.6931 11.2795C11.6686 11.2747 11.6437 11.2728 11.6188 11.2739C11.5757 11.2762 11.5336 11.2871 11.4949 11.306C11.4198 11.3423 11.3616 11.4061 11.3324 11.4843C11.3032 11.5624 11.3053 11.6488 11.3382 11.7254L11.3359 11.7286L12.0772 13.5194C12.7864 13.0669 13.3245 12.3909 13.6065 11.5983L11.6964 11.2755L11.6931 11.2795ZM8.72099 11.5333C8.70492 11.4627 8.66563 11.3996 8.6094 11.354C8.55317 11.3084 8.48326 11.2829 8.41087 11.2818C8.38949 11.2815 8.36815 11.2834 8.34715 11.2874L8.34394 11.2835L6.45041 11.6049C6.73476 12.3913 7.27066 13.0618 7.97497 13.5125L8.70874 11.7393L8.703 11.7324C8.73008 11.6696 8.73639 11.5999 8.72099 11.5333ZM10.3068 12.2287C10.2792 12.1771 10.238 12.134 10.1878 12.104C10.1376 12.074 10.0802 12.0582 10.0217 12.0583C9.96315 12.0583 9.90576 12.0743 9.85561 12.1044C9.80546 12.1346 9.76443 12.1777 9.7369 12.2294H9.73533L8.80417 13.9132C9.47089 14.1402 10.1876 14.177 10.8741 14.0196C11.0014 13.9907 11.1258 13.9559 11.2472 13.9153L10.3139 12.2286L10.3068 12.2287ZM13.2546 8.31733L11.8219 9.59964L11.8227 9.60373C11.7787 9.64221 11.7459 9.69189 11.7278 9.74749C11.7098 9.8031 11.7071 9.86255 11.7201 9.91955C11.7331 9.97655 11.7613 10.029 11.8017 10.0712C11.8421 10.1135 11.8932 10.144 11.9496 10.1596L11.9513 10.1673L13.807 10.7019C13.8873 9.86813 13.6933 9.031 13.2546 8.31751V8.31733ZM10.5929 8.46101C10.5956 8.51941 10.614 8.576 10.6463 8.62475C10.6786 8.67351 10.7234 8.71262 10.7761 8.73793C10.8288 8.76324 10.8874 8.77381 10.9456 8.76852C11.0038 8.76322 11.0596 8.74226 11.1068 8.70786L11.1125 8.71021L12.6801 7.59869C12.0834 7.0142 11.3112 6.64194 10.4822 6.53915L10.5911 8.46049L10.5929 8.46101ZM8.93272 8.7149C8.98001 8.74928 9.03574 8.77019 9.09397 8.77541C9.1522 8.78063 9.21076 8.76997 9.26341 8.74455C9.31607 8.71914 9.36084 8.67992 9.39297 8.63108C9.42511 8.58223 9.4434 8.52559 9.44589 8.46718L9.45389 8.46344L9.5628 6.53906C9.43133 6.55486 9.30075 6.57737 9.17158 6.60651C8.4844 6.76097 7.85407 7.10445 7.35176 7.59817L8.92968 8.71672L8.93272 8.7149ZM8.09153 10.169C8.14801 10.1536 8.19924 10.1231 8.23977 10.0809C8.2803 10.0386 8.3086 9.98615 8.32164 9.92907C8.33469 9.872 8.33199 9.81246 8.31384 9.7568C8.2957 9.70114 8.26278 9.65145 8.2186 9.61303L8.22017 9.60538L6.77957 8.3169C6.34009 9.03221 6.15145 9.87356 6.24346 10.708L8.09005 10.1752L8.09153 10.169ZM9.49074 10.735L10.0222 10.9905L10.552 10.7355L10.6836 10.1635L10.3169 9.7049H9.72673L9.35897 10.1628L9.49074 10.735Z" fill="#326CE5"/>
<path d="M18.8085 11.861L17.2942 5.28345C17.2535 5.11328 17.1755 4.95428 17.0659 4.8179C16.9562 4.68153 16.8177 4.57119 16.6603 4.49483L10.5307 1.56828C10.3718 1.49247 10.198 1.45313 10.022 1.45312C9.84597 1.45312 9.67217 1.49247 9.51331 1.56828L3.38493 4.4964C3.22746 4.5727 3.0889 4.68301 2.97924 4.81938C2.86959 4.95574 2.79159 5.11475 2.75086 5.28492L1.23899 11.8623C1.2017 12.0286 1.20158 12.201 1.23864 12.3673C1.24956 12.418 1.26382 12.4679 1.28132 12.5167C1.31091 12.5999 1.35008 12.6794 1.39805 12.7536C1.41883 12.7853 1.44073 12.8162 1.46455 12.8461L5.70653 18.1201C5.72504 18.1431 5.74547 18.164 5.76572 18.1853C5.83228 18.2562 5.90744 18.3185 5.98945 18.3707C6.09317 18.436 6.20621 18.4851 6.32469 18.5165C6.42185 18.5431 6.52208 18.5569 6.62282 18.5576H6.6888L13.4253 18.556C13.4663 18.5558 13.5072 18.5534 13.5479 18.5488C13.6063 18.5422 13.6641 18.5312 13.7208 18.516C13.7614 18.5052 13.8015 18.4924 13.8408 18.4775C13.8715 18.4658 13.9021 18.4541 13.9316 18.4399C13.9759 18.4187 14.0188 18.3949 14.0602 18.3685C14.1669 18.3013 14.262 18.2172 14.3416 18.1194L14.4709 17.9586L18.5821 12.8443C18.6609 12.7455 18.7228 12.6344 18.7653 12.5153C18.783 12.4664 18.7976 12.4163 18.8087 12.3655C18.8459 12.1992 18.8458 12.0267 18.8084 11.8605L18.8085 11.861ZM12.4506 14.4192C12.4679 14.4698 12.4883 14.5192 12.5117 14.5672C12.4742 14.6329 12.464 14.7106 12.4833 14.7837C12.5725 14.9879 12.6814 15.183 12.8086 15.366C12.8797 15.4596 12.9454 15.5572 13.0053 15.6584C13.02 15.6858 13.0393 15.7282 13.0533 15.7572C13.0797 15.8013 13.0966 15.8504 13.1029 15.9015C13.1091 15.9525 13.1047 16.0043 13.0897 16.0535C13.0748 16.1027 13.0497 16.1483 13.0161 16.1872C12.9825 16.2261 12.9411 16.2576 12.8946 16.2796C12.8481 16.3015 12.7975 16.3135 12.7461 16.3148C12.6947 16.3161 12.6436 16.3066 12.5961 16.2869C12.5486 16.2672 12.5057 16.2378 12.4702 16.2006C12.4348 16.1633 12.4075 16.1191 12.3901 16.0707C12.3762 16.042 12.3567 16.0037 12.3448 15.9766C12.3029 15.8667 12.2673 15.7544 12.2383 15.6404C12.1747 15.4271 12.0904 15.2205 11.9866 15.0236C11.9414 14.9627 11.8742 14.9219 11.7994 14.91C11.7876 14.8897 11.7442 14.81 11.7209 14.7689C10.6297 15.1821 9.42458 15.179 8.33556 14.7602L8.25255 14.9106C8.19329 14.9198 8.13819 14.9466 8.09445 14.9877C7.96936 15.1929 7.87374 15.4148 7.8104 15.6467C7.78165 15.7607 7.7463 15.873 7.70453 15.9829C7.69279 16.0098 7.67315 16.0476 7.65916 16.0761V16.0769L7.65855 16.0776C7.64124 16.1261 7.61395 16.1704 7.57846 16.2077C7.54297 16.245 7.50005 16.2744 7.45249 16.2941C7.40492 16.3138 7.35375 16.3233 7.30229 16.322C7.25083 16.3207 7.20021 16.3086 7.1537 16.2865C7.10719 16.2645 7.06583 16.2329 7.03228 16.1938C6.99872 16.1548 6.97372 16.1092 6.9589 16.0599C6.94407 16.0106 6.93973 15.9587 6.94618 15.9076C6.95262 15.8566 6.9697 15.8074 6.99631 15.7633C7.01013 15.7342 7.02865 15.6921 7.04325 15.6647C7.10309 15.5632 7.16873 15.4654 7.23986 15.3715C7.36928 15.1836 7.48046 14.9838 7.57189 14.7747C7.58162 14.7038 7.57025 14.6317 7.53921 14.5672L7.60596 14.4073C6.60197 13.8148 5.84951 12.8753 5.49053 11.7661L5.33069 11.7933C5.26867 11.7493 5.19556 11.7236 5.11965 11.719C4.90093 11.7609 4.6868 11.8239 4.48028 11.9072C4.37304 11.9554 4.26314 11.9975 4.15112 12.0332C4.12461 12.0405 4.08636 12.0478 4.05611 12.0544C4.05368 12.0553 4.05159 12.0563 4.04916 12.0569C4.04729 12.0572 4.0454 12.0574 4.04351 12.0575C3.99482 12.0735 3.94332 12.0791 3.89231 12.0741C3.84131 12.0691 3.79191 12.0535 3.74729 12.0282C3.70267 12.003 3.6638 11.9687 3.63319 11.9276C3.60257 11.8865 3.58087 11.8395 3.56948 11.7895C3.5581 11.7395 3.55727 11.6877 3.56705 11.6374C3.57684 11.5871 3.59702 11.5394 3.62631 11.4973C3.6556 11.4553 3.69335 11.4198 3.73714 11.3931C3.78093 11.3665 3.8298 11.3493 3.88063 11.3426L3.88593 11.3413L3.88914 11.3405C3.91983 11.3333 3.95911 11.3231 3.9871 11.3177C4.1038 11.3015 4.22133 11.292 4.33912 11.2894C4.56126 11.2748 4.78146 11.2387 4.99658 11.1814C5.06033 11.1408 5.1142 11.0865 5.15425 11.0223L5.30783 10.9775C5.14117 9.81985 5.40776 8.64143 6.05646 7.66824L5.93886 7.56341C5.93457 7.48733 5.90904 7.41398 5.86515 7.35168C5.6962 7.20645 5.51347 7.07807 5.31957 6.96837C5.21486 6.91497 5.11332 6.85559 5.01544 6.79053C4.99319 6.77393 4.96363 6.74898 4.93947 6.72934L4.93399 6.72552C4.85055 6.66558 4.79423 6.57506 4.77732 6.47372C4.76042 6.37239 4.78431 6.26848 4.84377 6.18471C4.87891 6.1417 4.92368 6.10758 4.97447 6.08511C5.02525 6.06263 5.08062 6.05245 5.13608 6.05537C5.22944 6.05938 5.31906 6.09319 5.39179 6.15185C5.41674 6.17141 5.4509 6.19757 5.47306 6.21661C5.55846 6.29737 5.63914 6.38298 5.7147 6.47302C5.86462 6.63773 6.03026 6.78742 6.20927 6.91995C6.27634 6.95522 6.35457 6.96281 6.42717 6.94107C6.47086 6.97295 6.51496 7.00429 6.55946 7.03512C7.20408 6.34992 8.03879 5.87304 8.95642 5.66572C9.17482 5.61625 9.39643 5.58219 9.61961 5.56376L9.6283 5.4087C9.68528 5.35806 9.72659 5.2922 9.74738 5.21887C9.75538 4.99631 9.7417 4.7735 9.70653 4.55359C9.6832 4.43834 9.66648 4.32186 9.65646 4.2047C9.65551 4.17802 9.65698 4.14116 9.65733 4.11074C9.65733 4.10726 9.65646 4.10379 9.65646 4.10048C9.65125 4.0492 9.65686 3.9974 9.67291 3.94841C9.68896 3.89943 9.71511 3.85436 9.74966 3.8161C9.78421 3.77785 9.82639 3.74726 9.87349 3.72632C9.9206 3.70538 9.97156 3.69455 10.0231 3.69453C10.0747 3.6945 10.1256 3.70529 10.1728 3.72618C10.2199 3.74708 10.2621 3.77762 10.2967 3.81584C10.3313 3.85406 10.3575 3.89911 10.3736 3.94808C10.3896 3.99705 10.3953 4.04885 10.3901 4.10014C10.3901 4.1323 10.3921 4.17489 10.3909 4.20444C10.3809 4.32158 10.3641 4.43804 10.3406 4.55324C10.3052 4.77319 10.2913 4.99605 10.2991 5.21869C10.3136 5.29312 10.3566 5.35893 10.4189 5.40209C10.4202 5.4286 10.4246 5.51709 10.4278 5.56585C11.5874 5.67131 12.6694 6.19411 13.4727 7.03712L13.6123 6.93742C13.6873 6.95029 13.7644 6.94192 13.8348 6.91326C14.0138 6.7805 14.1794 6.63064 14.3294 6.4658C14.4051 6.37572 14.486 6.29011 14.5716 6.20939C14.5941 6.1901 14.6281 6.1642 14.653 6.14455C14.6898 6.10826 14.7338 6.08011 14.7822 6.06193C14.8306 6.04376 14.8823 6.03596 14.9339 6.03905C14.9855 6.04214 15.0359 6.05605 15.0817 6.07986C15.1276 6.10368 15.168 6.13689 15.2002 6.17731C15.2324 6.21774 15.2558 6.26449 15.2688 6.31453C15.2817 6.36457 15.284 6.41678 15.2755 6.46777C15.267 6.51876 15.2479 6.56739 15.2194 6.61051C15.1909 6.65362 15.1536 6.69026 15.11 6.71804C15.0854 6.73795 15.0529 6.76567 15.0293 6.78323C14.9312 6.84834 14.8294 6.90772 14.7244 6.96107C14.5306 7.07083 14.3478 7.19921 14.1788 7.34438C14.1297 7.40198 14.1049 7.47654 14.11 7.55211C14.0896 7.57089 14.0179 7.63443 13.9799 7.66885C14.6304 8.63856 14.9024 9.81335 14.7441 10.9703L14.8922 11.0134C14.9292 11.08 14.984 11.1351 15.0504 11.1725C15.2656 11.2298 15.4859 11.2661 15.7082 11.2808C15.8258 11.2835 15.9433 11.2929 16.0599 11.3089C16.0907 11.3146 16.1353 11.3269 16.1668 11.3341C16.2176 11.3408 16.2665 11.358 16.3102 11.3847C16.354 11.4113 16.3918 11.4468 16.421 11.4889C16.4503 11.531 16.4705 11.5787 16.4802 11.629C16.49 11.6794 16.4891 11.7312 16.4777 11.7811C16.4663 11.8311 16.4446 11.8782 16.4139 11.9193C16.3833 11.9603 16.3444 11.9946 16.2998 12.0198C16.2551 12.045 16.2057 12.0606 16.1547 12.0656C16.1037 12.0706 16.0522 12.0649 16.0035 12.0489L15.9982 12.0482C15.9958 12.0476 15.9935 12.0462 15.991 12.0456C15.9608 12.039 15.9228 12.0324 15.8963 12.0255C15.7843 11.9895 15.6744 11.9471 15.5673 11.8984C15.3606 11.815 15.1462 11.752 14.9273 11.7102C14.8515 11.7078 14.7778 11.7352 14.722 11.7864C14.6698 11.7765 14.6176 11.7674 14.5652 11.759C14.2105 12.8751 13.4579 13.8219 12.4506 14.4192Z" fill="#326CE5"/>
<path d="M19.6078 12.0305L17.9557 4.85446C17.9113 4.66877 17.8262 4.49526 17.7066 4.34645C17.587 4.19765 17.4358 4.07725 17.264 3.99396L10.5769 0.801439C10.4036 0.718714 10.214 0.675781 10.0219 0.675781C9.82986 0.675781 9.64023 0.718714 9.4669 0.801439L2.78042 3.99588C2.60862 4.07909 2.45743 4.1994 2.33777 4.34813C2.21811 4.49686 2.13296 4.6703 2.08846 4.85594L0.439262 12.0324C0.402062 12.1978 0.398237 12.369 0.428012 12.5359C0.457786 12.7029 0.520562 12.8622 0.612665 13.0046C0.63535 13.0393 0.659427 13.0731 0.685503 13.1056L5.31358 18.86C5.43488 19.0081 5.58733 19.1276 5.76008 19.21C5.93284 19.2925 6.12164 19.3358 6.31306 19.3369L13.7348 19.3352C13.9262 19.3341 14.1149 19.2909 14.2877 19.2085C14.4605 19.1262 14.613 19.0068 14.7344 18.8589L19.3608 13.1039C19.4793 12.9547 19.5629 12.7809 19.6057 12.5953C19.6484 12.4096 19.6491 12.2167 19.6078 12.0307V12.0305ZM18.8084 12.3665C18.7973 12.4173 18.7828 12.4673 18.7651 12.5163C18.7226 12.6353 18.6606 12.7465 18.5817 12.8453L14.4706 17.9595L14.3414 18.1204C14.2617 18.2182 14.1666 18.3024 14.0598 18.3695C14.0185 18.3958 13.9758 18.4197 13.9317 18.4409C13.9019 18.4546 13.8717 18.4671 13.8408 18.4783C13.8015 18.4933 13.7613 18.5062 13.7206 18.517C13.6639 18.5323 13.6061 18.5433 13.5477 18.5499C13.507 18.5545 13.4661 18.5569 13.4252 18.557L6.68863 18.5586H6.62257C6.52186 18.558 6.42167 18.5442 6.32453 18.5176C6.2061 18.4862 6.09312 18.437 5.98946 18.3716C5.90739 18.3194 5.83217 18.2572 5.76555 18.1863C5.7453 18.1649 5.72488 18.144 5.70645 18.1211L1.46438 12.847C1.44074 12.8172 1.41858 12.7863 1.39789 12.7543C1.34992 12.6801 1.31075 12.6006 1.28116 12.5174C1.26365 12.4686 1.24939 12.4187 1.23848 12.368C1.20143 12.2017 1.20155 12.0293 1.23883 11.8631L2.75069 5.28549C2.79144 5.11535 2.86946 4.95637 2.97911 4.82004C3.08876 4.68371 3.22731 4.57342 3.38476 4.49714L9.51323 1.56928C9.67209 1.49347 9.84589 1.45412 10.0219 1.45412C10.1979 1.45412 10.3717 1.49347 10.5306 1.56928L16.66 4.49583C16.8175 4.57218 16.956 4.68253 17.0656 4.8189C17.1752 4.95528 17.2532 5.11428 17.2939 5.28445L18.8082 11.8619C18.8455 12.0281 18.8456 12.2005 18.8084 12.3667V12.3665Z" fill="white"/>
<path d="M16.1667 11.3349C16.1354 11.3277 16.0907 11.3154 16.0601 11.3097C15.9435 11.2936 15.8261 11.2841 15.7084 11.2814C15.4861 11.2668 15.2657 11.2307 15.0504 11.1734C14.984 11.136 14.9292 11.0809 14.8922 11.0142L14.7441 10.9711C14.9024 9.81415 14.6306 8.63937 13.9801 7.66963C14.018 7.63521 14.0898 7.57167 14.11 7.55299C14.105 7.47741 14.1297 7.40286 14.1789 7.34525C14.3479 7.20008 14.5306 7.0717 14.7245 6.96194C14.8294 6.90859 14.9312 6.84922 15.0293 6.7841C15.0529 6.76655 15.0853 6.73873 15.11 6.71891C15.1536 6.69114 15.1909 6.65451 15.2194 6.6114C15.2479 6.5683 15.267 6.51968 15.2756 6.4687C15.2841 6.41772 15.2818 6.36553 15.2688 6.3155C15.2558 6.26546 15.2325 6.21872 15.2003 6.17829C15.1681 6.13786 15.1278 6.10465 15.0819 6.08082C15.0361 6.05698 14.9857 6.04305 14.9341 6.03994C14.8825 6.03682 14.8308 6.04459 14.7825 6.06273C14.7341 6.08088 14.69 6.10899 14.6532 6.14525C14.6282 6.16498 14.5941 6.19088 14.5718 6.21018C14.4861 6.29089 14.4052 6.3765 14.3294 6.46659C14.1795 6.63143 14.0138 6.78128 13.8349 6.91405C13.7644 6.9427 13.6873 6.95108 13.6123 6.93821L13.4727 7.03791C12.6695 6.19489 11.5875 5.6721 10.4278 5.56663C10.4244 5.51787 10.4203 5.42956 10.4189 5.40288C10.3567 5.35969 10.3137 5.29388 10.2993 5.21948C10.2915 4.99684 10.3054 4.77398 10.3408 4.55403C10.3642 4.43885 10.3809 4.32242 10.3908 4.20531C10.3919 4.17576 10.3902 4.13282 10.3902 4.10092C10.3953 4.04964 10.3897 3.99784 10.3736 3.94887C10.3575 3.8999 10.3313 3.85485 10.2967 3.81663C10.2621 3.77841 10.2199 3.74787 10.1728 3.72697C10.1257 3.70607 10.0747 3.69529 10.0231 3.69531C9.9716 3.69534 9.92063 3.70617 9.87353 3.72711C9.82643 3.74805 9.78424 3.77864 9.74969 3.81689C9.71514 3.85514 9.689 3.90022 9.67294 3.9492C9.65689 3.99818 9.65129 4.04999 9.6565 4.10127C9.6565 4.10475 9.65728 4.10805 9.65737 4.11153C9.65702 4.14195 9.65554 4.1788 9.6565 4.2054C9.66651 4.32258 9.68323 4.4391 9.70656 4.55438C9.74174 4.77429 9.75542 4.99709 9.74741 5.21965C9.72659 5.29292 9.68528 5.35872 9.62833 5.40931L9.61964 5.56455C9.39647 5.58297 9.17486 5.61704 8.95645 5.6665C8.03893 5.87385 7.20431 6.3507 6.55976 7.03582C6.51514 7.00505 6.47092 6.9737 6.42712 6.94177C6.35454 6.96348 6.27635 6.9559 6.2093 6.92065C6.0303 6.78815 5.86466 6.63849 5.71473 6.4738C5.63926 6.38378 5.55866 6.29817 5.47336 6.21739C5.45102 6.19827 5.41686 6.1722 5.39183 6.1522C5.31909 6.09354 5.22947 6.05973 5.13611 6.05573C5.08064 6.05282 5.02526 6.06303 4.97448 6.08554C4.92369 6.10804 4.87892 6.14219 4.84381 6.18523C4.78434 6.26901 4.76045 6.37292 4.77736 6.47425C4.79426 6.57558 4.85059 6.66611 4.93403 6.72604L4.93968 6.73004C4.96367 6.74968 4.99322 6.7748 5.01547 6.79106C5.11335 6.85618 5.21489 6.91561 5.3196 6.96907C5.51348 7.07883 5.69619 7.20727 5.8651 7.35255C5.90898 7.4148 5.93454 7.48808 5.93889 7.56411L6.05632 7.66911C5.40768 8.64232 5.14115 9.82074 5.30786 10.9784L5.15428 11.023C5.1142 11.0871 5.06033 11.1413 4.99661 11.1818C4.78147 11.2393 4.56125 11.2756 4.33907 11.2902C4.22131 11.2929 4.1038 11.3024 3.98713 11.3186C3.95897 11.3238 3.91986 11.3337 3.88918 11.3413L3.88596 11.342L3.88075 11.3436C3.82994 11.3503 3.78108 11.3675 3.7373 11.3941C3.69353 11.4208 3.65579 11.4563 3.62652 11.4983C3.59725 11.5404 3.57708 11.5881 3.56731 11.6384C3.55753 11.6887 3.55837 11.7405 3.56976 11.7905C3.58115 11.8405 3.60285 11.8875 3.63346 11.9286C3.66408 11.9697 3.70293 12.0039 3.74755 12.0292C3.79216 12.0544 3.84154 12.07 3.89254 12.0751C3.94354 12.0801 3.99503 12.0744 4.04372 12.0584L4.04919 12.0576C4.05163 12.057 4.05371 12.0558 4.05615 12.0554C4.0864 12.0484 4.12447 12.0412 4.15106 12.034C4.26306 11.9982 4.37293 11.9561 4.48014 11.9079C4.68672 11.8246 4.90091 11.7615 5.11969 11.7197C5.19555 11.7243 5.2686 11.7501 5.33055 11.7942L5.49048 11.7668C5.8495 12.876 6.60202 13.8155 7.60608 14.408L7.53924 14.5679C7.57031 14.6324 7.58171 14.7045 7.57201 14.7754C7.48058 14.9844 7.36939 15.1842 7.23998 15.372C7.16883 15.4659 7.10315 15.5637 7.04328 15.6651C7.02868 15.6928 7.01017 15.7351 6.99617 15.764C6.9697 15.8081 6.95274 15.8572 6.94639 15.9082C6.94004 15.9593 6.94444 16.011 6.95931 16.0603C6.97418 16.1095 6.99918 16.155 7.03272 16.194C7.06625 16.233 7.10758 16.2645 7.15402 16.2865C7.20047 16.3086 7.25102 16.3206 7.30242 16.322C7.35381 16.3233 7.40492 16.3139 7.45244 16.2942C7.49997 16.2746 7.54286 16.2453 7.57836 16.2081C7.61387 16.1709 7.64119 16.1267 7.65858 16.0783L7.65919 16.0776V16.0768C7.6731 16.0481 7.69283 16.0104 7.70456 15.9836C7.74634 15.8737 7.78169 15.7614 7.81043 15.6474C7.87377 15.4155 7.96939 15.1936 8.09448 14.9884C8.13822 14.9473 8.19332 14.9204 8.25258 14.9112L8.33577 14.7608C9.42475 15.1796 10.6298 15.1826 11.7209 14.7694C11.7442 14.811 11.7877 14.8904 11.7991 14.9105C11.8741 14.9225 11.9413 14.9633 11.9864 15.0243C12.0903 15.2212 12.1747 15.4278 12.2383 15.6411C12.2673 15.7551 12.3029 15.8674 12.3448 15.9773C12.3567 16.0044 12.3761 16.0425 12.3902 16.0714C12.4075 16.1198 12.4348 16.164 12.4703 16.2013C12.5057 16.2385 12.5486 16.2679 12.5961 16.2876C12.6436 16.3073 12.6947 16.3168 12.7462 16.3155C12.7976 16.3143 12.8481 16.3022 12.8946 16.2803C12.9411 16.2583 12.9825 16.2268 13.0161 16.1879C13.0497 16.149 13.0748 16.1034 13.0897 16.0542C13.1047 16.005 13.1092 15.9532 13.1029 15.9022C13.0966 15.8512 13.0798 15.802 13.0534 15.7579C13.0394 15.7289 13.0201 15.6866 13.0056 15.6591C12.9457 15.5579 12.88 15.4603 12.8089 15.3667C12.6817 15.1837 12.5728 14.9886 12.4836 14.7844C12.4642 14.7113 12.4744 14.6336 12.5118 14.5679C12.4883 14.5199 12.4679 14.4705 12.4507 14.4199C13.458 13.8226 14.2105 12.8758 14.5652 11.7598C14.6127 11.7673 14.6953 11.7818 14.7222 11.7872C14.778 11.736 14.8516 11.7087 14.9273 11.711C15.1462 11.7528 15.3604 11.8158 15.5671 11.8992C15.6743 11.9479 15.7842 11.9903 15.8963 12.0263C15.9228 12.0332 15.9606 12.0398 15.991 12.0465C15.9936 12.0472 15.9958 12.0483 15.9983 12.0489L16.0035 12.0497C16.0521 12.0657 16.1036 12.0713 16.1546 12.0663C16.2056 12.0612 16.2549 12.0456 16.2995 12.0204C16.3441 11.9952 16.3829 11.961 16.4135 11.9199C16.4441 11.8788 16.4658 11.8318 16.4772 11.7819C16.4886 11.7319 16.4895 11.6802 16.4798 11.6299C16.47 11.5796 16.4499 11.5319 16.4207 11.4898C16.3914 11.4478 16.3538 11.4123 16.31 11.3856C16.2663 11.3589 16.2175 11.3416 16.1667 11.3349ZM12.6813 7.59853L11.1135 8.70996L11.108 8.70735C11.0608 8.74181 11.0051 8.76283 10.9469 8.76816C10.8886 8.77349 10.83 8.76295 10.7773 8.73765C10.7246 8.71234 10.6797 8.67323 10.6475 8.62446C10.6152 8.57569 10.5968 8.51909 10.5941 8.46068L10.5923 8.45981L10.4834 6.53865C11.3124 6.64157 12.0845 7.01396 12.6812 7.59853H12.6813ZM9.72794 9.7044H10.3179L10.6847 10.163L10.5532 10.7349L10.0234 10.9899L9.49196 10.7344L9.36019 10.1622L9.72794 9.7044ZM9.17288 6.60592C9.30211 6.57683 9.43275 6.55438 9.56427 6.53865L9.45519 8.46277L9.4472 8.46659C9.44473 8.52502 9.42646 8.58168 9.39434 8.63055C9.36222 8.67941 9.31745 8.71866 9.26479 8.74409C9.21213 8.76953 9.15356 8.78021 9.09532 8.77499C9.03707 8.76978 8.98133 8.74887 8.93403 8.71448L8.93098 8.71622L7.35306 7.5974C7.8554 7.10375 8.48572 6.76033 9.17288 6.60592ZM6.78088 8.31648L8.22147 9.60496L8.2199 9.61279C8.26406 9.65121 8.29696 9.70089 8.31509 9.75654C8.33322 9.81219 8.33591 9.87172 8.32286 9.92877C8.30982 9.98583 8.28153 10.0383 8.24102 10.0805C8.20051 10.1228 8.14929 10.1532 8.09283 10.1686L8.09135 10.1749L6.24476 10.7077C6.15275 9.87323 6.34139 9.03179 6.78088 8.31648ZM8.70969 11.7393L7.97601 13.5122C7.2718 13.0614 6.73603 12.3909 6.4518 11.6045L8.34515 11.2829L8.34837 11.2872C8.36928 11.2832 8.39053 11.2813 8.41182 11.2815C8.46491 11.2823 8.517 11.2962 8.56347 11.3219C8.60994 11.3476 8.64937 11.3843 8.67827 11.4289C8.70717 11.4734 8.72466 11.5244 8.72918 11.5773C8.73371 11.6302 8.72513 11.6834 8.70421 11.7322L8.70969 11.7393ZM10.8754 14.0192C10.1889 14.1767 9.47213 14.1399 8.80539 13.9129L9.73655 12.2291H9.73811C9.7658 12.1777 9.80689 12.1347 9.85703 12.1047C9.90718 12.0747 9.9645 12.0589 10.0229 12.0588C10.0813 12.0587 10.1387 12.0745 10.1889 12.1044C10.2391 12.1343 10.2803 12.1772 10.308 12.2286H10.315L11.2485 13.9152C11.1273 13.9556 11.003 13.9904 10.8754 14.0194V14.0192ZM12.0784 13.5194L11.3372 11.7284L11.3394 11.7252C11.3065 11.6486 11.3045 11.5622 11.3337 11.4841C11.3629 11.406 11.4211 11.3422 11.4961 11.306C11.5348 11.287 11.577 11.2761 11.62 11.2738C11.6449 11.2727 11.6698 11.2745 11.6943 11.2793L11.6975 11.2753L13.6077 11.5981C13.3258 12.3908 12.7876 13.0668 12.0784 13.5194ZM13.8083 10.7014L11.9525 10.1669L11.9507 10.1591C11.8944 10.1435 11.8433 10.113 11.8029 10.0707C11.7625 10.0285 11.7343 9.97604 11.7213 9.91905C11.7082 9.86205 11.7109 9.80259 11.729 9.74699C11.747 9.69138 11.7798 9.64171 11.8238 9.60323L11.8231 9.59949L13.2557 8.31735C13.6944 9.03079 13.8884 9.86785 13.8083 10.7015L13.8083 10.7014Z" fill="white"/>
</g>
<defs>
<clipPath id="clip0_21248_29974">
<rect width="20" height="19.4133" fill="white" transform="translate(0 0.292969)"/>
</clipPath>
</defs>
</svg>
