<?xml version="1.0" encoding="UTF-8"?> <svg xmlns="http://www.w3.org/2000/svg" width="130" height="28" viewBox="0 0 160 32" fill="var(--icon-color, #000)"><g id="Group 10531"><g id="Group 10530"><g id="Union"><path d="M116.483 9.0188C117.64 7.53831 119.41 6.75714 121.642 6.75714C125.771 6.75714 128.438 9.61398 128.438 14.0331V24.7909H124.354V14.4126C124.354 11.9872 123.011 10.596 120.675 10.596C118.012 10.596 116.483 12.3369 116.483 15.376V24.7909H112.398V0.314392H116.483V9.0188Z"></path><path d="M106.9 24.7909V11.1503H110.62V7.20353H106.9V1.9474L102.816 3.15635V7.20353H99.0963V11.1503H102.816V24.7909H106.9Z"></path><path fill-rule="evenodd" clip-rule="evenodd" d="M49.7545 6.75714C47.3226 6.75761 45.3108 7.64662 43.9088 9.33498V7.20352H39.8245V31.68H43.9088V22.6855C45.3187 24.3557 47.3311 25.2373 49.7564 25.2373C52.1817 25.2373 54.2835 24.2924 55.9313 22.5776C57.5978 20.8441 58.5129 18.5081 58.5129 15.9972C58.5129 10.9017 54.5857 6.75815 49.7545 6.75714ZM49.1724 10.6667C52.2227 10.6667 54.436 12.9097 54.436 15.9972C54.436 19.0847 52.2227 21.3277 49.1724 21.3277C46.1221 21.3277 43.9088 19.0847 43.9088 15.9972C43.9088 12.9097 46.1221 10.6667 49.1724 10.6667Z"></path><path fill-rule="evenodd" clip-rule="evenodd" d="M74.4748 9.30894C73.065 7.63874 71.0526 6.75714 68.6272 6.75714C66.2019 6.75714 64.1002 7.70197 62.4523 9.41682C60.7858 11.1503 59.8707 13.4863 59.8707 15.9972C59.8707 21.0934 63.7989 25.2373 68.6309 25.2373C71.0637 25.2373 73.0762 24.3482 74.4785 22.6594V24.7909H78.5629V7.20352H74.4785V9.30522L74.4748 9.30894ZM69.2112 21.3314C66.161 21.3314 63.9477 19.0884 63.9477 16.0009C63.9477 12.9135 66.161 10.6704 69.2112 10.6704C72.2615 10.6704 74.4748 12.9135 74.4748 16.0009C74.4748 19.0884 72.2615 21.3314 69.2112 21.3314Z"></path><path d="M85.7495 9.0188C86.9063 7.5383 88.677 6.75714 90.9089 6.75714C95.0379 6.75714 97.705 9.61397 97.705 14.0331V24.7909H93.6206V14.4126C93.6206 11.9872 92.2778 10.596 89.9417 10.596C87.2783 10.596 85.7495 12.3369 85.7495 15.376V24.7909H81.6651V7.20352H85.7495V9.0188Z"></path><path fill-rule="evenodd" clip-rule="evenodd" d="M139.695 6.7572C134.319 6.7572 130.417 10.6444 130.417 15.9973C130.417 21.3501 134.346 25.2373 139.97 25.2373C143.258 25.2373 145.992 23.8759 147.663 21.4022L147.77 21.2422L144.393 19.267L144.296 19.4046C143.4 20.7103 141.834 21.4617 140 21.4617C137.28 21.4617 135.32 20.0816 134.717 17.7605H148.354L148.377 17.6042C148.447 17.1207 148.518 16.5552 148.518 16.027C148.518 10.7374 144.724 6.74976 139.691 6.74976L139.695 6.7572ZM139.661 10.4956C141.566 10.4956 143.775 11.5186 144.367 14.3717H134.684C135.257 11.9389 137.102 10.4956 139.661 10.4956Z"></path><path d="M154.462 9.53343V7.20353H150.378V24.7909H154.462V15.9303C154.462 14.4274 154.901 13.252 155.772 12.4448C156.676 11.6041 158.059 11.1837 159.573 11.2879L159.767 11.3028V6.8985H159.585C157.285 6.8985 155.497 7.82623 154.462 9.53343Z"></path></g><path id="Vector" d="M34.3022 5.37709L31.5123 10.5402C31.4528 10.6481 31.4305 10.7708 31.4491 10.8936L32.4646 18.4895C32.5129 18.8466 32.3567 19.2037 32.0591 19.4083L26.2785 23.448C26.1892 23.5113 26.1222 23.5931 26.0776 23.6935L23.2394 30.2665C23.0794 30.6348 22.7409 30.8951 22.3429 30.9547L17.4476 31.6689C17.2988 31.6912 17.15 31.6912 17.0012 31.6689L12.1059 30.9547C11.7079 30.8951 11.3694 30.6348 11.2094 30.2665L8.3712 23.6935C8.33028 23.5931 8.25961 23.5113 8.17033 23.448L2.38971 19.412C2.09212 19.2037 1.93589 18.8503 1.98425 18.4932L2.99976 10.8973C3.01464 10.7746 2.99232 10.6518 2.93652 10.5439L0.139209 5.37709C0.0387738 5.18737 -0.00958401 4.97162 0.00157549 4.75587L0.13549 2.49421C0.161528 2.07759 0.403317 1.70933 0.779021 1.52334L2.37111 0.734733C2.82121 0.511543 3.35687 0.537582 3.78465 0.80541L7.35941 3.04103C7.50076 3.13031 7.67559 3.15263 7.83555 3.10427L16.7706 0.381349C17.0645 0.292073 17.3769 0.292073 17.6708 0.381349L26.6058 3.10427C26.7658 3.15263 26.9406 3.13031 27.082 3.04103L30.6567 0.80541C31.0845 0.537582 31.6202 0.511543 32.0703 0.734733L33.6586 1.52334C34.0306 1.70933 34.2761 2.07759 34.3022 2.49421L34.4361 4.75587C34.4472 4.97162 34.4026 5.18737 34.2984 5.37709H34.3022Z"></path></g></g></svg>
