<svg width="86" height="28" viewBox="0 0 108 35" fill="none" xmlns="http://www.w3.org/2000/svg">
<path fill="var(--icon-color, black)" d="M11.473 21.3165C11.473 22.0305 11.3225 22.692 11.018 23.2975C10.717 23.903 10.2935 24.4175 9.7545 24.8375C9.2155 25.261 8.5715 25.59 7.826 25.828C7.0805 26.066 6.265 26.185 5.3795 26.185C4.319 26.185 3.3705 26.0415 2.527 25.751C1.6835 25.4605 0.8435 24.981 0 24.3125L1.393 22.048C2.0615 22.608 2.667 23.021 3.206 23.28C3.745 23.539 4.298 23.6685 4.858 23.6685C5.5475 23.6685 6.104 23.49 6.5275 23.133C6.9475 22.776 7.161 22.2965 7.161 21.691C7.161 21.432 7.1225 21.187 7.049 20.9595C6.972 20.732 6.832 20.501 6.629 20.263C6.426 20.025 6.146 19.766 5.789 19.486C5.432 19.206 4.9735 18.8595 4.4135 18.4465C3.983 18.142 3.563 17.8305 3.15 17.505C2.7405 17.1795 2.366 16.833 2.0335 16.4655C1.701 16.098 1.428 15.6885 1.225 15.2335C1.0185 14.7785 0.917 14.2605 0.917 13.676C0.917 13.0075 1.057 12.395 1.337 11.842C1.617 11.2925 1.9985 10.82 2.485 10.4315C2.968 10.043 3.5525 9.7385 4.2315 9.525C4.9105 9.308 5.649 9.1995 6.4435 9.1995C7.2835 9.1995 8.099 9.3115 8.89 9.539C9.6775 9.763 10.4055 10.092 11.0775 10.5225L9.814 12.556C8.9495 11.9505 8.043 11.6495 7.091 11.6495C6.51 11.6495 6.027 11.8 5.649 12.1045C5.271 12.409 5.082 12.7835 5.082 13.2385C5.082 13.6935 5.25 14.061 5.5825 14.4075C5.915 14.754 6.4925 15.2405 7.3115 15.867C8.134 16.4725 8.82 17.0045 9.3625 17.456C9.905 17.911 10.332 18.338 10.647 18.737C10.962 19.136 11.179 19.5455 11.298 19.955C11.417 20.3645 11.4765 20.8195 11.4765 21.3165M25.8055 17.5015C25.8055 18.128 25.739 18.807 25.6095 19.5315C25.48 20.256 25.256 20.928 24.941 21.544C24.626 22.16 24.213 22.6675 23.702 23.07C23.191 23.469 22.5435 23.6685 21.7595 23.6685C20.454 23.6685 19.425 23.1505 18.676 22.111C17.927 21.0715 17.549 19.647 17.549 17.827C17.549 16.007 17.9305 14.4915 18.69 13.3995C19.4495 12.3075 20.4855 11.7615 21.791 11.7615C23.0965 11.7615 24.01 12.276 24.7275 13.3015C25.445 14.3305 25.8055 15.7305 25.8055 17.5015ZM30.3345 17.337C30.3345 16.126 30.1595 15.027 29.8165 14.033C29.47 13.039 28.9765 12.185 28.3395 11.471C27.699 10.757 26.943 10.2005 26.068 9.8015C25.193 9.4025 24.2235 9.203 23.163 9.203C21.994 9.203 20.965 9.4235 20.0795 9.868C19.194 10.3125 18.3715 11.009 17.612 11.9575L17.591 9.5915H13.426V33.8955H17.591V23.623C18.004 24.099 18.3995 24.498 18.7775 24.8235C19.1555 25.149 19.5405 25.415 19.9325 25.618C20.3245 25.821 20.734 25.968 21.168 26.0555C21.602 26.143 22.0675 26.185 22.568 26.185C23.674 26.185 24.703 25.9645 25.6585 25.5235C26.614 25.079 27.4365 24.4595 28.1295 23.658C28.8225 22.86 29.365 21.9255 29.757 20.8545C30.149 19.7835 30.3415 18.611 30.3415 17.337M32.186 25.786H36.4595V2H32.186V25.7825V25.786ZM54.7155 25.793V9.567H50.442V18.2995C50.442 19.08 50.4105 19.6785 50.344 20.102C50.2775 20.5255 50.169 20.907 50.0185 21.2535C49.413 22.594 48.3035 23.266 46.697 23.266C45.437 23.266 44.5585 22.811 44.058 21.901C43.862 21.5545 43.7255 21.166 43.652 20.732C43.575 20.298 43.5365 19.6715 43.5365 18.849V9.567H39.263V18.786C39.263 19.4125 39.27 19.9445 39.2805 20.3785C39.291 20.8125 39.319 21.194 39.361 21.53C39.403 21.866 39.452 22.1635 39.508 22.4225C39.5605 22.6815 39.641 22.93 39.753 23.168C40.1415 24.162 40.775 24.9145 41.65 25.4255C42.5285 25.933 43.603 26.185 44.8805 26.185C46.0285 26.185 47.033 25.9855 47.901 25.5865C48.7655 25.1875 49.609 24.5295 50.4315 23.623L50.442 25.793H54.7155ZM73.1535 25.786V16.588C73.1535 15.9615 73.1465 15.426 73.136 14.985C73.1255 14.544 73.0975 14.159 73.0555 13.8335C73.0135 13.5115 72.9575 13.2245 72.8945 12.976C72.8315 12.7275 72.7545 12.486 72.667 12.248C72.2785 11.275 71.645 10.526 70.7665 9.9975C69.888 9.469 68.8135 9.203 67.536 9.203C66.388 9.203 65.3835 9.4025 64.5155 9.805C63.6475 10.204 62.8075 10.862 61.9815 11.7685L61.9745 9.5985H57.6625V25.7895H61.9745V17.0465C61.9745 16.2905 62.0025 15.7025 62.055 15.2825C62.111 14.8625 62.2125 14.467 62.3665 14.0995C62.6465 13.452 63.077 12.962 63.651 12.626C64.225 12.29 64.9145 12.1255 65.7195 12.1255C66.9795 12.1255 67.858 12.5805 68.3585 13.4835C68.551 13.83 68.6875 14.2185 68.7645 14.649C68.8415 15.0795 68.88 15.706 68.88 16.525V25.786H73.1535ZM90.853 24.7185L84.3395 16.6195L89.8485 10.722L86.6075 9.329L80.8745 15.972H80.4195V2.007H76.1075V25.7895H80.4195V17.169L86.8665 26.1115L90.853 24.7185ZM107.513 18.905V16.252L94.5525 9.749V12.661L104.598 17.547L94.5525 22.4995V25.3485L107.513 18.9085V18.905Z"/>
</svg>