<svg fill="none" height="24" viewBox="0 0 24 24" width="24" xmlns="http://www.w3.org/2000/svg" xmlns:xlink="http://www.w3.org/1999/xlink"><linearGradient id="a"><stop offset="0" stop-color="#0052cc"/><stop offset=".9182" stop-color="#2380fb"/><stop offset="1" stop-color="#2684ff"/></linearGradient><linearGradient id="b" gradientUnits="userSpaceOnUse" x1="20.992" x2="8.49356" xlink:href="#a" y1="22.3893" y2="15.212"/><linearGradient id="c" gradientUnits="userSpaceOnUse" x1="3.00783" x2="15.5065" xlink:href="#a" y1=".769356" y2="7.94667"/><path d="m2.72727 16.6305c-.21142.3325-.45306.7254-.63429 1.0277-.18122.3022-.09061.6951.21143.8765l4.13796 2.5387c.30204.1814.69468.0907.87593-.2115.151-.272.36241-.6347.60408-1.0276 1.63099-2.69 3.29222-2.3877 6.25222-.9672l4.1078 1.9343c.3322.1512.6947 0 .8457-.3022l1.9633-4.4429c.151-.3022 0-.6951-.3021-.8463-.8759-.3929-2.5976-1.2089-4.1077-1.9645-5.5878-2.6899-10.32984-2.5086-13.95433 3.385z" fill="url(#b)"/><path d="m21.2727 6.53596c.2115-.33246.4531-.72537.6343-1.02761s.0906-.69515-.2114-.87649l-4.138-2.53882c-.3021-.18134-.6947-.09066-.8759.21157-.151.27202-.3625.63471-.6041 1.02762-1.6311 2.68992-3.2922 2.38769-6.25227.96716l-4.10774-1.93433c-.33225-.15112-.69469 0-.84571.30224l-1.96327 4.44288c-.15102.30225 0 .69517.30204.84634.87592.39292 2.59756 1.20892 4.10778 1.9645 5.58767 2.65978 10.32977 2.50858 13.95427-3.38506z" fill="url(#c)"/></svg>