<svg fill="none" height="24" viewBox="0 0 24 24" width="24" xmlns="http://www.w3.org/2000/svg"><path d="m21.68 12.2292c0-.715-.0642-1.4025-.1833-2.0625h-9.4967v3.905h5.4267c-.2384 1.2559-.9534 2.3192-2.0259 3.0342v2.5392h3.2725c1.9067-1.76 3.0067-4.345 3.0067-7.4159z" fill="#4285f4"/><path d="m12 22.0834c2.7225 0 5.005-.8984 6.6734-2.4384l-3.2725-2.5391c-.8984.605-2.0442.9716-3.4009.9716-2.62165 0-4.84915-1.7691-5.64665-4.1525h-3.355v2.6034c1.65917 3.2908 5.06 5.555 9.00165 5.555z" fill="#34a853"/><path d="m6.35335 13.916c-.20166-.605-.32083-1.2467-.32083-1.9159 0-.6691.11917-1.3108.32083-1.9158v-2.60334h-3.355c-.6875 1.35666-1.08166 2.88754-1.08166 4.51914 0 1.6317.39416 3.1625 1.08166 4.5192l2.6125-2.035z" fill="#fbbc05"/><path d="m12 5.93175c1.485 0 2.805.51333 3.8592 1.50333l2.8875-2.8875c-1.7508-1.63167-4.0242-2.63083-6.7467-2.63083-3.94165 0-7.34248 2.26416-9.00165 5.56416l3.355 2.60329c.7975-2.38329 3.025-4.15245 5.64665-4.15245z" fill="#ea4335"/></svg>