<svg fill="none" height="24" viewBox="0 0 24 24" width="24" xmlns="http://www.w3.org/2000/svg" xmlns:xlink="http://www.w3.org/1999/xlink"><linearGradient id="a"><stop offset=".176" stop-color="#0052cc"/><stop offset="1" stop-color="#2684ff"/></linearGradient><linearGradient id="b" gradientUnits="userSpaceOnUse" x1="11.4857" x2="7.36042" xlink:href="#a" y1="6.04906" y2="10.0478"/><linearGradient id="c" gradientUnits="userSpaceOnUse" x1="12.5445" x2="16.6616" xlink:href="#a" y1="17.9052" y2="13.9144"/><path d="m21.1433 11.4459-8.3377-8.60157-.8184-.84433-6.26607 6.46436-2.86448 2.98154c-.30691.3166-.30691.818 0 1.1082l5.72896 5.9103 3.40159 3.5092 6.2661-6.4644.1022-.1055 2.7878-2.8496c.307-.3166.307-.818 0-1.1082zm-9.1561 3.5092-2.86449-2.9551 2.86449-2.95514 2.8645 2.95514z" fill="#2684ff"/><path d="m11.9872 9.04506c-1.867-1.92611-1.8926-5.06595-.0256-7.01845l-6.24047 6.46438 3.40158 3.50921z" fill="url(#b)"/><path d="m14.8773 11.9739-2.8901 2.9815c1.8926 1.9525 1.8926 5.0923 0 7.0449l6.2916-6.4908z" fill="url(#c)"/></svg>