<svg fill="none" height="24" viewBox="0 0 24 24" width="24" xmlns="http://www.w3.org/2000/svg"><path d="m2.24502 14.3046c-.0445-.1897.1815-.3092.31928-.1714l7.30251 7.3025c.13779.1378.0183.3638-.1714.3193-3.68515-.8645-6.58591-3.7652-7.45039-7.4504zm-.2447-2.9267c-.00353.0566.01777.1119.05791.1521l10.41177 10.4118c.0402.0401.0955.0615.1522.0579.4738-.0295.9387-.092 1.3924-.1852.1529-.0314.2061-.2192.0957-.3296l-11.59517-11.59517c-.11037-.11038-.29823-.05726-.32964.09564-.09318.45373-.15566.91863-.18517 1.39253zm.84181-3.4368c-.0333.07476-.01634.16212.04153.22l12.95524 12.9553c.0579.0578.1453.0748.22.0415.3572-.1591.7034-.3385 1.0371-.5368.1104-.0656.1275-.2174.0367-.3082l-13.44562-13.44554c-.09082-.09082-.24255-.07378-.30815.03664-.19827.33368-.37769.67988-.5368 1.0371zm1.68956-2.32629c-.07402-.07402-.0786-.19274-.00886-.27082 1.83303-2.05212 4.49942-3.34399 7.46757-3.34399 5.5281 0 10.0096 4.48148 10.0096 10.0097 0 2.9681-1.2918 5.6345-3.344 7.4675-.078.0697-.1968.0651-.2708-.0089z" fill="#222326"/></svg>