<svg fill="none" height="24" viewBox="0 0 24 24" width="24" xmlns="http://www.w3.org/2000/svg"><path clip-rule="evenodd" d="m21.1672 10.6638-2.3166 1.3334 2.3166 1.3298c.2099.1184.3792.2972.4861.5131s.1463.4591.113.6977c-.0313.239-.1333.4632-.293.6437-.1596.1806-.3696.3093-.603.3697-.3115.083-.6432.0396-.9227-.1209l-4.1479-2.3824c-.1916-.108-.3498-.2667-.4573-.4586-.1076-.1919-.1603-.4096-.1525-.6295.0069-.2071.0663-.4091.1727-.587.1063-.1779.2562-.3258.4354-.4299l4.146-2.38239c.1389-.08027.2922-.13235.4512-.15328.1591-.02092.3207-.01027.4756.03135s.3001.11338.4272.21118c.1271.09781.2337.21972.3137.35878.0806.13772.1331.29009.1544.44825.0213.15817.011.31899-.0304.47314-.0413.15417-.1129.29857-.2105.42477-.0976.1263-.2193.232-.358.3108zm-2.1939 6.4608-4.1443-2.3788c-.2138-.1248-.4609-.1807-.7076-.16-.3056.021-.5917.1577-.8001.3822-.2091.2254-.3259.5211-.3271.8285v4.7648c0 .672.5441 1.2143 1.2197 1.2143s1.2196-.544 1.2196-1.2143v-2.6668l2.3219 1.3334c.1384.0873.2929.1458.4544.1719.1615.0262.3266.0196.4854-.0196.1589-.0391.3082-.1099.4391-.2081.1308-.0981.2405-.2217.3225-.3633s.1345-.2982.1545-.4606c.0201-.1623.0071-.3271-.038-.4843-.0452-.1573-.1216-.3038-.2247-.4308s-.2307-.2319-.3753-.3085zm-4.7826-4.6598-1.7245 1.7121c-.0588.0545-.135.0866-.2151.0907h-.5067c-.0801-.0045-.1561-.0365-.2152-.0907l-1.72453-1.7121c-.05341-.0587-.08482-.1341-.08889-.2134v-.5049c.00384-.0804.03523-.157.08889-.2169l1.72283-1.7139c.0593-.05353.1353-.08494.2151-.08889h.5085c.08.00356.1564.03556.2151.08889l1.7245 1.7139c.0533.0602.0847.1366.0889.2169v.5031c-.0045.0792-.0358.1562-.0889.2152zm-1.3778-.4765c-.0061-.08-.0386-.1557-.0925-.2151l-.4978-.4961c-.0599-.0536-.1365-.085-.2169-.0889h-.0195c-.0792.0044-.1545.0358-.2134.0889l-.4996.4961c-.0529.0597-.0842.1354-.0889.2151v.0195c0 .0712.0391.1654.0889.2134l.4978.4978c.0498.048.1458.0889.2152.0889h.0195c.0803-.0043.1567-.0356.2169-.0889l.4978-.4978c.0544-.0584.087-.1338.0925-.2134v-.0177zm-7.79254-5.12035 4.14783 2.38238c.22223.12801.46936.17779.7076.15824.30551-.0215.59141-.15811.80001-.38225.2101-.22561.3275-.52202.329-.83028v-4.76475c-.0015-.32238-.1306-.63105-.3593-.85834-.2286-.22729-.538-.35466-.86038-.35419-.16-.0007-.31856.03018-.4666.09087-.14805.06068-.28266.14999-.39612.26279-.11347.11281-.20356.2469-.26511.39458-.06155.14769-.09335.30607-.09359.46606v2.66685l-2.32193-1.33876c-.24407-.14038-.52919-.192-.80699-.14608-.27779.04592-.53114.18654-.71706.39799-.18591.21146-.29294.48073-.30291.76212-.00997.28138.07772.55755.24819.78164.09779.12446.22046.23113.35914.30758zm9.10284 2.54062c.2461.01999.4924-.03585.7058-.16001l4.1443-2.38238c.1388-.07845.2607-.18379.3584-.30986.0976-.12608.1692-.27036.2105-.42441.0624-.2328.0543-.47887-.0233-.70706s-.2211-.42823-.4124-.57481-.4218-.2331-.6623-.2486c-.2405-.01551-.4802.04069-.6888.16149l-2.3219 1.3352v-2.66684c-.0005-.1597-.0324-.31774-.0939-.46511-.0616-.14736-.1516-.28116-.2648-.39375-.1133-.1126-.2476-.20178-.3953-.26246s-.3059-.09168-.4656-.09121c-.1599-.00047-.3183.03058-.4661.09138-.1478.06079-.2822.15013-.3955.26292-.1133.11278-.2032.24678-.2647.39435-.0614.14757-.0932.30581-.0934.46565v4.76298c.0001.3069.1164.60238.3256.827.2091.22462.4955.36173.8016.38375zm-4.24919 5.17723c-.24612-.0203-.49253.0355-.70582.16l-4.14783 2.3788c-.20953.1187-.37863.2976-.48544.5134-.10682.2159-.14643.4588-.11371.6974.02602.1988.10082.3882.21773.5511.11691.163.27231.2945.45235.3828.18004.0884.37914.1308.57956.1236s.39594-.0639.56915-.165l2.3237-1.3334v2.6668c0 .3235.1285.6337.35723.8624.22872.2287.53894.3572.86241.3572.32346 0 .63366-.1285.86246-.3572.2287-.2287.3572-.5389.3572-.8624v-4.7648c-.0006-.308-.1174-.6045-.3272-.8302-.2086-.224-.4947-.36-.80001-.3805zm-1.12185-2.233c.05027-.1634.06564-.3355.04512-.5052s-.07648-.3331-.16424-.4798c-.10678-.1774-.25739-.3243-.43736-.4267l-4.14427-2.37881c-.27999-.16137-.61252-.20519-.92476-.12189-.31224.08331-.57874.28697-.74113.56636-.08061.13797-.13303.29056-.15421.44894-.02119.15837-.01073.31938.03078.47368.04152.15432.11325.29882.21104.42522.09779.1263.21969.232.35864.3109l2.31482 1.3335-2.31659 1.328c-.21004.1182-.37957.297-.48645.5129-.10689.216-.14616.4592-.1127.6979.03144.2391.1335.4635.29311.6443.15962.1809.36955.31.60294.3709.31202.0837.64451.0402.92451-.1209l4.14249-2.3824c.26802-.1515.46733-.4005.55648-.6952z" fill="#4e9cd7" fill-rule="evenodd"/></svg>