<svg fill="none" height="24" viewBox="0 0 24 24" width="24" xmlns="http://www.w3.org/2000/svg"><rect fill="#635bff" height="20" rx="2.5" width="20" x="2" y="2"/><path d="m12.2935 8.76779c-.7588 0-1.2169.21645-1.2169.77922 0 1.61619 5.4545.85139 5.4688 5.15149 0 2.583-2.0472 4.0693-5.025 4.0693-1.2312 0-2.57697-.2453-3.90839-.8225v-3.4344c1.20258.6638 2.72009 1.1544 3.90839 1.1544.8017 0 1.3744-.2164 1.3744-.8802 0-1.7172-5.44027-1.0822-5.44027-5.06493 0-2.55411 1.93271-4.0837 4.83897-4.0837 1.1882 0 2.3622.18759 3.5504.66379v3.39105c-1.088-.59163-2.4624-.92352-3.5504-.92352z" fill="#fff"/></svg>