<svg width="34" height="15" viewBox="0 0 34 15" fill="none" xmlns="http://www.w3.org/2000/svg">
<path d="M3 10.625L6.75 6.875L3 3.125" stroke="#706E6D" stroke-width="1.25" stroke-linecap="round" stroke-linejoin="round"/>
<path d="M8 11.875H13" stroke="#706E6D" stroke-width="1.25" stroke-linecap="round" stroke-linejoin="round"/>
<path d="M21.452 7.26705L20.6991 7.48011C20.6518 7.35464 20.5819 7.23272 20.4896 7.11435C20.3997 6.99361 20.2765 6.89418 20.1203 6.81605C19.964 6.73793 19.764 6.69886 19.5202 6.69886C19.1863 6.69886 18.9082 6.7758 18.6856 6.92969C18.4655 7.0812 18.3554 7.27415 18.3554 7.50852C18.3554 7.71686 18.4311 7.88139 18.5827 8.00213C18.7342 8.12287 18.9709 8.22348 19.2929 8.30398L20.1025 8.50284C20.5902 8.62121 20.9536 8.80232 21.1927 9.04616C21.4318 9.28764 21.5514 9.59896 21.5514 9.98011C21.5514 10.2926 21.4614 10.572 21.2815 10.8182C21.104 11.0644 20.8554 11.2585 20.5358 11.4006C20.2162 11.5426 19.8445 11.6136 19.4207 11.6136C18.8644 11.6136 18.4039 11.4929 18.0393 11.2514C17.6747 11.0099 17.4439 10.6572 17.3469 10.1932L18.1423 9.99432C18.2181 10.2879 18.3613 10.508 18.572 10.6548C18.7851 10.8016 19.0632 10.875 19.4065 10.875C19.7971 10.875 20.1073 10.7921 20.3369 10.6264C20.5689 10.4583 20.6849 10.2571 20.6849 10.0227C20.6849 9.83333 20.6186 9.67472 20.4861 9.54688C20.3535 9.41667 20.1499 9.3196 19.8753 9.25568L18.9662 9.04261C18.4666 8.92424 18.0997 8.74077 17.8653 8.49219C17.6333 8.24124 17.5173 7.92756 17.5173 7.55114C17.5173 7.24337 17.6037 6.97112 17.7765 6.73438C17.9517 6.49763 18.1897 6.31179 18.4903 6.17685C18.7934 6.0419 19.1366 5.97443 19.5202 5.97443C20.0599 5.97443 20.4837 6.0928 20.7915 6.32955C21.1016 6.56629 21.3218 6.87879 21.452 7.26705ZM26.6766 7.26705L25.9237 7.48011C25.8764 7.35464 25.8066 7.23272 25.7142 7.11435C25.6243 6.99361 25.5012 6.89418 25.3449 6.81605C25.1887 6.73793 24.9886 6.69886 24.7448 6.69886C24.411 6.69886 24.1328 6.7758 23.9102 6.92969C23.6901 7.0812 23.58 7.27415 23.58 7.50852C23.58 7.71686 23.6557 7.88139 23.8073 8.00213C23.9588 8.12287 24.1955 8.22348 24.5175 8.30398L25.3271 8.50284C25.8148 8.62121 26.1782 8.80232 26.4173 9.04616C26.6565 9.28764 26.776 9.59896 26.776 9.98011C26.776 10.2926 26.6861 10.572 26.5061 10.8182C26.3286 11.0644 26.08 11.2585 25.7604 11.4006C25.4408 11.5426 25.0691 11.6136 24.6453 11.6136C24.089 11.6136 23.6285 11.4929 23.2639 11.2514C22.8994 11.0099 22.6685 10.6572 22.5715 10.1932L23.3669 9.99432C23.4427 10.2879 23.5859 10.508 23.7966 10.6548C24.0097 10.8016 24.2878 10.875 24.6311 10.875C25.0218 10.875 25.3319 10.7921 25.5615 10.6264C25.7935 10.4583 25.9095 10.2571 25.9095 10.0227C25.9095 9.83333 25.8432 9.67472 25.7107 9.54688C25.5781 9.41667 25.3745 9.3196 25.0999 9.25568L24.1908 9.04261C23.6913 8.92424 23.3243 8.74077 23.0899 8.49219C22.8579 8.24124 22.7419 7.92756 22.7419 7.55114C22.7419 7.24337 22.8283 6.97112 23.0012 6.73438C23.1763 6.49763 23.4143 6.31179 23.7149 6.17685C24.018 6.0419 24.3612 5.97443 24.7448 5.97443C25.2845 5.97443 25.7083 6.0928 26.0161 6.32955C26.3262 6.56629 26.5464 6.87879 26.6766 7.26705ZM28.8756 8.21875V11.5H28.0376V4.22727H28.8756V6.89773H28.9466C29.0745 6.616 29.2662 6.39228 29.5219 6.22656C29.78 6.05848 30.1233 5.97443 30.5518 5.97443C30.9234 5.97443 31.249 6.04901 31.5283 6.19815C31.8077 6.34493 32.0243 6.57102 32.1782 6.87642C32.3344 7.17945 32.4126 7.56534 32.4126 8.03409V11.5H31.5745V8.09091C31.5745 7.65767 31.462 7.32268 31.2371 7.08594C31.0146 6.84683 30.7056 6.72727 30.3103 6.72727C30.0357 6.72727 29.7894 6.78527 29.5716 6.90128C29.3562 7.01728 29.1858 7.18655 29.0603 7.40909C28.9372 7.63163 28.8756 7.90152 28.8756 8.21875Z" fill="#706E6D"/>
</svg>
