<svg width="31" height="15" viewBox="0 0 31 15" fill="none" xmlns="http://www.w3.org/2000/svg">
<path d="M22.7072 12.2908V10.2101H18.2183V9.2345L21.5611 2.44655H22.7891L19.494 9.07759V9.16628H22.7209V6.35559H23.8124V9.15263H25.3132V10.2101H23.8056V12.2908H22.7072Z" fill="#706E6D"/>
<path d="M10.9352 5.21632C10.9352 3.48351 12.2177 2.2419 14.0119 2.2419C15.8198 2.2419 17.0614 3.36072 17.0614 5.00483C17.0614 6.02814 16.5975 6.84679 15.0284 8.55912L12.7089 11.0833V11.1993H17.2183V12.2908H10.9898V11.4585L14.3189 7.75412C15.5674 6.3556 15.8675 5.8303 15.8675 5.05259C15.8675 3.99517 15.1239 3.29932 13.9778 3.29932C12.8454 3.29932 12.0949 4.05657 12.0949 5.21632V5.25725H10.9352V5.21632Z" fill="#706E6D"/>
<path d="M5.13246 13.2254H4L8.79591 1.51193H9.93519L5.13246 13.2254Z" fill="#706E6D"/>
</svg>
