<svg xmlns="http://www.w3.org/2000/svg" width="135" height="59" viewBox="0 0 135 59" fill="none">
<path d="M43 34.5C43 34.2239 43.2239 34 43.5 34V34C43.7761 34 44 34.2239 44 34.5V48.5C44 48.7761 43.7761 49 43.5 49V49C43.2239 49 43 48.7761 43 48.5V34.5Z" fill="#444342"/>
<path d="M99 34.5C99 34.2239 99.2239 34 99.5 34V34C99.7761 34 100 34.2239 100 34.5V48.5C100 48.7761 99.7761 49 99.5 49V49C99.2239 49 99 48.7761 99 48.5V34.5Z" fill="#444342"/>
<path d="M58 11.5C58 11.2239 58.2239 11 58.5 11V11C58.7761 11 59 11.2239 59 11.5V57.5C59 57.7761 58.7761 58 58.5 58V58C58.2239 58 58 57.7761 58 57.5V11.5Z" fill="#444342"/>
<path d="M114 48.5C114 48.2239 114.224 48 114.5 48V48C114.776 48 115 48.2239 115 48.5V57.5C115 57.7761 114.776 58 114.5 58V58C114.224 58 114 57.7761 114 57.5V48.5Z" fill="#444342"/>
<g filter="url(#filter0_d_1319_6515)">
<rect x="43" y="27" width="57" height="15" rx="7.5" fill="#FAF9F8"/>
<rect x="44" y="28" width="55" height="13" rx="6.5" stroke="#444342" stroke-width="2"/>
<rect x="49" y="33" width="3" height="3" rx="1.5" fill="#444342"/>
<rect x="56" y="33" width="3" height="3" rx="1.5" fill="#444342"/>
<rect x="63" y="33" width="3" height="3" rx="1.5" fill="#444342"/>
<rect x="70" y="33" width="3" height="3" rx="1.5" fill="#444342"/>
<rect x="77" y="33" width="3" height="3" rx="1.5" fill="#444342"/>
<rect x="84" y="33" width="3" height="3" rx="1.5" fill="#444342"/>
<rect x="91" y="33" width="3" height="3" rx="1.5" fill="#444342"/>
</g>
<path d="M2 11.5C2 11.2239 2.22386 11 2.5 11V11C2.77614 11 3 11.2239 3 11.5L3 57.5C3 57.7761 2.77614 58 2.5 58V58C2.22386 58 2 57.7761 2 57.5L2 11.5Z" fill="#444342"/>
<path d="M134.5 48C134.776 48 135 48.2239 135 48.5V48.5C135 48.7761 134.776 49 134.5 49L2.5 49C2.22385 49 2 48.7761 2 48.5V48.5C2 48.2239 2.22386 48 2.5 48L134.5 48Z" fill="#444342"/>
<g filter="url(#filter1_d_1319_6515)">
<rect x="2" y="3" width="57" height="15" rx="7.5" fill="#FAF9F8"/>
<rect x="3" y="4" width="55" height="13" rx="6.5" stroke="#444342" stroke-width="2"/>
<rect x="8" y="9" width="3" height="3" rx="1.5" fill="#444342"/>
<rect x="15" y="9" width="3" height="3" rx="1.5" fill="#444342"/>
<rect x="22" y="9" width="3" height="3" rx="1.5" fill="#444342"/>
<rect x="29" y="9" width="3" height="3" rx="1.5" fill="#444342"/>
<rect x="36" y="9" width="3" height="3" rx="1.5" fill="#444342"/>
<rect x="43" y="9" width="3" height="3" rx="1.5" fill="#444342"/>
<rect x="50" y="9" width="3" height="3" rx="1.5" fill="#444342"/>
</g>
<path d="M5.64631 58V57.0483L8.17116 54.5732C8.41264 54.3293 8.61387 54.1127 8.77486 53.9233C8.93584 53.7339 9.05658 53.5504 9.13707 53.3729C9.21757 53.1953 9.25781 53.0059 9.25781 52.8047C9.25781 52.575 9.20573 52.3786 9.10156 52.2152C8.9974 52.0495 8.85417 51.9216 8.67188 51.8317C8.48958 51.7417 8.28243 51.6967 8.05043 51.6967C7.81132 51.6967 7.6018 51.7464 7.42188 51.8459C7.24195 51.9429 7.10227 52.0814 7.00284 52.2614C6.90578 52.4413 6.85724 52.6555 6.85724 52.9041H5.60369C5.60369 52.4425 5.70904 52.0412 5.91974 51.7003C6.13045 51.3594 6.42045 51.0954 6.78977 50.9084C7.16146 50.7214 7.58759 50.6278 8.06818 50.6278C8.55587 50.6278 8.98438 50.719 9.35369 50.9013C9.72301 51.0836 10.0095 51.3333 10.2131 51.6506C10.419 51.9678 10.522 52.33 10.522 52.7372C10.522 53.0095 10.4699 53.277 10.3658 53.5398C10.2616 53.8026 10.0781 54.0937 9.81534 54.4134C9.55492 54.733 9.18916 55.12 8.71804 55.5746L7.46449 56.8494V56.8991H10.6321V58H5.64631ZM14.5215 58.1385C13.9367 58.1385 13.4348 57.9905 13.0158 57.6946C12.5991 57.3963 12.2783 56.9666 12.0534 56.4055C11.8309 55.8421 11.7196 55.1638 11.7196 54.3707C11.722 53.5777 11.8344 52.9029 12.057 52.3466C12.2819 51.7879 12.6027 51.3617 13.0193 51.0682C13.4384 50.7746 13.9391 50.6278 14.5215 50.6278C15.1038 50.6278 15.6046 50.7746 16.0236 51.0682C16.4426 51.3617 16.7634 51.7879 16.9859 52.3466C17.2108 52.9053 17.3233 53.58 17.3233 54.3707C17.3233 55.1662 17.2108 55.8456 16.9859 56.4091C16.7634 56.9702 16.4426 57.3987 16.0236 57.6946C15.6069 57.9905 15.1062 58.1385 14.5215 58.1385ZM14.5215 57.027C14.976 57.027 15.3347 56.8033 15.5974 56.3558C15.8626 55.906 15.9952 55.2443 15.9952 54.3707C15.9952 53.7931 15.9348 53.3078 15.8141 52.9148C15.6933 52.5218 15.5229 52.2259 15.3027 52.027C15.0825 51.8258 14.8221 51.7251 14.5215 51.7251C14.0693 51.7251 13.7118 51.95 13.449 52.3999C13.1862 52.8473 13.0537 53.5043 13.0513 54.3707C13.0489 54.9508 13.1069 55.4384 13.2253 55.8338C13.346 56.2292 13.5165 56.5275 13.7367 56.7287C13.9568 56.9276 14.2184 57.027 14.5215 57.027ZM18.4792 58V57.0483L21.004 54.5732C21.2455 54.3293 21.4467 54.1127 21.6077 53.9233C21.7687 53.7339 21.8894 53.5504 21.9699 53.3729C22.0504 53.1953 22.0907 53.0059 22.0907 52.8047C22.0907 52.575 22.0386 52.3786 21.9344 52.2152C21.8303 52.0495 21.687 51.9216 21.5047 51.8317C21.3224 51.7417 21.1153 51.6967 20.8833 51.6967C20.6442 51.6967 20.4347 51.7464 20.2547 51.8459C20.0748 51.9429 19.9351 52.0814 19.8357 52.2614C19.7386 52.4413 19.6901 52.6555 19.6901 52.9041H18.4366C18.4366 52.4425 18.5419 52.0412 18.7526 51.7003C18.9633 51.3594 19.2533 51.0954 19.6226 50.9084C19.9943 50.7214 20.4205 50.6278 20.901 50.6278C21.3887 50.6278 21.8172 50.719 22.1866 50.9013C22.5559 51.0836 22.8423 51.3333 23.0459 51.6506C23.2519 51.9678 23.3549 52.33 23.3549 52.7372C23.3549 53.0095 23.3028 53.277 23.1986 53.5398C23.0945 53.8026 22.911 54.0937 22.6482 54.4134C22.3878 54.733 22.022 55.12 21.5509 55.5746L20.2973 56.8494V56.8991H23.465V58H18.4792ZM24.3785 56.6506V55.603L27.4644 50.7273H28.338V52.2188H27.8053L25.7279 55.5107V55.5675H30.0354V56.6506H24.3785ZM27.8479 58V56.331L27.8621 55.8622V50.7273H29.105V58H27.8479Z" fill="#444342"/>
<path d="M61.6463 58V57.0483L64.1712 54.5732C64.4126 54.3293 64.6139 54.1127 64.7749 53.9233C64.9358 53.7339 65.0566 53.5504 65.1371 53.3729C65.2176 53.1953 65.2578 53.0059 65.2578 52.8047C65.2578 52.575 65.2057 52.3786 65.1016 52.2152C64.9974 52.0495 64.8542 51.9216 64.6719 51.8317C64.4896 51.7417 64.2824 51.6967 64.0504 51.6967C63.8113 51.6967 63.6018 51.7464 63.4219 51.8459C63.242 51.9429 63.1023 52.0814 63.0028 52.2614C62.9058 52.4413 62.8572 52.6555 62.8572 52.9041H61.6037C61.6037 52.4425 61.709 52.0412 61.9197 51.7003C62.1304 51.3594 62.4205 51.0954 62.7898 50.9084C63.1615 50.7214 63.5876 50.6278 64.0682 50.6278C64.5559 50.6278 64.9844 50.719 65.3537 50.9013C65.723 51.0836 66.0095 51.3333 66.2131 51.6506C66.419 51.9678 66.522 52.33 66.522 52.7372C66.522 53.0095 66.4699 53.277 66.3658 53.5398C66.2616 53.8026 66.0781 54.0937 65.8153 54.4134C65.5549 54.733 65.1892 55.12 64.718 55.5746L63.4645 56.8494V56.8991H66.6321V58H61.6463ZM70.5215 58.1385C69.9367 58.1385 69.4348 57.9905 69.0158 57.6946C68.5991 57.3963 68.2783 56.9666 68.0534 56.4055C67.8309 55.8421 67.7196 55.1638 67.7196 54.3707C67.722 53.5777 67.8344 52.9029 68.057 52.3466C68.2819 51.7879 68.6027 51.3617 69.0193 51.0682C69.4384 50.7746 69.9391 50.6278 70.5215 50.6278C71.1038 50.6278 71.6046 50.7746 72.0236 51.0682C72.4426 51.3617 72.7634 51.7879 72.9859 52.3466C73.2108 52.9053 73.3233 53.58 73.3233 54.3707C73.3233 55.1662 73.2108 55.8456 72.9859 56.4091C72.7634 56.9702 72.4426 57.3987 72.0236 57.6946C71.6069 57.9905 71.1062 58.1385 70.5215 58.1385ZM70.5215 57.027C70.976 57.027 71.3347 56.8033 71.5974 56.3558C71.8626 55.906 71.9952 55.2443 71.9952 54.3707C71.9952 53.7931 71.9348 53.3078 71.8141 52.9148C71.6933 52.5218 71.5229 52.2259 71.3027 52.027C71.0825 51.8258 70.8221 51.7251 70.5215 51.7251C70.0693 51.7251 69.7118 51.95 69.449 52.3999C69.1862 52.8473 69.0537 53.5043 69.0513 54.3707C69.0489 54.9508 69.1069 55.4384 69.2253 55.8338C69.346 56.2292 69.5165 56.5275 69.7367 56.7287C69.9568 56.9276 70.2184 57.027 70.5215 57.027ZM74.4792 58V57.0483L77.004 54.5732C77.2455 54.3293 77.4467 54.1127 77.6077 53.9233C77.7687 53.7339 77.8894 53.5504 77.9699 53.3729C78.0504 53.1953 78.0907 53.0059 78.0907 52.8047C78.0907 52.575 78.0386 52.3786 77.9344 52.2152C77.8303 52.0495 77.687 51.9216 77.5047 51.8317C77.3224 51.7417 77.1153 51.6967 76.8833 51.6967C76.6442 51.6967 76.4347 51.7464 76.2547 51.8459C76.0748 51.9429 75.9351 52.0814 75.8357 52.2614C75.7386 52.4413 75.6901 52.6555 75.6901 52.9041H74.4366C74.4366 52.4425 74.5419 52.0412 74.7526 51.7003C74.9633 51.3594 75.2533 51.0954 75.6226 50.9084C75.9943 50.7214 76.4205 50.6278 76.901 50.6278C77.3887 50.6278 77.8172 50.719 78.1866 50.9013C78.5559 51.0836 78.8423 51.3333 79.0459 51.6506C79.2519 51.9678 79.3549 52.33 79.3549 52.7372C79.3549 53.0095 79.3028 53.277 79.1986 53.5398C79.0945 53.8026 78.911 54.0937 78.6482 54.4134C78.3878 54.733 78.022 55.12 77.5509 55.5746L76.2973 56.8494V56.8991H79.465V58H74.4792ZM83.1945 58.0994C82.721 58.0994 82.2973 58.0107 81.9232 57.8331C81.5492 57.6532 81.252 57.407 81.0319 57.0945C80.8141 56.782 80.6981 56.4245 80.6839 56.022H81.9623C81.9859 56.3203 82.115 56.5642 82.3493 56.7536C82.5837 56.9406 82.8654 57.0341 83.1945 57.0341C83.4526 57.0341 83.6822 56.9749 83.8834 56.8565C84.0847 56.7382 84.2433 56.5736 84.3593 56.3629C84.4753 56.1522 84.5321 55.9119 84.5297 55.642C84.5321 55.3674 84.4741 55.1236 84.3557 54.9105C84.2374 54.6974 84.0752 54.5305 83.8692 54.4098C83.6633 54.2867 83.4265 54.2251 83.159 54.2251C82.9412 54.2228 82.7269 54.263 82.5162 54.3459C82.3055 54.4287 82.1386 54.5376 82.0155 54.6726L80.8259 54.4773L81.2059 50.7273H85.4246V51.8281H82.2961L82.0866 53.7564H82.1292C82.2641 53.5978 82.4547 53.4664 82.7009 53.3622C82.9471 53.2557 83.217 53.2024 83.5106 53.2024C83.9509 53.2024 84.3439 53.3066 84.6895 53.5149C85.0352 53.7209 85.3074 54.005 85.5063 54.3672C85.7052 54.7294 85.8046 55.1437 85.8046 55.6101C85.8046 56.0907 85.6933 56.5192 85.4708 56.8956C85.2506 57.2696 84.944 57.5644 84.551 57.7798C84.1604 57.9929 83.7082 58.0994 83.1945 58.0994Z" fill="#444342"/>
<defs>
<filter id="filter0_d_1319_6515" x="41" y="25" width="61" height="19" filterUnits="userSpaceOnUse" color-interpolation-filters="sRGB">
<feFlood flood-opacity="0" result="BackgroundImageFix"/>
<feColorMatrix in="SourceAlpha" type="matrix" values="0 0 0 0 0 0 0 0 0 0 0 0 0 0 0 0 0 0 127 0" result="hardAlpha"/>
<feMorphology radius="2" operator="dilate" in="SourceAlpha" result="effect1_dropShadow_1319_6515"/>
<feOffset/>
<feComposite in2="hardAlpha" operator="out"/>
<feColorMatrix type="matrix" values="0 0 0 0 0.980392 0 0 0 0 0.976471 0 0 0 0 0.972549 0 0 0 1 0"/>
<feBlend mode="normal" in2="BackgroundImageFix" result="effect1_dropShadow_1319_6515"/>
<feBlend mode="normal" in="SourceGraphic" in2="effect1_dropShadow_1319_6515" result="shape"/>
</filter>
<filter id="filter1_d_1319_6515" x="0" y="1" width="61" height="19" filterUnits="userSpaceOnUse" color-interpolation-filters="sRGB">
<feFlood flood-opacity="0" result="BackgroundImageFix"/>
<feColorMatrix in="SourceAlpha" type="matrix" values="0 0 0 0 0 0 0 0 0 0 0 0 0 0 0 0 0 0 127 0" result="hardAlpha"/>
<feMorphology radius="2" operator="dilate" in="SourceAlpha" result="effect1_dropShadow_1319_6515"/>
<feOffset/>
<feComposite in2="hardAlpha" operator="out"/>
<feColorMatrix type="matrix" values="0 0 0 0 0.980392 0 0 0 0 0.976471 0 0 0 0 0.972549 0 0 0 1 0"/>
<feBlend mode="normal" in2="BackgroundImageFix" result="effect1_dropShadow_1319_6515"/>
<feBlend mode="normal" in="SourceGraphic" in2="effect1_dropShadow_1319_6515" result="shape"/>
</filter>
</defs>
</svg>