<svg xmlns="http://www.w3.org/2000/svg" width="134" height="58" viewBox="0 0 134 58" fill="none">
<rect x="28.5" y="37" width="104" height="20" rx="10" stroke="#444342" stroke-width="2"/>
<path d="M33.5 47C33.5 44.2386 35.7386 42 38.5 42V42C41.2614 42 43.5 44.2386 43.5 47V47C43.5 49.7614 41.2614 52 38.5 52V52C35.7386 52 33.5 49.7614 33.5 47V47Z" fill="#444342"/>
<path d="M47.5 47C47.5 44.2386 49.7386 42 52.5 42V42C55.2614 42 57.5 44.2386 57.5 47V47C57.5 49.7614 55.2614 52 52.5 52V52C49.7386 52 47.5 49.7614 47.5 47V47Z" fill="#444342"/>
<path d="M61.5 47C61.5 44.2386 63.7386 42 66.5 42V42C69.2614 42 71.5 44.2386 71.5 47V47C71.5 49.7614 69.2614 52 66.5 52V52C63.7386 52 61.5 49.7614 61.5 47V47Z" fill="#444342"/>
<path d="M75.5 47C75.5 44.2386 77.7386 42 80.5 42V42C83.2614 42 85.5 44.2386 85.5 47V47C85.5 49.7614 83.2614 52 80.5 52V52C77.7386 52 75.5 49.7614 75.5 47V47Z" fill="#444342"/>
<path d="M89.5 47C89.5 44.2386 91.7386 42 94.5 42V42C97.2614 42 99.5 44.2386 99.5 47V47C99.5 49.7614 97.2614 52 94.5 52V52C91.7386 52 89.5 49.7614 89.5 47V47Z" fill="#444342"/>
<path d="M103.5 47C103.5 44.2386 105.739 42 108.5 42V42C111.261 42 113.5 44.2386 113.5 47V47C113.5 49.7614 111.261 52 108.5 52V52C105.739 52 103.5 49.7614 103.5 47V47Z" fill="#444342"/>
<path d="M117.5 47C117.5 44.2386 119.739 42 122.5 42V42C125.261 42 127.5 44.2386 127.5 47V47C127.5 49.7614 125.261 52 122.5 52V52C119.739 52 117.5 49.7614 117.5 47V47Z" fill="#444342"/>
<path d="M16.0865 22.318C15.7194 21.9053 15.7564 21.2732 16.1691 20.9062V20.9062C16.5817 20.5392 17.2138 20.5761 17.5809 20.9888L38.2369 44.2121C38.604 44.6248 38.567 45.2568 38.1543 45.6239V45.6239C37.7417 45.9909 37.1096 45.954 36.7425 45.5413L16.0865 22.318Z" fill="#444342"/>
<path fill-rule="evenodd" clip-rule="evenodd" d="M36.7413 45.5414C37.1083 45.954 37.7404 45.991 38.1531 45.624C38.5658 45.2569 38.6027 44.6248 38.2357 44.2122L17.5796 20.9889C17.2126 20.5762 16.5805 20.5392 16.1678 20.9063C15.7552 21.2733 15.7182 21.9054 16.0852 22.3181L36.7413 45.5414ZM20.5684 18.3305L41.2245 41.5538C43.0597 43.6171 42.8748 46.7775 40.8115 48.6128C38.7482 50.448 35.5877 50.2631 33.7525 48.1998L13.0964 24.9765C11.2612 22.9131 11.4461 19.7527 13.5094 17.9175C15.5728 16.0822 18.7332 16.2671 20.5684 18.3305Z" fill="#FAF9F8"/>
<path d="M33.5 47C33.5 44.2386 35.7386 42 38.5 42V42C41.2614 42 43.5 44.2386 43.5 47V47C43.5 49.7614 41.2614 52 38.5 52V52C35.7386 52 33.5 49.7614 33.5 47V47Z" fill="#444342"/>
<path d="M0.5 13C0.5 7.20101 5.20101 2.5 11 2.5H12C17.799 2.5 22.5 7.20101 22.5 13V13C22.5 18.799 17.799 23.5 12 23.5H11C5.20101 23.5 0.5 18.799 0.5 13V13Z" fill="#444342"/>
<path d="M68.582 5V21H66.1602V7.42188H66.0664L62.2383 9.92188V7.60937L66.2305 5H68.582Z" fill="#444342"/>
<path d="M53.3438 23V3H54.625V23H53.3438ZM57.3516 9.20312C57.2682 8.46354 56.9245 7.89063 56.3203 7.48438C55.7161 7.07292 54.9557 6.86719 54.0391 6.86719C53.3828 6.86719 52.8151 6.97135 52.3359 7.17969C51.8568 7.38281 51.4844 7.66406 51.2188 8.02344C50.9583 8.3776 50.8281 8.78125 50.8281 9.23438C50.8281 9.61458 50.9167 9.94271 51.0938 10.2188C51.276 10.4948 51.513 10.7266 51.8047 10.9141C52.1016 11.0964 52.4193 11.25 52.7578 11.375C53.0964 11.4948 53.4219 11.5938 53.7344 11.6719L55.2969 12.0781C55.8073 12.2031 56.3307 12.3724 56.8672 12.5859C57.4036 12.7995 57.901 13.0807 58.3594 13.4297C58.8177 13.7786 59.1875 14.2109 59.4688 14.7266C59.7552 15.2422 59.8984 15.8594 59.8984 16.5781C59.8984 17.4844 59.6641 18.2891 59.1953 18.9922C58.7318 19.6953 58.0573 20.25 57.1719 20.6563C56.2917 21.0625 55.2266 21.2656 53.9766 21.2656C52.7786 21.2656 51.7422 21.0755 50.8672 20.6953C49.9922 20.3151 49.3073 19.776 48.8125 19.0781C48.3177 18.375 48.0443 17.5417 47.9922 16.5781H50.4141C50.4609 17.1563 50.6484 17.638 50.9766 18.0234C51.3099 18.4036 51.7344 18.6875 52.25 18.875C52.7708 19.0573 53.3411 19.1484 53.9609 19.1484C54.6432 19.1484 55.25 19.0417 55.7812 18.8281C56.3177 18.6094 56.7396 18.3073 57.0469 17.9219C57.3542 17.5313 57.5078 17.0755 57.5078 16.5547C57.5078 16.0807 57.3724 15.6927 57.1016 15.3906C56.8359 15.0885 56.474 14.8385 56.0156 14.6406C55.5625 14.4427 55.0495 14.2682 54.4766 14.1172L52.5859 13.6016C51.3047 13.2526 50.2891 12.7396 49.5391 12.0625C48.7943 11.3854 48.4219 10.4896 48.4219 9.375C48.4219 8.45312 48.6719 7.64844 49.1719 6.96094C49.6719 6.27344 50.349 5.73958 51.2031 5.35938C52.0573 4.97396 53.0208 4.78125 54.0938 4.78125C55.1771 4.78125 56.1328 4.97136 56.9609 5.35156C57.7943 5.73177 58.4505 6.25521 58.9297 6.92188C59.4089 7.58333 59.6589 8.34375 59.6797 9.20312H57.3516Z" fill="#444342"/>
<path d="M28.8203 11.6172V9.57031H38.8281V11.6172H28.8203ZM28.8203 16.4297V14.3828H38.8281V16.4297H28.8203Z" fill="#444342"/>
</svg>