<svg xmlns="http://www.w3.org/2000/svg" width="133" height="58" viewBox="0 0 133 58" fill="none">
<rect x="1" y="6" width="104" height="20" rx="10" stroke="#444342" stroke-width="2"/>
<rect x="6" y="11" width="10" height="10" rx="5" fill="#444342"/>
<rect x="20.5" y="11.5" width="9" height="9" rx="4.5" stroke="#444342"/>
<rect x="34.5" y="11.5" width="9" height="9" rx="4.5" stroke="#444342"/>
<rect x="48.5" y="11.5" width="9" height="9" rx="4.5" stroke="#444342"/>
<rect x="62.5" y="11.5" width="9" height="9" rx="4.5" stroke="#444342"/>
<rect x="76.5" y="11.5" width="9" height="9" rx="4.5" stroke="#444342"/>
<rect x="90.5" y="11.5" width="9" height="9" rx="4.5" stroke="#444342"/>
<path d="M87 38L92 43L87 48" stroke="#444342" stroke-width="2" stroke-linecap="round" stroke-linejoin="round"/>
<path d="M76 32V39C76 40.0609 76.4214 41.0783 77.1716 41.8284C77.9217 42.5786 78.9391 43 80 43H92" stroke="#444342" stroke-width="2" stroke-linecap="round" stroke-linejoin="round"/>
<path d="M108 36V40" stroke="#444342" stroke-width="2" stroke-linecap="round" stroke-linejoin="round"/>
<path d="M116 36V40" stroke="#444342" stroke-width="2" stroke-linecap="round" stroke-linejoin="round"/>
<path d="M119 38H105C103.895 38 103 38.8954 103 40V54C103 55.1046 103.895 56 105 56H119C120.105 56 121 55.1046 121 54V40C121 38.8954 120.105 38 119 38Z" stroke="#444342" stroke-width="2" stroke-linecap="round" stroke-linejoin="round"/>
<path d="M103 44H121" stroke="#444342" stroke-width="2" stroke-linecap="round" stroke-linejoin="round"/>
<path d="M108 48H108.01" stroke="#444342" stroke-width="2" stroke-linecap="round" stroke-linejoin="round"/>
<path d="M112 48H112.01" stroke="#444342" stroke-width="2" stroke-linecap="round" stroke-linejoin="round"/>
<path d="M116 48H116.01" stroke="#444342" stroke-width="2" stroke-linecap="round" stroke-linejoin="round"/>
<path d="M108 52H108.01" stroke="#444342" stroke-width="2" stroke-linecap="round" stroke-linejoin="round"/>
<path d="M112 52H112.01" stroke="#444342" stroke-width="2" stroke-linecap="round" stroke-linejoin="round"/>
<path d="M116 52H116.01" stroke="#444342" stroke-width="2" stroke-linecap="round" stroke-linejoin="round"/>
</svg>